<?xml version="1.0" encoding="UTF-8" standalone="no"?>
<!-- Creator: CorelDRAW -->

<svg
   xmlns:dc="http://purl.org/dc/elements/1.1/"
   xmlns:cc="http://creativecommons.org/ns#"
   xmlns:rdf="http://www.w3.org/1999/02/22-rdf-syntax-ns#"
   xmlns:svg="http://www.w3.org/2000/svg"
   xmlns="http://www.w3.org/2000/svg"
   xmlns:xlink="http://www.w3.org/1999/xlink"
   xmlns:sodipodi="http://sodipodi.sourceforge.net/DTD/sodipodi-0.dtd"
   xmlns:inkscape="http://www.inkscape.org/namespaces/inkscape"
   xml:space="preserve"
   width="471.45804"
   height="457.58612"
   style="fill-rule:evenodd"
   viewBox="0 0 4.4776435 4.345891"
   id="svg4250"
   version="1.1"
   inkscape:version="0.47 r22583"
   sodipodi:docname="cd cover2.svg"><metadata
   id="metadata4337"><rdf:RDF><cc:Work
       rdf:about=""><dc:format>image/svg+xml</dc:format><dc:type
         rdf:resource="http://purl.org/dc/dcmitype/StillImage" /></cc:Work></rdf:RDF></metadata><sodipodi:namedview
   pagecolor="#ffffff"
   bordercolor="#666666"
   borderopacity="1"
   objecttolerance="10"
   gridtolerance="10"
   guidetolerance="10"
   inkscape:pageopacity="0"
   inkscape:pageshadow="2"
   inkscape:window-width="1680"
   inkscape:window-height="1004"
   id="namedview4335"
   showgrid="false"
   showborder="false"
   inkscape:zoom="0.56674392"
   inkscape:cx="-18.476212"
   inkscape:cy="317.66425"
   inkscape:window-x="-4"
   inkscape:window-y="-4"
   inkscape:window-maximized="1"
   inkscape:current-layer="svg4250" />
 <defs
   id="defs4252"><linearGradient
   inkscape:collect="always"
   id="linearGradient4380"><stop
     style="stop-color:#0a94d6;stop-opacity:1;"
     offset="0"
     id="stop4382" /><stop
     style="stop-color:#0a94d6;stop-opacity:0;"
     offset="1"
     id="stop4384" /></linearGradient><linearGradient
   inkscape:collect="always"
   id="linearGradient4372"><stop
     style="stop-color:#332b24;stop-opacity:1;"
     offset="0"
     id="stop4374" /><stop
     style="stop-color:#332b24;stop-opacity:0;"
     offset="1"
     id="stop4376" /></linearGradient><inkscape:perspective
   sodipodi:type="inkscape:persp3d"
   inkscape:vp_x="0 : 208.20691 : 1"
   inkscape:vp_y="0 : 1000 : 0"
   inkscape:vp_z="396.1521 : 208.20691 : 1"
   inkscape:persp3d-origin="198.07605 : 138.80461 : 1"
   id="perspective4339" />
  <style
   type="text/css"
   id="style4254">
   
    .str0 {stroke:#4D4948;stroke-width:0.284924}
    .fil0 {fill:#4D4948}
    .fil16 {fill:#A3CE27}
    .fil13 {fill:#0A94D6}
    .fil4 {fill:#332B24}
    .fil2 {fill:#666366}
    .fil5 {fill:#B8B3AD}
    .fil14 {fill:#CFC9C4}
    .fil8 {fill:#D61C38}
    .fil7 {fill:#E3BA12}
    .fil6 {fill:white}
    .fil12 {fill:#CFC9C4;fill-rule:nonzero}
    .fil15 {fill:white;fill-rule:nonzero}
    .fil10 {fill:#D61C38;fill-opacity:0.200000}
    .fil9 {fill:#E3BA12;fill-opacity:0.200000}
    .fil11 {fill:#4D4948;fill-opacity:0.501961}
    .fil3 {fill:url(#id6)}
    .fil1 {fill:url(#id7)}
   
  </style>
   <mask
   id="id0">
  <linearGradient
   id="id1"
   gradientUnits="userSpaceOnUse"
   x1="1.19362"
   y1="0.97622299"
   x2="2.3978601"
   y2="2.6152501">
   <stop
   offset="0"
   style="stop-opacity:1; stop-color:white"
   id="stop4258" />
   <stop
   offset="1"
   style="stop-opacity:0; stop-color:white"
   id="stop4260" />
  </linearGradient>
    <rect
   style="fill:url(#id1)"
   x="0.139496"
   y="0.139496"
   width="3.31248"
   height="3.31248"
   id="rect4262" />
   </mask>
   <mask
   id="id2">
  <linearGradient
   id="id3"
   gradientUnits="userSpaceOnUse"
   x1="0.096827798"
   y1="3.1800101"
   x2="2.6928501"
   y2="0.41146299">
   <stop
   offset="0"
   style="stop-opacity:1; stop-color:white"
   id="stop4266" />
   <stop
   offset="1"
   style="stop-opacity:0; stop-color:white"
   id="stop4268" />
  </linearGradient>
    <rect
   style="fill:url(#id3)"
   x="0.139496"
   y="0.139496"
   width="2.51069"
   height="3.31248"
   id="rect4270" />
   </mask>
   <mask
   id="id4">
  <linearGradient
   id="id5"
   gradientUnits="userSpaceOnUse"
   x1="0.038962599"
   y1="1.6708699"
   x2="1.51693"
   y2="0.35355499">
   <stop
   offset="0"
   style="stop-opacity:1; stop-color:white"
   id="stop4274" />
   <stop
   offset="1"
   style="stop-opacity:0; stop-color:white"
   id="stop4276" />
  </linearGradient>
    <rect
   style="fill:url(#id5)"
   x="0.139496"
   y="0.139496"
   width="1.27689"
   height="1.74543"
   id="rect4278" />
   </mask>
  <linearGradient
   id="id6"
   gradientUnits="userSpaceOnUse"
   x1="0.30136299"
   y1="0.298614"
   x2="4.6821599"
   y2="5.6782899">
   <stop
   offset="0"
   style="stop-color:#666366"
   id="stop4281" />
   <stop
   offset="1"
   style="stop-color:white"
   id="stop4283" />
  </linearGradient>
  <linearGradient
   id="id7"
   gradientUnits="userSpaceOnUse"
   xlink:href="#id6"
   x1="2.2999001"
   y1="2.52702"
   x2="7.0047898"
   y2="5.9474602">
  </linearGradient>
 <linearGradient
   inkscape:collect="always"
   xlink:href="#id6"
   id="linearGradient4341"
   gradientUnits="userSpaceOnUse"
   x1="0.30136299"
   y1="0.298614"
   x2="4.6821599"
   y2="5.6782899" />
  
  
  
  
  
  
  
  
  
  
  
  
  
  
  
  
  
  
  
  
  
  
  
  
 <linearGradient
   inkscape:collect="always"
   xlink:href="#id6"
   id="linearGradient4365"
   gradientUnits="userSpaceOnUse"
   x1="0.30136299"
   y1="0.298614"
   x2="4.6821599"
   y2="5.6782899"
   gradientTransform="translate(-1.9997492e-6,-4.2084321e-6)" /><linearGradient
   inkscape:collect="always"
   xlink:href="#id6"
   id="linearGradient4369"
   gradientUnits="userSpaceOnUse"
   x1="2.2999001"
   y1="2.52702"
   x2="7.0047898"
   y2="5.9474602"
   gradientTransform="translate(-1.9997492e-6,-4.2084321e-6)" /><linearGradient
   inkscape:collect="always"
   xlink:href="#linearGradient4372"
   id="linearGradient4378"
   x1="0.25974745"
   y1="-0.31840232"
   x2="2.3880007"
   y2="1.2400824"
   gradientUnits="userSpaceOnUse" /><linearGradient
   inkscape:collect="always"
   xlink:href="#linearGradient4380"
   id="linearGradient4386"
   x1="0.68707389"
   y1="2.7399144"
   x2="-0.85465288"
   y2="-0.15082331"
   gradientUnits="userSpaceOnUse" /><linearGradient
   inkscape:collect="always"
   xlink:href="#linearGradient4380"
   id="linearGradient4421"
   gradientUnits="userSpaceOnUse"
   x1="0.68707389"
   y1="2.7399144"
   x2="-0.85465288"
   y2="-0.15082331" /></defs>
 <path
   style="fill:#4d4948;stroke:#4d4948;stroke-width:0.284924"
   id="path4288"
   d="m 0.638443,0.14245979 2.81056,0 0.170954,0.170954 0,2.81056001 c 0,0.272792 -0.223189,0.495981 -0.495981,0.495981 l -2.81056,0 -0.170954,-0.170954 0,-2.81056001 c 0,-0.272792 0.223189,-0.495981 0.495981,-0.495981 z"
   class="fil0 str0" /><path
   style="fill:url(#linearGradient4369)"
   id="path4290"
   d="m 0.313415,0.31341279 3.30655,0 0,2.81056001 c 0,0.272792 -0.223189,0.495981 -0.495981,0.495981 l -2.81056,0 0,-3.30655001 z"
   class="fil1" /><polygon
   style="fill:#666366"
   id="polygon4292"
   points="3.44901,0.142464 0.142464,3.44901 0.313417,3.61996 3.61996,0.313417 "
   class="fil2"
   transform="translate(-1.9997492e-6,-4.2084321e-6)" /><path
   style="fill:url(#linearGradient4365)"
   id="path4294"
   d="m 0.638443,0.14245979 2.81056,0 0,2.81056001 c 0,0.272792 -0.223189,0.495981 -0.495981,0.495981 l -2.81056,0 0,-2.81056001 c 0,-0.272792 0.223189,-0.495981 0.495981,-0.495981 z"
   class="fil3" /><path
   mask="url(#id0)"
   id="path4296"
   d="m 0.313417,3.44901 -0.170954,0 0,-2.81056 c 0,-0.272792 0.223189,-0.495981 0.495981,-0.495981 l 2.81056,0 0,0.170954 -2.63961,0 c -0.272792,0 -0.495981,0.223189 -0.495981,0.495981 l 0,2.63961 z"
   style="fill:url(#linearGradient4378);fill-opacity:1"
   class="fil4"
   transform="translate(-1.9997492e-6,-4.2084321e-6)" /><polygon
   style="fill:#b8b3ad"
   id="polygon4298"
   points="0.313417,3.61996 0.980817,3.61996 0.809863,3.44901 0.142464,3.44901 "
   class="fil5"
   transform="translate(-1.9997492e-6,-4.2084321e-6)" /><path
   mask="url(#id2)"
   id="path4300"
   d="m 0.638445,0.142464 2.00877,0 C 2.44837,0.872362 2.169123,1.491174 1.888244,1.989014 1.8057723,2.135196 1.664746,2.0263041 1.583987,2.151376 1.5170727,2.255005 1.509824,2.595967 1.446591,2.684789 1.089947,3.185758 0.809859,3.449006 0.809859,3.449006 l -0.667399,0 0,-2.81056 c 0,-0.272792 0.223189,-0.495981 0.495981,-0.495981 z"
   style="fill:#ffffff"
   class="fil6"
   transform="translate(-1.9997492e-6,-4.2084321e-6)" /><path
   mask="url(#id4)"
   id="path4302"
   d="m 0.638445,0.142464 0.774976,0 c 0,0 -0.995728,0.331327 -1.27096,1.73949 l 0,-1.24351 c 0,-0.272792 0.223189,-0.495981 0.495981,-0.495981 z"
   style="fill:#ffffff"
   class="fil6"
   transform="translate(-1.9997492e-6,-4.2084321e-6)" /><rect
   style="fill:#ffcc00"
   id="rect4304"
   height="0.416161"
   width="0.416161"
   y="0.14245979"
   x="3.0328481"
   class="fil7" /><polygon
   style="fill:#aa8800"
   id="polygon4306"
   points="3.44901,0.558625 3.61996,0.729579 3.61996,0.313417 3.44901,0.142464 "
   class="fil8"
   transform="translate(-1.9997492e-6,-4.2084321e-6)" /><polygon
   style="fill:#ffcc00;fill-opacity:0.20000000000000001"
   id="polygon4308"
   points="3.03285,0.558625 3.03285,0.675611 3.44901,0.675611 3.44901,0.558625 "
   class="fil9"
   transform="translate(-1.9997492e-6,-4.2084321e-6)" /><polygon
   style="fill:#aa8800;fill-opacity:0.20000000000000001"
   id="polygon4310"
   points="3.44901,0.675611 3.61996,0.846564 3.61996,0.729579 3.44901,0.558625 "
   class="fil10"
   transform="translate(-1.9997492e-6,-4.2084321e-6)" /><g
   id="g4406"
   transform="matrix(1.1152991,0,0,1.1152991,0.69959015,-0.06495831)"><g
     id="_154036544">
   <path
   id="_102916888"
   class="fil11"
   d="m 1.87098,3.95486 c 0.837397,0 1.5165,-0.6791 1.5165,-1.5165 0,-0.837394 -0.6791,-1.5165 -1.5165,-1.5165 -0.837394,0 -1.5165,0.679104 -1.5165,1.5165 0,0.837397 0.679104,1.5165 1.5165,1.5165 z m 0,-1.11061 c 0.224124,0 0.405884,-0.18176 0.405884,-0.405884 0,-0.224124 -0.18176,-0.405881 -0.405884,-0.405881 -0.224124,0 -0.405881,0.181756 -0.405881,0.405881 0,0.224124 0.181756,0.405884 0.405881,0.405884 z"
   style="fill:#4d4948;fill-opacity:0.50196078" />
   <path
   id="_154037528"
   class="fil11"
   d="m 1.83679,2.86352 c 0.253641,0 0.459341,-0.2057 0.459341,-0.459341 0,-0.253641 -0.2057,-0.459341 -0.459341,-0.459341 -0.253641,0 -0.459341,0.2057 -0.459341,0.459341 0,0.253641 0.2057,0.459341 0.459341,0.459341 z m 0,-0.229445 c 0.126947,0 0.229896,-0.102949 0.229896,-0.229896 0,-0.126947 -0.102949,-0.229892 -0.229896,-0.229892 -0.126947,0 -0.229892,0.102946 -0.229892,0.229892 0,0.126947 0.102946,0.229896 0.229892,0.229896 z"
   style="fill:#4d4948;fill-opacity:0.50196078" />
  </g><path
     class="fil12"
     d="m 1.78071,3.80189 c 0.401391,0 0.764846,-0.162759 1.02794,-0.425857 0.263097,-0.263097 0.425857,-0.626552 0.425857,-1.02794 0,-0.401391 -0.162759,-0.76485 -0.425857,-1.02795 C 2.545553,1.057046 2.182098,0.894286 1.78071,0.894286 c -0.401391,0 -0.76485,0.162759 -1.02795,0.425857 -0.263097,0.263101 -0.425857,0.626559 -0.425857,1.02795 0,0.401391 0.162759,0.764846 0.425857,1.02794 C 1.015861,3.63913 1.379319,3.80189 1.78071,3.80189 z M 2.8973,3.46468 C 2.611508,3.750472 2.216709,3.927271 1.78071,3.927271 1.344707,3.927271 0.949908,3.750472 0.66411,3.46468 0.378318,3.178888 0.201519,2.784089 0.201519,2.34809 c 0,-0.436003 0.176799,-0.830802 0.462591,-1.1166 0.285796,-0.285792 0.680594,-0.462591 1.1166,-0.462591 0.435999,0 0.830798,0.176799 1.11659,0.462591 0.285792,0.285796 0.462591,0.680594 0.462591,1.1166 0,0.435999 -0.176799,0.830798 -0.462591,1.11659 z M 1.78071,2.691279 c 0.094758,0 0.180561,-0.038421 0.242663,-0.100526 C 2.085478,2.528648 2.123899,2.442844 2.123899,2.34809 2.123899,2.253332 2.085478,2.167529 2.023373,2.105423 1.961271,2.043321 1.875468,2.004897 1.78071,2.004897 c -0.094758,0 -0.180561,0.038421 -0.242667,0.100526 -0.062105,0.062105 -0.100526,0.147909 -0.100526,0.242667 0,0.094758 0.038424,0.180561 0.100526,0.242663 0.062105,0.062105 0.147909,0.100526 0.242667,0.100526 z M 2.11202,2.6794 C 2.027223,2.764201 1.910072,2.816661 1.78071,2.816661 1.651347,2.816661 1.534197,2.7642 1.449396,2.6794 1.364599,2.594603 1.312135,2.477456 1.312135,2.34809 1.312135,2.218727 1.364596,2.101577 1.449396,2.016776 1.534197,1.931979 1.65134,1.879515 1.78071,1.879515 c 0.129366,0 0.246513,0.052464 0.33131,0.137261 0.084801,0.0848 0.137261,0.201951 0.137261,0.331314 0,0.129366 -0.052464,0.24651 -0.137261,0.33131 z"
     id="path4315"
     style="fill:#cfc9c4;fill-rule:nonzero" /><path
     class="fil6"
     d="m 1.7807,3.86459 c 0.837397,0 1.5165,-0.6791 1.5165,-1.5165 0,-0.837394 -0.6791,-1.51649 -1.5165,-1.51649 -0.837394,0 -1.51649,0.6791 -1.51649,1.51649 0,0.837397 0.6791,1.5165 1.51649,1.5165 z m 0,-1.11061 c 0.224128,0 0.405884,-0.181756 0.405884,-0.405884 0,-0.224124 -0.181756,-0.405881 -0.405884,-0.405881 -0.224124,0 -0.405881,0.181756 -0.405881,0.405881 0,0.224128 0.181756,0.405884 0.405881,0.405884 z"
     id="path4317"
     style="fill:#ffffff" /><path
     class="fil13"
     d="M 0.307081,1.98914 C 0.2791328,2.104234 0.264208,2.224417 0.264208,2.348096 c 0,0.295582 0.0846961,0.571379 0.231016,0.804613 C 0.850498,3.1038223 1.169657,2.791468 1.213465,2.445183 1.258162,2.091847 0.999302,1.83681 0.635399,1.875658 0.519975,1.8879815 0.407845,1.9284282 0.30708,1.98914 z"
     id="path4319"
     style="fill:url(#linearGradient4421);fill-opacity:1" /><path
     class="fil14"
     d="m 1.7807,2.80743 c 0.253644,0 0.459341,-0.205696 0.459341,-0.459341 0,-0.253641 -0.205696,-0.459337 -0.459341,-0.459337 -0.253641,0 -0.459337,0.205696 -0.459337,0.459337 0,0.253644 0.205696,0.459341 0.459337,0.459341 z m 0,-0.229445 c 0.126947,0 0.229896,-0.102949 0.229896,-0.229896 0,-0.126947 -0.102949,-0.229892 -0.229896,-0.229892 -0.126947,0 -0.229892,0.102946 -0.229892,0.229892 0,0.126947 0.102946,0.229896 0.229892,0.229896 z"
     id="path4321"
     style="fill:#cfc9c4" /><rect
     class="fil5"
     x="2.43343"
     y="2.2650199"
     width="0.62503898"
     height="0.083074801"
     id="rect4323"
     style="fill:#b8b3ad" /><rect
     class="fil5"
     x="2.43343"
     y="2.4272101"
     width="0.174061"
     height="0.083074801"
     id="rect4325"
     style="fill:#b8b3ad" /><rect
     class="fil5"
     x="2.68661"
     y="2.4272101"
     width="0.37185901"
     height="0.083074801"
     id="rect4327"
     style="fill:#b8b3ad" /><path
     class="fil15"
     d="m 0.877084,2.58119 c -0.003325,1.548e-4 -0.006619,2.356e-4 -0.009877,2.356e-4 -0.0307481,0 -0.0601737,-0.00616 -0.0870922,-0.017307 C 0.7521093,2.5525156 0.7269845,2.5355946 0.7060461,2.5146566 0.6851076,2.4937176 0.6681839,2.4685936 0.6565839,2.4405876 0.6454349,2.4136756 0.6392765,2.3842466 0.6392765,2.3534956 c 0,-0.030748 0.006158,-0.060174 0.0173074,-0.087092 0.0116,-0.028002 0.0285203,-0.053124 0.0494622,-0.074065 0.0208745,-0.020874 0.0458546,-0.037741 0.0736447,-0.049314 0.0214601,-0.00893 0.0446364,-0.014679 0.0689368,-0.016634 l 0,-0.111295 0,-0.01823 0,-0.017809 0.0178088,0 0.0182261,0 0.027891,0 c 0.0246032,0 0.0481699,0.00494 0.0697377,0.013872 0.0224462,0.0093 0.042577,0.02285 0.0593324,0.039605 0.016755,0.016755 0.030307,0.036883 0.039605,0.059336 0.00893,0.021568 0.013872,0.045131 0.013872,0.069734 l -7.06e-5,0 -7.07e-5,0.359774 c -3.4e-6,0.025801 -0.00444,0.050778 -0.012579,0.074113 -0.00845,0.024236 -0.020851,0.046703 -0.036381,0.066497 -0.015635,0.019929 -0.034591,0.037307 -0.056021,0.051212 -0.0209115,0.013569 -0.0441653,0.023785 -0.0689805,0.029796 l -0.0224999,0.00545 -0.0219817,0.00532 0,-0.022571 0,-0.139304 0,-0.010378 5.6872e-4,-3.197e-4 z"
     id="path4329"
     style="fill:#ffffff;fill-rule:nonzero" /><path
     class="fil16"
     d="m 0.866184,2.54577 c 0.0337735,0 0.0655042,-0.00874 0.0930722,-0.024065 0,0.034716 -0.0193198,0.065184 -0.0477257,0.081186 l 0,0.105574 c 0.0836664,-0.020262 0.146489,-0.097948 0.146512,-0.18671 0,-0.127926 0,-0.231841 0,-0.35977 l -0.191859,0 c -0.105961,0 -0.191892,0.085931 -0.191892,0.191892 0,0.105961 0.0859312,0.191892 0.191892,0.191892 z"
     id="path4331"
     style="fill:#a3ce27" /><path
     class="fil4"
     d="m 0.91153,2.01547 c 0.0809035,0 0.146512,0.065609 0.146512,0.146509 l -0.0871999,0 c 0,0.063751 0,0.127502 0,0.191249 0,0.053248 -0.0455248,0.096431 -0.10166,0.096431 -0.0561354,0 -0.10166,-0.043183 -0.10166,-0.096431 0,-0.053248 0.0455248,-0.096427 0.10166,-0.096427 0.00491,0 0.009736,3.298e-4 0.0144604,9.692e-4 l 0,-0.2423 0.0278877,0 z"
     id="path4333"
     style="fill:#332b24" /></g>
</svg>