/* XPM */
const char * guImage_audio_volume_high[] = {
/* columns rows colors chars-per-pixel */
"24 24 136 2",
"   c #2E3335",
".  c #313638",
"X  c #323638",
"o  c #34393A",
"O  c #353A3B",
"+  c #383D3D",
"@  c #3A3E3E",
"#  c #3A4040",
"$  c #3C4141",
"%  c #3D4141",
"&  c #3E4241",
"*  c #3F4443",
"=  c #414544",
"-  c #424545",
";  c #434746",
":  c #444947",
">  c #464B48",
",  c #484D4A",
"<  c #494E4B",
"1  c #4C504D",
"2  c #4D504E",
"3  c #4F534F",
"4  c #505450",
"5  c #515551",
"6  c #525752",
"7  c #555753",
"8  c #565853",
"9  c #555955",
"0  c #575B55",
"q  c #575C56",
"w  c #585A55",
"e  c #585D57",
"r  c #5A5E58",
"t  c #595D5B",
"y  c #5C605A",
"u  c #5D615B",
"i  c #5F635D",
"p  c #5F645C",
"a  c #626660",
"s  c #646765",
"d  c #656963",
"f  c #656A62",
"g  c #686C62",
"h  c #696D64",
"j  c #6E6F6F",
"k  c #6C7067",
"l  c #6D7168",
"z  c #6C7069",
"x  c #6F7268",
"c  c #6F7269",
"v  c #71756B",
"b  c #72766B",
"n  c #70756D",
"m  c #75786E",
"M  c #75796E",
"N  c #76786F",
"B  c #767A6E",
"V  c #767A6F",
"C  c #717571",
"Z  c #757970",
"A  c gray48",
"S  c #7F7F7F",
"D  c #7F807F",
"F  c #81847B",
"G  c #204B86",
"H  c #204A87",
"J  c #244E8A",
"K  c #244E8C",
"L  c #254F8C",
"P  c #2F5994",
"I  c #325D98",
"U  c #35619A",
"Y  c #36619B",
"T  c #37629C",
"R  c #38639C",
"E  c #38639D",
"W  c #39659C",
"Q  c #39649E",
"!  c #436FA6",
"~  c #446FA6",
"^  c #4772A9",
"/  c #4873AA",
"(  c #4F79AF",
")  c #4F7AAE",
"_  c #5883B8",
"`  c #5884B8",
"'  c #5986BA",
"]  c #5B88BB",
"[  c #608CC0",
"{  c #618FC1",
"}  c #628FC1",
"|  c #6996C7",
" . c #6A97C8",
".. c #6D9ACA",
"X. c gray52",
"o. c #909090",
"O. c #969795",
"+. c #989B97",
"@. c gray60",
"#. c #9C9D9B",
"$. c #9D9E9B",
"%. c #9C9D9C",
"&. c #A3A59F",
"*. c #A7A9A6",
"=. c #A8A9A9",
"-. c #ADB0AA",
";. c #AFB1AD",
":. c gray70",
">. c #B4B5B2",
",. c #B4B4B4",
"<. c #B6B6B5",
"1. c #BBBDBA",
"2. c gray75",
"3. c #BEC1BB",
"4. c #C3C3C2",
"5. c #C7C7C6",
"6. c #CBCBCB",
"7. c #CDCDCD",
"8. c #CECECE",
"9. c LightGray",
"0. c #D3D4D2",
"q. c #D5D5D3",
"w. c #D6D7D6",
"e. c #D8D9D6",
"r. c #D9D9D8",
"t. c gray86",
"y. c #DEDEDD",
"u. c #E9E9E9",
"i. c #E9EAE9",
"p. c #EFEFEE",
"a. c #F0F1F0",
"s. c #F1F2F0",
"d. c #F8F8F8",
"f. c #FDFDFD",
"g. c #FEFEFE",
"h. c None",
/* pixels */
"h.h.h.h.h.h.h.h.h.h.h.h.h.h.h.h.h.h.h.h.h.h.h.h.",
"h.h.h.h.h.h.h.h.h.h.h.h.h.h.h.h.h.h.h.h.h.h.h.h.",
"h.h.h.h.h.h.h.h.h.h.h.h.h.h.h.h.h.h.h.h.h.h.h.h.",
"h.h.h.h.h.h.h.h.h.M F m h.h.h.h.h.h.H h.h.h.h.h.",
"h.h.h.h.h.h.h.h.h.b 4.v h.h.h.h.h.h.h.J h.h.h.h.",
"h.h.h.h.h.h.h.h.h.x a.c h.h.h.h.h.h.h.h.P h.h.h.",
"h.h.h.h.h.h.h.h.Z l 8.k h.h.h.h.h.h.h.h.W E h.h.",
"h.h.h.h.h.h.h.B &.k 9.h h.h.h.h.h.K h.h.h.! h.h.",
"h.h.h.V b N M -.u.n r.f h.h.h.h.h.h.U h.h.) h.h.",
"h.h.h.g 5.g 3.i.g.z y.a h.h.h.H h.h.^ h.h.h._ h.",
"h.h.h.p t.p s.f.p.d w.i C h.h.Y R h.h.` h.h.} h.",
"h.h.w 0 d.r d.e.;.u 6.y t h.h.h.[ h.h.| h.h...h.",
"h.h.7 3 7.3 0.1.*.e 2.q $ h.h.h.] h.h. .h.h...h.",
"h.h.8 > :.> q.>.$.9 ,.6 o h.h.I h.h.h.' h.h.{ h.",
"h.h.h.& @.& +.<.O.5 =.4 h.h.h.G h.h./ h.h.h.` h.",
"h.h.h.O S O 1 D #.2 %.1 h.h.h.h.h.h.T h.h.( h.h.",
"h.h.h.X   . h.; s < o., h.h.h.h.h.L h.h.h.~ h.h.",
"h.h.h.h.h.h.h.h.# : X.: h.h.h.h.H h.h.h.Q h.h.h.",
"h.h.h.h.h.h.h.h.h.* A = h.h.h.h.h.h.h.h.P h.h.h.",
"h.h.h.h.h.h.h.h.h.% j & h.h.h.h.h.h.h.J h.h.h.h.",
"h.h.h.h.h.h.h.h.h.+ - @ h.h.h.h.h.h.H h.h.h.h.h.",
"h.h.h.h.h.h.h.h.h.h.h.h.h.h.h.h.h.h.h.h.h.h.h.h.",
"h.h.h.h.h.h.h.h.h.h.h.h.h.h.h.h.h.h.h.h.h.h.h.h.",
"h.h.h.h.h.h.h.h.h.h.h.h.h.h.h.h.h.h.h.h.h.h.h.h."
};
