/* XPM */
const char * guImage_default_lastfm_image[] = {
"50 50 44 1",
" 	c None",
".	c #E7E7E7",
"+	c #E4E4E4",
"@	c #E2E2E2",
"#	c #E3E3E3",
"$	c #E0E0E0",
"%	c #DFDFDF",
"&	c #E1E1E1",
"*	c #DEDEDE",
"=	c #DDDDDD",
"-	c #DBDBDB",
";	c #DADADA",
">	c #D8D8D8",
",	c #D9D9D9",
"'	c #DCDCDC",
")	c #D7D7D7",
"!	c #D3D3D3",
"~	c #D5D5D5",
"{	c #D6D6D6",
"]	c #CFCFCF",
"^	c #D0D0D0",
"/	c #CECECE",
"(	c #D1D1D1",
"_	c #D4D4D4",
":	c #CBCBCB",
"<	c #CDCDCD",
"[	c #CACACA",
"}	c #C8C8C8",
"|	c #C9C9C9",
"1	c #C7C7C7",
"2	c #C6C6C6",
"3	c #C5C5C5",
"4	c #C2C2C2",
"5	c #C4C4C4",
"6	c #C3C3C3",
"7	c #CCCCCC",
"8	c #BFBFBF",
"9	c #BDBDBD",
"0	c #C1C1C1",
"a	c #BCBCBC",
"b	c #C0C0C0",
"c	c #BEBEBE",
"d	c #BBBBBB",
"e	c #B9B9B9",
"                                                  ",
"                                                  ",
"                                                  ",
"                                                  ",
"                                                  ",
"                                                  ",
"                                                  ",
"                                                  ",
"                        .                         ",
"                        +                         ",
"                       +@#                        ",
"                       @$@                        ",
"                      .%%&                        ",
"                      @**%+                       ",
"                      %%%*@                       ",
"                     &*===*                       ",
"                     =----;#                      ",
"                     ;>>>>>=                      ",
"                     ,>>>>>,                      ",
"                    '))))))>;                     ",
"        !~)))))))))){{{{{{{{{))))))))))~~         ",
"         ]^~{{{{{{{{{{{{{{{{{{{{{{{{{~]/          ",
"           /(_______________________^:'           ",
"            (:^^^^^^^^^^^^^^^^^^^^^</             ",
"              [<^^^^^^^^^^^^^^^^^/}/              ",
"               ^|<]]]]]]]]]]]]]<[:                ",
"                 [:<<<<<<<<<<<[:                  ",
"                  /[[[[[[[[[[[^                   ",
"                 )[|||||||||||}&                  ",
"                 (|}}}}}}}}}}}}(                  ",
"                 [1}}}}}}}}}}}}[                  ",
"                 :2222134322222}^                 ",
"                <3222256 }622222:                 ",
"                753358/   [43335|                 ",
"               $65568      -96563                 ",
"               ]000a-        4b40/                ",
"               3b06           c8b2                ",
"              (8db             :8c>               ",
"              7e]               bd:               ",
"              8{                 ~b               ",
"                                                  ",
"                                                  ",
"                                                  ",
"                                                  ",
"                                                  ",
"                                                  ",
"                                                  ",
"                                                  ",
"                                                  ",
"                                                  "};
