/* XPM */
const char * guImage_document_new[] = {
/* columns rows colors chars-per-pixel */
"24 24 189 2",
"   c #EDD400",
".  c #F2F02B",
"X  c #F5F328",
"o  c #F5F329",
"O  c #F4F22A",
"+  c #F5F32A",
"@  c #F2F02C",
"#  c #F4F22D",
"$  c #EBE933",
"%  c #EDEC32",
"&  c #80827E",
"*  c #D1D150",
"=  c #D2D25E",
"-  c #E0DF40",
";  c #E3E242",
":  c #EFEE4F",
">  c #E4E351",
",  c #F0EF55",
"<  c #F2F152",
"1  c #F2F157",
"2  c #C2C261",
"3  c #CDCD66",
"4  c #EFEE60",
"5  c #ECEC6B",
"6  c #F1F063",
"7  c #F7F66E",
"8  c #EFEF70",
"9  c #EEEE74",
"0  c #E2E27D",
"q  c #ECEB79",
"w  c #EBEB7D",
"e  c #EBEC7C",
"r  c #F0EF76",
"t  c #F1F177",
"y  c #F7F677",
"u  c #F1F07E",
"i  c #838581",
"p  c #8A8C87",
"a  c #8B8D88",
"s  c #8C8E88",
"d  c #8C8E89",
"f  c #8D8F8A",
"g  c #8D908A",
"h  c #8E908B",
"j  c #8F918B",
"k  c #90928C",
"l  c #91938E",
"z  c #92948F",
"x  c #93958F",
"c  c #939590",
"v  c #949691",
"b  c #959892",
"n  c #979993",
"m  c #989A95",
"M  c #999B96",
"N  c #9A9D97",
"B  c #9C9E98",
"V  c #9D9F9A",
"C  c #9FA283",
"Z  c #9EA19B",
"A  c #9FA29C",
"S  c #BEBF81",
"D  c #A1A39D",
"F  c #A2A59E",
"G  c #ABAE9D",
"H  c #B3B594",
"J  c #A3A6A0",
"K  c #A4A7A1",
"L  c #A6A9A2",
"P  c #A6A9A3",
"I  c #A7A9A3",
"U  c #A7AAA3",
"Y  c #A7AAA4",
"T  c #A8AAA4",
"R  c #AAADA6",
"E  c #ABAEA7",
"W  c #EBEB86",
"Q  c #EDED8D",
"!  c #EEEE8E",
"~  c #EFEE8F",
"^  c #F0EF8D",
"/  c #F1F082",
"(  c #F9F780",
")  c #F0F08D",
"_  c #E9E995",
"`  c #ECEC96",
"'  c #EAEB98",
"]  c #ECEB99",
"[  c #F0F09D",
"{  c #E7E9A2",
"}  c #E8E8A5",
"|  c #E8E9A5",
" . c #E9EAA6",
".. c #E6E8AB",
"X. c #E7E8AD",
"o. c #EDEDAB",
"O. c #EBEBAF",
"+. c #FBFAAC",
"@. c #EFEFB5",
"#. c #E5E7BB",
"$. c #E7E8BE",
"%. c #F0F0B2",
"&. c #F1F0B5",
"*. c #F2F2B7",
"=. c #F7F7BB",
"-. c #DADBD9",
";. c #DDDEDB",
":. c #E5E7C3",
">. c #E4E5CB",
",. c #E4E6CB",
"<. c #E5E7CB",
"1. c #F0F0C1",
"2. c #F0F0C7",
"3. c #FBFBCA",
"4. c #E3E5D0",
"5. c #E3E5D3",
"6. c #E4E6D0",
"7. c #E4E6D4",
"8. c #EAEBD1",
"9. c #E4E7D8",
"0. c #E2E4DF",
"q. c #E2E5DF",
"w. c #E4E6DD",
"e. c #E5E7DE",
"r. c #E7E8D9",
"t. c #ECEDDC",
"y. c #EFF0D1",
"u. c #EFF0DA",
"i. c #FBFBD5",
"p. c #FAFADA",
"a. c #FCFBD8",
"s. c #E2E4E0",
"d. c #E3E4E0",
"f. c #E2E5E0",
"g. c #E3E5E0",
"h. c #E3E5E1",
"j. c #E4E6E1",
"k. c #E4E6E2",
"l. c #E4E7E2",
"z. c #E5E7E2",
"x. c #E5E7E3",
"c. c #E6E7E3",
"v. c #E5E8E3",
"b. c #E6E8E4",
"n. c #E7E8E4",
"m. c #E7E9E5",
"M. c #E8E9E6",
"N. c #E8EAE6",
"B. c #E9EAE6",
"V. c #E9EAE7",
"C. c #E9EBE7",
"Z. c #EAEBE8",
"A. c #EBECE9",
"S. c #ECEDEA",
"D. c #ECEEEB",
"F. c #EDEEEB",
"G. c #EDEFEB",
"H. c #EDEEEC",
"J. c #EEEEEC",
"K. c #EEEFEC",
"L. c #EFEFED",
"P. c #EFF0E9",
"I. c #EFF0ED",
"U. c #EFF0EE",
"Y. c #F0F0EE",
"T. c #F0F1EF",
"R. c #F1F1EF",
"E. c #FDFCEA",
"W. c #FDFCEC",
"Q. c #FEFDEC",
"!. c #FEFEEF",
"~. c #F1F1F0",
"^. c #F1F2F0",
"/. c #F2F2F0",
"(. c #F2F2F1",
"). c #F2F3F1",
"_. c #F3F3F2",
"`. c #F3F4F2",
"'. c #F4F4F3",
"]. c #F5F5F4",
"[. c #FEFEF6",
"{. c #FEFEF7",
"}. c #FDFDF9",
"|. c #FEFEF8",
" X c #FEFEFA",
".X c #FEFEFB",
"XX c #FEFEFE",
"oX c gray100",
"OX c None",
/* pixels */
"OXOXOXOXOXOXOXOXOXOXOXOXOXOXOXOXOXOXOXOXOXOXOXOX",
"OXOXOXE T Y Y U I P G H S 3 OXOXOXOXOXOXOXOXOXOX",
"OXOXR ;.XXoXoXoXoXQ.p.*.] 0 = > O OXOXOXOXOXOXOX",
"OXOXL XXG.C.N.b.9.:. .! t 6     ; @ + OXOXOXOXOX",
"OXOXK oXN.m.b.e.<...` 5 :   {.oX  % O + OXOXOXOX",
"OXOXJ oXb.v.l.7.#._       3.oXoX!.      + OXOXOX",
"OXOXF oXl.k.j.6.X.  =.}.oXoXoXoXoXoXoXa.  OXOXOX",
"OXOXD oXj.h.g.,.} w   .XoXoXoXoXoXoXoX  o + OXOX",
"OXOXA oXg.f.f.>.{ q   y XXoXoXoXoXoXi.  o + OXOX",
"OXOXZ oXd.f.q.4.| e ,   W.oXoXoXoXoX  . o + OXOX",
"OXOXV oX0.f.s.5.X.W 4    XoXoXoXoXoX  $ o OXOXOX",
"OXOXB oXf.g.h.w.$.' 9   oX[.    E.oX  - + OXOXOX",
"OXOXN oXz.x.c.b.r.O.Q 8     # X     7 * OXOXOXOX",
"OXOXM oXn.m.M.N.V.8.o.~ r 6 1 < 1 6 ( 2 OXOXOXOX",
"OXOXm oXB.C.Z.A.A.S.t.@.[ ) / u / ^ +.C OXOXOXOX",
"OXOXn oXZ.A.S.F.H.K.L.P.u.2.&.%.1.y.|.z OXOXOXOX",
"OXOXb oXA.S.F.K.I.Y.R.^.(.).).(./.R.oXl OXOXOXOX",
"OXOXv oXS.F.K.I.Y.R./._.'.].].'._.).oXk OXOXOXOX",
"OXOXc oXS.F.J.L.U.T.^.)._.`.`._.)./.oXh OXOXOXOX",
"OXOXx XXF.S.D.H.K.I.Y.T.T.R.R.R.T.~.XXh OXOXOXOX",
"OXOXg -.XXoXoXoXoXoXoXoXoXoXoXoXoXXX-.p OXOXOXOX",
"OXOXOXi j h h h g f f f d d d s a d & OXOXOXOXOX",
"OXOXOXOXOXOXOXOXOXOXOXOXOXOXOXOXOXOXOXOXOXOXOXOX",
"OXOXOXOXOXOXOXOXOXOXOXOXOXOXOXOXOXOXOXOXOXOXOXOX"
};
