/* XPM */
const char * guImage_download_covers[] = {
/* columns rows colors chars-per-pixel */
"24 24 191 2",
"   c black",
".  c #010100",
"X  c #080703",
"o  c #090803",
"O  c gray4",
"+  c #0E0D09",
"@  c #0C0C0A",
"#  c #0C0C0C",
"$  c #131206",
"%  c #161407",
"&  c #151409",
"*  c #201F19",
"=  c #3F3B14",
"-  c #5E571D",
";  c #7F7628",
":  c #7C6C4C",
">  c #737571",
",  c #757773",
"<  c #7B7D79",
"1  c #7C7E79",
"2  c #9D4E00",
"3  c #D46900",
"4  c #F57900",
"5  c #4F9B08",
"6  c #57A216",
"7  c #60B212",
"8  c #63B715",
"9  c #63B51A",
"0  c #60A726",
"q  c #67A92C",
"w  c #68C212",
"e  c #69C312",
"r  c #70CD14",
"t  c #71D015",
"y  c #73D216",
"u  c #78D41F",
"i  c #7DCE33",
"p  c #75B142",
"a  c #74B85E",
"s  c #7E807B",
"d  c #AE9931",
"f  c #F7A137",
"g  c #82D72F",
"h  c #9C9452",
"j  c #80827D",
"k  c #80837D",
"l  c #88987E",
"z  c #89BC65",
"x  c #F8A742",
"c  c #F8AC4C",
"v  c #F9B849",
"b  c #F9B057",
"n  c #FABC53",
"m  c #F9B561",
"M  c #F9BA6C",
"N  c #FABF76",
"B  c #FACB4F",
"V  c #F2D544",
"C  c #F7DA45",
"Z  c #FBDD46",
"A  c #FACB51",
"S  c #FACC52",
"D  c #FACC54",
"F  c #FAC05D",
"G  c #FACE58",
"H  c #FAC466",
"J  c #FAD061",
"K  c #FAC770",
"L  c #FBCB7A",
"P  c #77A1D0",
"I  c #7AA5D2",
"U  c #828480",
"Y  c #858681",
"T  c #858781",
"R  c #868783",
"E  c #888A84",
"W  c #888A85",
"Q  c #898A85",
"!  c #898A86",
"~  c #888B86",
"^  c #898A87",
"/  c #888888",
"(  c #8B8D89",
")  c #8C8D88",
"_  c #8C8F8A",
"`  c #8F908C",
"'  c #8F918C",
"]  c #929490",
"[  c #969793",
"{  c #9C9E9A",
"}  c #A2A4A0",
"|  c #A4A6A3",
" . c #A5A6A4",
".. c #A6A8A3",
"X. c #A8AAA6",
"o. c #ADAEAB",
"O. c #ADAFAB",
"+. c #AEAFAC",
"@. c #B4B5B2",
"#. c #B5B7B4",
"$. c #B8B9B5",
"%. c #B9BAB7",
"&. c #B9B9B9",
"*. c #BABCB8",
"=. c #BABCB9",
"-. c #9FC884",
";. c #99C389",
":. c #AFD09D",
">. c #ACCDAF",
",. c #FAC480",
"<. c #FBCF85",
"1. c #FBC98A",
"2. c #FBD38E",
"3. c #FBCD94",
"4. c #FCD798",
"5. c #FBD19C",
"6. c #EEE38A",
"7. c #FDEB92",
"8. c #FCEA96",
"9. c #FDED9D",
"0. c #FDED9F",
"q. c #C0D9B8",
"w. c #FCD5A5",
"e. c #FCDBA1",
"r. c #FCD7A9",
"t. c #FCDFAC",
"y. c #FCE5A6",
"u. c #FDE6AB",
"i. c #FDE7AF",
"p. c #FDE2B5",
"a. c #FDE6BE",
"s. c #80A4CA",
"d. c #92AAC1",
"f. c #87ADD5",
"g. c #86ACD6",
"h. c #8AAFD7",
"j. c #8BB0D8",
"k. c #90B2D8",
"l. c #92B5DA",
"z. c #95B6DB",
"x. c #AFCECE",
"c. c #AEC7E2",
"v. c #B1CAE4",
"b. c #C3C4C1",
"n. c #C8C9C6",
"m. c #CECFCD",
"M. c #CFD0CD",
"N. c #D0D1CF",
"B. c #D2D3D1",
"V. c #D6D6D4",
"C. c #D6D7D6",
"Z. c #D7D8D6",
"A. c #D7D9D7",
"S. c #D6E6D2",
"D. c #D6E5D5",
"F. c #DFE0DE",
"G. c #FEF4C2",
"H. c #E0E0DF",
"J. c #C1D3E6",
"K. c #CFDDEB",
"L. c #DCE6F0",
"P. c #DEE7F0",
"I. c #E3E3E2",
"U. c #E7E7E6",
"Y. c #E3EDE1",
"T. c #E8E8E7",
"R. c gray92",
"E. c #EFEFEE",
"W. c #EEF4EE",
"Q. c #F0F0EF",
"!. c #E1EAF2",
"~. c #EBF0F6",
"^. c #F3F3F2",
"/. c #F4F4F3",
"(. c #F4F4F4",
"). c #F3F6F9",
"_. c #F7FAFC",
"`. c #F8F8F8",
"'. c #F9F9F9",
"]. c #FBFBFB",
"[. c #FAFCFA",
"{. c #FBFCFB",
"}. c #F9FBFC",
"|. c #FAFCFD",
" X c gray99",
".X c #FCFDFD",
"XX c #FDFDFD",
"oX c #FDFEFD",
"OX c #FEFEFE",
"+X c gray100",
"@X c None",
/* pixels */
"@X@X@X@X@X@X@X@X@X@X@X@X@X@X@X@X@X@X@X@X@X@X@X@X",
"@X@X@X@X@X@X@X@X@X@X@X@X@X@X@X@X@XQ E @X@X@X@X@X",
"@X@X@X@X@X@X@X@X@X@X@X@X@XT ) =.I.+XU.@X@X@X@X@X",
"@X@X@X@X@X@X@X@X@X@XU X.C./.OX).K.v. X! @X@X@X@X",
"@X@X@X@X@X@Xj [ n.R..X|.P.c.g.s.I P .X| @X@X@X@X",
"@X@X@X( $.H.'.OX~.J.z.h.j.k.l.: d.f.!.B.@X@X@X@X",
"@X@X*.+X .W W W W W W W W W W W W W W W W W ' @X",
"@X@X%._.W +X+X+X+X+X+X+X+X+X+X+X+X+X+X+X+X+XW @X",
"@X@X~ Z.W +X4 4 4 4 4 4 4 4 4 4 4 4 4 4 4 +XW @X",
"@X@X< ..W +X4 r.w.5.3.1.,.N M m b c x f 4 +XW @X",
"@X@X@Xm.W +X4 a.p.t.e.4.2.<.L K H F n v 4 +XW @X",
"@X@X, E.W +X4 i.u.y.G.+X+X8.J G D S A B 4 +XW @X",
"@X@Xk XXW +X4 0.9.7.+X+X+X+XZ Z C d V Z 4 +XW @X",
"@X@Xo.}.W +X4 6.h & / `.XX&.- = %   $ ; 3 +XW @X",
"@X@XA.L.W +X2 * o   @ O # + .         X   +XW @X",
"@XU (.x.W +X                              +XW @X",
"@X_ OXa W +X+X+X+X+X+X+X+X+X+X+X+X+X+X+X+X+XW @X",
"@X@.+X;.l W W W W W W W W W W W W W W W W W ` @X",
"@X[ V.^.oXW.q.z 0 9 e r y y u g i >.Q.> @X@X@X@X",
"@X@X@X@X^ #.F.`.oXY.:.p 6 7 w t 8 D.N.@X@X@X@X@X",
"@X@X@X@X@X@X@X1 ] b.T.].{.S.-.q 5 [.} @X@X@X@X@X",
"@X@X@X@X@X@X@X@X@X@X@Xs { M.E.XXOX+XR @X@X@X@X@X",
"@X@X@X@X@X@X@X@X@X@X@X@X@X@X@XY O.+.@X@X@X@X@X@X",
"@X@X@X@X@X@X@X@X@X@X@X@X@X@X@X@X@X@X@X@X@X@X@X@X"
};
