/* XPM */
const char * guImage_edit_clear[] = {
/* columns rows colors chars-per-pixel */
"24 24 199 2",
"   c #504100",
".  c #B40202",
"X  c #B10401",
"o  c #B10501",
"O  c #B30501",
"+  c #B30802",
"@  c #B50803",
"#  c #B50903",
"$  c #B30A04",
"%  c #B81005",
"&  c #B31708",
"*  c #BF2B11",
"=  c #C6130F",
"-  c #C51510",
";  c #D11816",
":  c #D51918",
">  c #D91A1A",
",  c #DD1D1D",
"<  c #DD1E1E",
"1  c #E12020",
"2  c #905A02",
"3  c #915A02",
"4  c #915A03",
"5  c #905B04",
"6  c #935D07",
"7  c #935E06",
"8  c #806903",
"9  c #886F01",
"0  c #966B02",
"q  c #8C7300",
"w  c #957A00",
"e  c #947A05",
"r  c #997D01",
"t  c #9A7D00",
"y  c #9A7E00",
"u  c #9B7E00",
"i  c #997D02",
"p  c #9C7F00",
"a  c #996512",
"s  c #9B6813",
"d  c #B7680E",
"f  c #BE4423",
"g  c #A47222",
"h  c #A87525",
"j  c #A9782C",
"k  c #C17D10",
"l  c #C55426",
"z  c #C16A29",
"x  c #9B8002",
"c  c #9D8000",
"v  c #9D8100",
"b  c #9D8101",
"n  c #9E8000",
"m  c #9D8002",
"M  c #9F8202",
"N  c #9F8203",
"B  c #9E8303",
"V  c #9D8104",
"C  c #9D8105",
"Z  c #9F8206",
"A  c #A08306",
"S  c #A08307",
"D  c #A2860D",
"F  c #A3890A",
"G  c #A88B0C",
"H  c #A68512",
"J  c #A48A12",
"K  c #A88E15",
"L  c #AD9314",
"P  c #AE9419",
"I  c #B49A1D",
"U  c #BAA119",
"Y  c #B29025",
"T  c #B49C29",
"R  c #B89F2A",
"E  c #BFA827",
"W  c #BFA937",
"Q  c #D4A807",
"!  c #D8BF02",
"~  c #D8BA04",
"^  c #D9BF0A",
"/  c #D9BD0D",
"(  c #C68825",
")  c #C88B2B",
"_  c #C88C2D",
"`  c #D59E22",
"'  c #D29229",
"]  c #CC943B",
"[  c #CD963E",
"{  c #C1A720",
"}  c #C6AF24",
"|  c #C5AC30",
" . c #C5AF3A",
".. c #C8B33A",
"X. c #CEBA38",
"o. c #DAC202",
"O. c #DAC203",
"+. c #D9C004",
"@. c #DBC30A",
"#. c #DDC508",
"$. c #DEC609",
"%. c #DEC60A",
"&. c #DBC40E",
"*. c #DDC40D",
"=. c #DDC718",
"-. c #DDC71B",
";. c #E3CA11",
":. c #E4CD13",
">. c #E3C915",
",. c #E5CD14",
"<. c #EAD31F",
"1. c #EBD41E",
"2. c #EBD41F",
"3. c #DCC224",
"4. c #DFC920",
"5. c #DECA24",
"6. c #E8CE2A",
"7. c #EBD324",
"8. c #EAD325",
"9. c #EBD426",
"0. c #EFD726",
"q. c #EFD825",
"w. c #F0D72B",
"e. c #F0D62D",
"r. c #F2DB29",
"t. c #F0D82A",
"y. c #E4C033",
"u. c #E0C636",
"i. c #E2CB30",
"p. c #E1CF39",
"a. c #E5CC38",
"s. c #EBD130",
"d. c #ECD533",
"f. c #F0D931",
"g. c #F3D933",
"h. c #F4DC31",
"j. c #F9E134",
"k. c #F9E23B",
"l. c #FBE33E",
"z. c #CF9E4D",
"x. c #CB9F59",
"c. c #C3AF44",
"v. c #CDB941",
"b. c #D2BF49",
"n. c #D0A561",
"m. c #D2A661",
"M. c #D0A662",
"N. c #D6AA63",
"B. c #D0A868",
"V. c #D1A868",
"C. c #D6AD6B",
"Z. c #D3AC6C",
"A. c #DDC645",
"S. c #D4C351",
"D. c #D5C155",
"F. c #DBC959",
"G. c #DCCC58",
"H. c #E3D141",
"J. c #E9D745",
"K. c #E5D348",
"L. c #E4D249",
"P. c #F1DD46",
"I. c #F4DF46",
"U. c #E6D657",
"Y. c #E6D15A",
"T. c #F2DF51",
"R. c #F3DF5A",
"E. c #FDE641",
"W. c #FBE547",
"Q. c #FCE644",
"!. c #F5E054",
"~. c #FDE850",
"^. c #FDE851",
"/. c #FDE956",
"(. c #E3D261",
"). c #E8DA66",
"_. c #EDDD66",
"`. c #E6D86B",
"'. c #E8DA6D",
"]. c #E9DB6F",
"[. c #E9DA71",
"{. c #ECDE70",
"}. c #EDDB75",
"|. c #F5E360",
" X c #F9E764",
".X c #F5E372",
"XX c #FCED75",
"oX c #F0E07B",
"OX c #F2E479",
"+X c #F2E47D",
"@X c #FDEE7C",
"#X c #EEE080",
"$X c #F4E686",
"%X c #F6E982",
"&X c #F8E981",
"*X c #FBED82",
"=X c #FAED8D",
"-X c #FDF08E",
";X c None",
/* pixels */
";X;X;X;X;X;X;X;X;X;X;X;X;X;X;X;X;X;X;X;X;X;X;X;X",
";X;X;X4 5 3 ;X;X;X;X;X;X;X;X;X;X;X;X;X;X;X;X;X;X",
";X2 j B.m.s ;X;X;X;X;X;X;X;X;X;X;X;X;X;X;X;X;X;X",
";X6 Z.( [ x.3 ;X;X;X;X;X;X;X;X;X;X;X;X;X;X;X;X;X",
";X3 V.) k N.h ;X;XA ;X;X;X;X;X;X;X;X;X;X;X;X;X;X",
";X3 g C.] _ M.0 D Z ;X;X;X;X;X;X;X;X;X;X;X;X;X;X",
";X;X3 a n.z.Y K +XR ;X;X;X;X;X;X;X;X;X;X;X;X;X;X",
";X;X;X;X7 H I _..Xl O . ;X;X;X;X;X;X;X;X;X;X;X;X",
";X;X;X;Xp U K.y.* - , X ;X;X;X;X;X;X;X;X;X;X;X;X",
";X;X;Xc } H.` % ; 1 @ z I b ;X;X;X;X;X;X;X;X;X;X",
";X;Xn C L d # < : $ ' J.OX(.P M ;X;X;X;X;X;X;X;X",
";X;X;X;X;X+ > = & Q %.,.<.T.%XF.D ;X;X;X;X;X;X;X",
";X;X;X;X;X;Xo f ~ O.%.,.1.q.h. X$Xc.S ;X;X;X;X;X",
";X;X;X;X;X;Xu `.&.O.$.,.2.f.t.j.Q.XX#XW m ;X;X;X",
";X;X;X;X;X;Xv G.5.O.#.:.2.r.I.e.l.E.^.*X[.x ;X;X",
";X;X;X;X;X;Xp ..L.o.+.;.9.0.k.!.s.W.~.-X .M ;X;X",
";X;X;X;X;X;X;XF ].@.! *.8.d.w./.R.a.=XD.N ;X;X;X",
";X;X;X;X;X;X;Xy b.p.o.^ >.P.6.g.@X}.| V ;X;X;X;X",
";X;X;X;X;X;X;X;XJ '.=.4./ 7.|.u.oXT e ;X;X;X;X;X",
";X;X;X;X;X;X;X;Xq E ).-.i.3.&XY.G 8 ;X;X;X;X;X;X",
";X;X;X;X;X;X;X;X;Xw v.U.{.A.{ i   ;X;X;X;X;X;X;X",
";X;X;X;X;X;X;X;X;X;Xr S.X.B 9 ;X;X;X;X;X;X;X;X;X",
";X;X;X;X;X;X;X;X;X;X;Xt w ;X;X;X;X;X;X;X;X;X;X;X",
";X;X;X;X;X;X;X;X;X;X;X;X;X;X;X;X;X;X;X;X;X;X;X;X"
};
