/* XPM */
const char * guImage_edit_copy[] = {
/* columns rows colors chars-per-pixel */
"24 24 49 1",
"  c #888A85",
". c #8A8C87",
"X c #A0A29E",
"o c #A1A4A0",
"O c #A3A5A1",
"+ c #A5A6A3",
"@ c #A6A8A4",
"# c #A7A8A5",
"$ c #A8A9A6",
"% c #A9ABA7",
"& c #AAABA8",
"* c #ABACA9",
"= c #ABACAA",
"- c #ADAEAB",
"; c #CECFCA",
": c #CFD1CD",
"> c #D1D3CE",
", c #D2D4CF",
"< c #D4D6D2",
"1 c #D5D7D2",
"2 c #D7D9D5",
"3 c #D9DAD7",
"4 c #DADBD8",
"5 c #DBDDD9",
"6 c #DCDEDA",
"7 c #DDDEDB",
"8 c #DEDFDC",
"9 c #DFE1DD",
"0 c #DFE1DE",
"q c #E0E2DE",
"w c #E1E2DF",
"e c #E2E3DF",
"r c #E3E4E2",
"t c #E4E5E2",
"y c #E6E7E5",
"u c #E7E8E5",
"i c #E7E8E6",
"p c #E9E9E7",
"a c #E8EAE8",
"s c #EAEBE8",
"d c #EBEBE9",
"f c #EBECEA",
"g c #ECEDEB",
"h c #EEEFED",
"j c #EFEFED",
"k c #F0F1EF",
"l c #F3F3F1",
"z c gray100",
"x c None",
/* pixels */
"xxxxxxxxxxxxxxxxxxxxxxxx",
"xxxxxxxxxxxxxxxxxxxxxxxx",
"xxx             xxxxxxxx",
"xxx zzzzzzzzzzz xxxxxxxx",
"xxx z;:,<2<235z xxxxxxxx",
"xxx z>XoO+O+@0z xxxxxxxx",
"xxx z1246868wrz xxxxxxxx",
"xxx z>XoO+O+@0z xxxxxxxx",
"xxx z1246868wrz xxxxxxxx",
"xxx z3+#$%$%*iz       xx",
"xxx z79etytypdz zzzzz xx",
"xxx zq&=---sgjz <235z xx",
"xxx ztuafhfhklz O+@0z xx",
"xxx zzzzzzzzzzz 68wrz xx",
"xxxx           .O+@0z xx",
"xxxxxxxxx z1246868wrz xx",
"xxxxxxxxx z3+#$%$%*iz xx",
"xxxxxxxxx z79etytypdz xx",
"xxxxxxxxx zq&=---sgjz xx",
"xxxxxxxxx ztuafhfhklz xx",
"xxxxxxxxx zzzzzzzzzzz xx",
"xxxxxxxxxx            xx",
"xxxxxxxxxxxxxxxxxxxxxxxx",
"xxxxxxxxxxxxxxxxxxxxxxxx"
};
