/* XPM */
const char * guImage_gnome_bookmark[] = {
"24 24 264 2",
"  	c None",
". 	c #000000",
"+ 	c #F2E0A0",
"@ 	c #F4E4AC",
"# 	c #F4E5B2",
"$ 	c #F5E7B7",
"% 	c #F1DD99",
"& 	c #E5C041",
"* 	c #352B07",
"= 	c #313D47",
"- 	c #E6C44C",
"; 	c #E8C85A",
"> 	c #EDD47D",
", 	c #FAF3DC",
"' 	c #F9F0D3",
") 	c #EBCE6B",
"! 	c #E2BA2E",
"~ 	c #1A1504",
"{ 	c #33383C",
"] 	c #B8BEC2",
"^ 	c #81868A",
"/ 	c #F1DE9B",
"( 	c #F7EBC3",
"_ 	c #F8EFCE",
": 	c #EACC66",
"< 	c #D6AD1E",
"[ 	c #070601",
"} 	c #151C23",
"| 	c #41494F",
"1 	c #B8C3CA",
"2 	c #CFDBE5",
"3 	c #DCE7EE",
"4 	c #C5D6E3",
"5 	c #B0BCC5",
"6 	c #747E85",
"7 	c #B59219",
"8 	c #8B7013",
"9 	c #282F33",
"0 	c #BDC8CE",
"a 	c #DAE6ED",
"b 	c #DDE8EF",
"c 	c #E1ECF3",
"d 	c #D1E1EB",
"e 	c #C4DAE8",
"f 	c #C1D7E6",
"g 	c #F5E6B3",
"h 	c #EFD98B",
"i 	c #C19C1B",
"j 	c #A58517",
"k 	c #21292F",
"l 	c #1F2830",
"m 	c #97A7B1",
"n 	c #D6E2EB",
"o 	c #D9E5ED",
"p 	c #DBE8EF",
"q 	c #C6D7E3",
"r 	c #C3D7E4",
"s 	c #C0D9E8",
"t 	c #C2DBEA",
"u 	c #BCD5E5",
"v 	c #F5E8B9",
"w 	c #EDD581",
"x 	c #9E8016",
"y 	c #7B8F9F",
"z 	c #161E25",
"A 	c #60727F",
"B 	c #C5D5E1",
"C 	c #D1DFE8",
"D 	c #D4E2EB",
"E 	c #ACC2D3",
"F 	c #AAC5D7",
"G 	c #B4CEE0",
"H 	c #F5E7B5",
"I 	c #F3E2A7",
"J 	c #A98817",
"K 	c #8498A7",
"L 	c #C0D2DE",
"M 	c #CBDAE5",
"N 	c #A2B8C9",
"O 	c #9EBACE",
"P 	c #A5C1D5",
"Q 	c #A9C6DA",
"R 	c #ACCADD",
"S 	c #F2E0A2",
"T 	c #B8951A",
"U 	c #070D13",
"V 	c #181E23",
"W 	c #899FAE",
"X 	c #7E98AD",
"Y 	c #96AEC1",
"Z 	c #87A5BB",
"` 	c #93B1C7",
" .	c #97B6CD",
"..	c #9BBBD1",
"+.	c #9DBDD4",
"@.	c #7990A1",
"#.	c #070D14",
"$.	c #141A20",
"%.	c #98B0C3",
"&.	c #86A2B8",
"*.	c #7292AB",
"=.	c #7E9EB7",
"-.	c #83A4BD",
";.	c #88A9C2",
">.	c #8BADC6",
",.	c #8CAFC8",
"'.	c #9CBACF",
").	c #95AFC2",
"!.	c #4E6A83",
"~.	c #070E14",
"{.	c #0A1117",
"].	c #51718D",
"^.	c #87A2B7",
"/.	c #85A3B9",
"(.	c #95B0C5",
"_.	c #89A8BF",
":.	c #7A9EB8",
"<.	c #799DB9",
"[.	c #7A9FBA",
"}.	c #799EBA",
"|.	c #8AAAC2",
"1.	c #BBD0DE",
"2.	c #F0DC96",
"3.	c #91ABBF",
"4.	c #7691A8",
"5.	c #284969",
"6.	c #060C11",
"7.	c #080E14",
"8.	c #395C7B",
"9.	c #416686",
"0.	c #7895AD",
"a.	c #A8C0D1",
"b.	c #ADC5D5",
"c.	c #98B3C8",
"d.	c #6990AD",
"e.	c #668DAC",
"f.	c #6289A8",
"g.	c #8CA9BF",
"h.	c #9FB8CA",
"i.	c #E3BC33",
"j.	c #9BB4C7",
"k.	c #94AFC2",
"l.	c #66839B",
"m.	c #264665",
"n.	c #050B10",
"o.	c #060A0E",
"p.	c #2D4C67",
"q.	c #3D6282",
"r.	c #708FA8",
"s.	c #A2BBCD",
"t.	c #A6BED0",
"u.	c #A9C2D2",
"v.	c #96B2C6",
"w.	c #6F92AD",
"x.	c #5A81A0",
"y.	c #59809F",
"z.	c #537998",
"A.	c #4A7090",
"B.	c #587B98",
"C.	c #96B0C3",
"D.	c #88A3B8",
"E.	c #2A4967",
"F.	c #1D3955",
"G.	c #020609",
"H.	c #25415A",
"I.	c #365A7A",
"J.	c #7492A9",
"K.	c #9CB5C8",
"L.	c #A0B9CB",
"M.	c #A3BBCD",
"N.	c #A5BDCF",
"O.	c #A6BECF",
"P.	c #4A708F",
"Q.	c #4F7595",
"R.	c #4C7292",
"S.	c #496E8F",
"T.	c #436888",
"U.	c #94AEC1",
"V.	c #95AFC3",
"W.	c #8FABBF",
"X.	c #708DA4",
"Y.	c #254666",
"Z.	c #17314B",
"`.	c #142534",
" +	c #2E5172",
".+	c #3D5F7D",
"++	c #8FA9BD",
"@+	c #99B2C6",
"#+	c #9DB7C9",
"$+	c #748FA7",
"%+	c #426787",
"&+	c #446A8A",
"*+	c #426788",
"=+	c #3F6485",
"-+	c #3B6080",
";+	c #809CB2",
">+	c #8EAABE",
",+	c #89A5BA",
"'+	c #6A879F",
")+	c #1F3F5F",
"!+	c #0B1824",
"~+	c #010305",
"{+	c #1F3A53",
"]+	c #2C4F6F",
"^+	c #4A6A86",
"/+	c #91ACC0",
"(+	c #94AEC2",
"_+	c #617E96",
":+	c #3B5F7F",
"<+	c #395D7D",
"[+	c #325676",
"}+	c #7F9BB1",
"|+	c #87A3B8",
"1+	c #819FB5",
"2+	c #25425E",
"3+	c #102438",
"4+	c #000103",
"5+	c #020407",
"6+	c #1F3C58",
"7+	c #335473",
"8+	c #8CA7BC",
"9+	c #728DA4",
"0+	c #2B4C6B",
"a+	c #315575",
"b+	c #315474",
"c+	c #2F5273",
"d+	c #2D5070",
"e+	c #2A4C6C",
"f+	c #587790",
"g+	c #7E9DB3",
"h+	c #5F7E95",
"i+	c #132D47",
"j+	c #04080D",
"k+	c #25405B",
"l+	c #7F9EB4",
"m+	c #7B98AE",
"n+	c #3D5A74",
"o+	c #284A6A",
"p+	c #264868",
"q+	c #244565",
"r+	c #214262",
"s+	c #33526E",
"t+	c #48657C",
"u+	c #192F46",
"v+	c #03070C",
"w+	c #2D4050",
"x+	c #3F5B75",
"y+	c #1D3C5C",
"z+	c #1F405F",
"A+	c #1E3E5D",
"B+	c #1C3B5B",
"C+	c #1A3958",
"D+	c #163554",
"E+	c #0A1B2B",
"F+	c #010204",
"G+	c #060C15",
"H+	c #0D2032",
"I+	c #112941",
"J+	c #163351",
"K+	c #173554",
"L+	c #15314F",
"M+	c #102A44",
"N+	c #0A1C2E",
"O+	c #030A10",
"                . . . . . .                     ",
"              . + @ # $ % & * .                 ",
"            = . - ; > $ , ' ) ! ~               ",
"          { ] ^ . . . - / ( _ : < [ }           ",
"        | 1 2 3 4 5 6 . - + # $ 7 8 .           ",
"      9 0 a b c d e e f . g h @ i j . k         ",
"    l m n o p q r s t u . v w @ i x . y z       ",
"    A B C D E F G . . . . H w I i J . . . .     ",
"    K L M N O P Q R . - w I w S i T i 8 . U     ",
"  V W X Y Z `  ...+.+.. - w w S i i 8 . @.#.    ",
"  $.%.&.*.=.-.;.>.,.,.'.. - w / i 8 . ).!.~.    ",
"  {.].^./.(._.:.<.[.}.|.1.. - 2.8 . 3.4.5.6.    ",
"  7.8.9.0.a.b.c.d.e.e.f.g.h.. i.. j.k.l.m.n.    ",
"  o.p.q.r.s.t.u.v.w.x.y.z.A.B.. j.C.D.E.F.G.    ",
"    H.I.J.K.L.M.N.O.P.Q.R.S.T.U.V.W.X.Y.Z..     ",
"    `. +.+++@+K.#+$+%+&+*+=+-+;+>+,+'+)+!+.     ",
"    ~+{+]+^+/+(+C._+-+:+<+I.[+}+|+1+2+3+4+      ",
"      5+6+7+,+8+9+0+a+b+c+d+e+f+g+h+i+~+.       ",
"        j+k+l+m+n+o+o+o+p+q+r+s+t+u+v+.         ",
"          ~+w+x+y+)+z+)+A+B+C+D+E+F+.           ",
"            . G+H+I+J+K+L+M+N+O+. .             ",
"                . . . . . . . .                 ",
"                                                ",
"                                                "};
