/* XPM */
const char * guImage_gtk_edit[] = {
/* columns rows colors chars-per-pixel */
"24 24 142 2",
"   c black",
".  c #6B5736",
"X  c #CE5C00",
"o  c #F57900",
"O  c #FCAF3E",
"+  c #F5D400",
"@  c #AA825D",
"#  c #80827E",
"$  c #838581",
"%  c #888A85",
"&  c #8A8C87",
"*  c #8B8D88",
"=  c #8C8E88",
"-  c #8C8E89",
";  c #8D8F8A",
":  c #8D908A",
">  c #8E908B",
",  c #8F918B",
"<  c #90928C",
"1  c #91938E",
"2  c #92948F",
"3  c #93958F",
"4  c #939590",
"5  c #939690",
"6  c #949691",
"7  c #959791",
"8  c #959694",
"9  c #959892",
"0  c #979993",
"q  c #989A95",
"w  c #999B96",
"e  c #999A97",
"r  c #9A9D97",
"t  c #9C9E98",
"y  c #9D9F9A",
"u  c #9EA19B",
"i  c #9FA29C",
"p  c #A1A39D",
"a  c #A2A49E",
"s  c #A2A59E",
"d  c #A3A6A0",
"f  c #A4A7A0",
"g  c #A4A7A1",
"h  c #A4A6A3",
"j  c #A6A8A2",
"k  c #A6A9A2",
"l  c #A6A9A3",
"z  c #A7A9A3",
"x  c #A7AAA3",
"c  c #A7AAA4",
"v  c #A8AAA4",
"b  c #A9ABA5",
"n  c #AAADA6",
"m  c #ABAEA7",
"M  c #BBBDBA",
"N  c #BCBEB9",
"B  c #BDC0BB",
"V  c #C0C3BF",
"C  c #E6D0BC",
"Z  c #CCCECB",
"A  c #CDCECC",
"S  c #CDD0CA",
"D  c #CED0CC",
"F  c #D1D3CF",
"G  c #D7D7D6",
"H  c #D7DBD4",
"J  c #DADBD9",
"K  c #DDDFD9",
"L  c #DDDDDB",
"P  c #DDDFDA",
"I  c #DDDEDB",
"U  c #EAD4C0",
"Y  c #EDD6C3",
"T  c #F5DECC",
"R  c #DDE0DA",
"E  c #DEE0DA",
"W  c #DEE1DB",
"Q  c #DFE1DC",
"!  c #DFE2DC",
"~  c #E0E2DD",
"^  c #E0E3DD",
"/  c #E0E3DE",
"(  c #E1E3DE",
")  c #E1E3DF",
"_  c #E1E4DE",
"`  c #E1E4DF",
"'  c #E2E4DF",
"]  c #E2E5DF",
"[  c #E3E5DF",
"{  c #E2E4E0",
"}  c #E3E4E0",
"|  c #E2E5E0",
" . c #E3E5E0",
".. c #E3E5E1",
"X. c #E3E6E1",
"o. c #E4E6E1",
"O. c #E4E6E2",
"+. c #E4E7E2",
"@. c #E5E7E2",
"#. c #E5E7E3",
"$. c #E6E7E3",
"%. c #E6E7E4",
"&. c #E6E6E6",
"*. c #E6E8E4",
"=. c #E7E8E4",
"-. c #E7E9E5",
";. c #E8E9E5",
":. c #E8E9E6",
">. c #E8EAE6",
",. c #E9EAE6",
"<. c #E9EAE7",
"1. c #E9EBE7",
"2. c #EAEBE8",
"3. c #EAEAE9",
"4. c #EBECE9",
"5. c #ECEDEA",
"6. c #ECEEEB",
"7. c #EDEEEB",
"8. c #EDEFEB",
"9. c #EDEEEC",
"0. c #EEEEEC",
"q. c #EEEFEC",
"w. c #EFEFED",
"e. c #EFF0ED",
"r. c #EFF0EE",
"t. c #F0F0EE",
"y. c #F0F1EF",
"u. c #F1F1EF",
"i. c #F1F1F0",
"p. c #F1F2F0",
"a. c #F2F2F0",
"s. c #F2F3F1",
"d. c #F3F3F2",
"f. c #F3F4F2",
"g. c #F4F4F3",
"h. c #F5F5F4",
"j. c #F5F6F5",
"k. c gray99",
"l. c #FDFDFD",
"z. c #FEFEFE",
"x. c gray100",
"c. c None",
/* pixels */
"c.c.c.c.c.c.c.c.c.c.c.c.c.c.c.c.c.c.c.c.c.c.c.c.",
"c.c.c.c.m v c c x z l c b v c.c.c.c.c.c.c.c.c.c.",
"c.c.c.n I z.x.x.x.x.x.k.p.%.F j c.c.c.c.c.c.c.c.",
"c.c.c.k z.8.1.>.*.+. .o.>.8.3.j.D f c.c.c.c.c.c.",
"c.c.c.g x.>.-.*.@.X.` ^ W R S A x.L d c.c.c.c.c.",
"c.c.c.d x.*.% % % % % % % % H B x.x.Z a c.c.c.c.",
"c.c.c.s x.+.O.o. .| _ ^ Q E K N x.x.l.M c.c.c.c.",
"c.c.c.p x.o... .[ ' ) ~ ! W P V h e &.G X X c.c.",
"c.c.c.i x. .% % % % % % % % % % % % 8 X + O X c.",
"c.c.c.u x.} | ] { ] _ ( / ~ ~ ~ ~ ~ X + O o X c.",
"c.c.c.y x.' | { ] | ' ' ' { { | { X + O o X c.c.",
"c.c.c.t x.| % % % % % % % % % % X + O o X c.c.c.",
"c.c.c.r x.@.#.$.*.=.-.-.-.;.;.X + O o X @ c.c.c.",
"c.c.c.w x.=.-.:.>.<.1.2.2.2.X + O o X T 7 c.c.c.",
"c.c.c.q x.,.% % % % % % % X + O o X C x.5 c.c.c.",
"c.c.c.0 x.2.4.5.7.9.q.w.e.X O o X r.e.x.2 c.c.c.",
"c.c.c.9 x.4.5.7.q.e.t.u.X   . X U a.u.x.1 c.c.c.",
"c.c.c.6 x.5.% % % % % %   X Y h.g.d.s.x.< c.c.c.",
"c.c.c.4 x.5.7.0.w.r.y.p.s.d.f.f.d.s.a.x.> c.c.c.",
"c.c.c.3 z.7.5.6.9.q.e.t.y.y.u.u.u.y.i.z.> c.c.c.",
"c.c.c.: J z.x.x.x.x.x.x.x.x.x.x.x.x.z.J & c.c.c.",
"c.c.c.c.$ , > > > : ; ; ; - - - = * - # c.c.c.c.",
"c.c.c.c.c.c.c.c.c.c.c.c.c.c.c.c.c.c.c.c.c.c.c.c.",
"c.c.c.c.c.c.c.c.c.c.c.c.c.c.c.c.c.c.c.c.c.c.c.c."
};
