/* XPM */
const char * guImage_guayadeque[] = {
/* columns rows colors chars-per-pixel */
"24 24 150 2",
"   c #244D19",
".  c #29551C",
"X  c #325A20",
"o  c #357226",
"O  c #397E2A",
"+  c #456124",
"@  c #5F672A",
"#  c #4C7A3B",
"$  c #6F662C",
"%  c #70692D",
"&  c #857B3A",
"*  c #3F882E",
"=  c #418D2F",
"-  c #46902E",
";  c #468330",
":  c #438E31",
">  c #488F31",
",  c #4C8338",
"<  c #5D8533",
"1  c #51813E",
"2  c #528D3C",
"3  c #449431",
"4  c #479A33",
"5  c #489D34",
"6  c #4D9439",
"7  c #53923E",
"8  c #519E3E",
"9  c #5B9C3F",
"0  c #4BA236",
"q  c #4DA238",
"w  c #4FAC39",
"e  c #54A73E",
"r  c #53AC3C",
"t  c #53B53B",
"y  c #549141",
"u  c #589545",
"i  c #599944",
"p  c #5C9E4A",
"a  c #609044",
"s  c #609B4B",
"d  c #639B52",
"f  c #689851",
"g  c #70955F",
"h  c #5DA346",
"j  c #59AB46",
"k  c #5EA64D",
"l  c #57B740",
"z  c #59B344",
"x  c #5BBD44",
"c  c #67A44F",
"v  c #65BB4F",
"b  c #67A553",
"n  c #69A753",
"m  c #6AA35A",
"M  c #6FAC58",
"N  c #72AE5B",
"B  c #77B15F",
"V  c #73A865",
"C  c #7DA96C",
"Z  c #7DB569",
"A  c #65C54D",
"S  c #71CB5D",
"D  c #74C161",
"F  c #78C067",
"G  c #77CF62",
"H  c #A6994B",
"J  c #A1965A",
"K  c #97AA5D",
"L  c #A5A75B",
"P  c #89916B",
"I  c #979B78",
"U  c #A69E72",
"Y  c #81A76B",
"T  c #9DA767",
"R  c #8EA171",
"E  c #8AAC73",
"W  c #9CA478",
"Q  c #95AE79",
"!  c #8DB079",
"~  c #A2AA6C",
"^  c #B7AB61",
"/  c #B5B368",
"(  c #AAAE73",
")  c #ADB57D",
"_  c #B5B97F",
"`  c #C7B95C",
"'  c #C8B95E",
"]  c #CABB63",
"[  c #CEC06E",
"{  c #CFC272",
"}  c #D2C67B",
"|  c #96B384",
" . c #9CBC8A",
".. c #B1B783",
"X. c #B5BA83",
"o. c #B3BA88",
"O. c #A3B891",
"+. c #BAB592",
"@. c #B1BD95",
"#. c #B9BF97",
"$. c #B1BC9E",
"%. c #C0B888",
"&. c #BCC196",
"*. c #BFC398",
"=. c #B8C6AB",
"-. c #B6CFAB",
";. c #D5CA82",
":. c #D7CC89",
">. c #D9CE8F",
",. c #C1C491",
"<. c #CCC393",
"1. c #C0C59D",
"2. c #C9CB9D",
"3. c #D9CF90",
"4. c #D9CF99",
"5. c #DBD193",
"6. c #DDD49B",
"7. c #C3C7A1",
"8. c #C3C9A4",
"9. c #C3C9A8",
"0. c #CACDA8",
"q. c #DED7A2",
"w. c #DFD8A3",
"e. c #D7D5AE",
"r. c #C6CFB3",
"t. c #CDD4BC",
"y. c #D2D3B1",
"u. c #E0D7A2",
"i. c #E0D9A5",
"p. c #E3DBAC",
"a. c #E5DFB4",
"s. c #E7E0B7",
"d. c #E7E1B9",
"f. c #E9E3BD",
"g. c #D2D8C4",
"h. c #DFE5D6",
"j. c #EBE6C4",
"k. c #E2E4CC",
"l. c #ECE7C9",
"z. c #EEE9CD",
"x. c #EFEBD1",
"c. c #F0EBD2",
"v. c #F2EED9",
"b. c #F3F0DC",
"n. c #F5F3E4",
"m. c #F7F5E9",
"M. c #F8F6EB",
"N. c #FBFAF3",
"B. c #FEFDFC",
"V. c None",
/* pixels */
"V.V.V.V.V.V.V.V.V.V.V.V.V.V.V.V.V.V.V.V.V.V.V.V.",
"V.V.V.V.V.V.V.V.V.V.' L a p 7 < V.V.V.V.V.V.V.V.",
"V.V.V.V.V.V.V.] 3.s.j.1.Z S G k K V.V.V.V.V.V.V.",
"V.V.V.V.V.V.;.p.i.i.p.&.B A x S V 2.[ V.V.V.V.V.",
"V.V.V.V.V.>.u.5.6.w.p.*.N x t x j -.x.} V.V.V.V.",
"V.V.V.V.5.i.5.5.6.i.a.1.M 8 y r x m h.z.[ V.V.V.",
"V.V.V.;.f.q.6.5.6.p.d.7.n p $.C 0 q  .k.q.V.V.V.",
"V.V.` j.a.p.i.u.i.d.l.r.b i t.g.d 0 3 Y O./ V.V.",
"V.V.:.z.d.s.a.a.f.z.x.8.c i r.n.@.f h u g ,.V.V.",
"V.V.p.z.l.j.j.j.c.z.a.( 9 7 9.x.f.e.#.y.z.x.V.V.",
"V.V.c.v.x.x.z.c.b.f.' V.3 > ) j.j.f.f.j.l.v.] V.",
"V.V.m.n.b.v.v.b.b.a.V.V.3 : T a.l.s.d.f.j.x.{ V.",
"V.V.M.m.n.n.n.n.n.d.V.V.3 = ~ d.j.a.a.d.f.z.[ V.",
"V.V.v.N.M.M.M.m.M.z.} V.- > o.j.d.p.p.a.d.l.` V.",
"V.V.a.B.N.N.N.N.n.c.d.X.i 7 &.f.p.w.p.p.a.a.V.V.",
"V.V.;.B.N.N.N.n.c.z.c.9.s 7 &.i.6.6.i.p.a.:.V.V.",
"V.V.V.x.B.B.M.b.x.l.l.0.s 2 X.5.5.6.6.i.p.] V.V.",
"V.V.V.;.B.N.=.| ! E Q R 2 2 X.5.3.5.6.p.} V.V.V.",
"V.V.V.V._ V F D v z e 6 * 2 ..6.5.3.6.;.V.V.V.V.",
"V.V.V.V.; z l x l w 5 3 = , W <.<.4.} H V.V.V.V.",
"V.V.V.V.o r 3 3 3 3 = = = 1 I +.%.^ & V.V.V.V.V.",
"V.V.V.V.V.o 3 5 4 3 = O # P U J & V.V.V.V.V.V.V.",
"V.V.V.V.V.V.V.  . X + @ % $ V.V.V.V.V.V.V.V.V.V.",
"V.V.V.V.V.V.V.V.V.V.V.V.V.V.V.V.V.V.V.V.V.V.V.V."
};
