/* XPM */
const char *guImage_lastfm_on[] = {
/* columns rows colors chars-per-pixel */
"80 20 3 1",
"  c #D82C2F",
". c #DA383B",
"X c None",
/* pixels */
"   XXXXXXXXXXXXXXXXXXXXXXXXXXXXXXXXXXXXXXXXXXXXXXXXXXXX.....XXXXXXXXXXXXXXXXXXXX",
"   XXXXXXXXXXXXXXXXXXXXXXXXXXXXXXXXXXXXXXXXXXXXXXXXXXX.......XXXXXXXXXXXXXXXXXXX",
"   XXXXXXXXXXXXXXXXXXXXXXXXXXXXXXXXXXXXXXXXXXXXXXXXXX.......XXXXXXXXXXXXXXXXXXXX",
"   XXXXXXXXXXXXXXXXXXXXXXXXXXXXXXXXX...XXXXXXXXXXXXXX...XXXXXXXXXXXXXXXXXXXXXXXX",
"   XXXXXXXXXXXXXXXXXXXXXXXXXXXXXXXX....XXXXXXXXXXXXXX...XXXXXXXXXXXXXXXXXXXXXXXX",
"   XXXXXXXXXXXXXXXXXXXXXXXXXXXXXXXX....XXXXXXXXXXXXXX...XXXXXXXXXXXXXXXXXXXXXXXX",
"   XXXXXXX.......XXXXXXX......XXXX........XXXXXXXXX........XX..XXX....XXXX....XX",
"   XXXXXX.........XXXXX........XX..........XXXXXXXX........XX...X......X.......X",
"   XXXXX....XXX....XXX....XX....XX........XXXXXXXXX........XX...................",
"   XXXX....XXXXX....XX...XXXX...XXX....XXXXXXXXXXXXXX...XXXXX....XXX.....XXX....",
"   XXXX...XXXXXXX...XX...XXXXXXXXXX....XXXXXXXXXXXXXX...XXXXX...XXXXX...XXXXX...",
"   XXXX...XXXXXXX...XX.....XXXXXXXX....XXXXXXXXXXXXXX...XXXXX...XXXXX...XXXXX...",
"   XXXX...XXXXXXXX...XX.......XXXXX....XXXXXXXXXXXXXX...XXXXX...XXXXX...XXXXX...",
"   XXXX...XXXXXXXX...XXXX......XXXX....XXXXXXXXXXXXXX...XXXXX...XXXXX...XXXXX...",
"   XXXX...XXXXXXXX....XXXXXX....XXX....XXXXXXXXXXXXXX...XXXXX...XXXXX...XXXXX...",
"   XXXX...XXXXXXXXX...XXXXXXX...XXX....XXXXXXXXXXXXXX...XXXXX...XXXXX...XXXXX...",
"   XXXX....XXXXX.XX....XXXXXX...XXX....XXXXXXX...XXXX...XXXXX...XXXXX...XXXXX...",
"     XXX.....X....XX.....XX.....XXXX.......XX....XXXX...XXXXX...XXXXX...XXXXX...",
"X    XXXX.........XXX..........XXXXX.......XXX...XXXX...XXXXX...XXXXX...XXXXX...",
"XX   XXXXX......XXXXXXX......XXXXXXXX.....XXXXX.XXXXX...XXXXX...XXXXX...XXXXX..."
};
