/* XPM */
const char * guImage_media_playlist_shuffle[] = {
/* columns rows colors chars-per-pixel */
"24 24 103 2",
"   c #4A4A47",
".  c #484848",
"X  c gray30",
"o  c gray32",
"O  c #555753",
"+  c gray33",
"@  c #565854",
"#  c #575955",
"$  c #5A5D59",
"%  c #5B5D59",
"&  c #5B5C5A",
"*  c #5B5D5A",
"=  c #5D5E5A",
"-  c #5C5F5A",
";  c #5D5F5B",
":  c #63635F",
">  c #636561",
",  c #646661",
"<  c #646662",
"1  c #656762",
"2  c #656763",
"3  c #646862",
"4  c #686864",
"5  c #686965",
"6  c #686A66",
"7  c #6A6C68",
"8  c #6B6D68",
"9  c #6C6E6A",
"0  c #6D6F6B",
"q  c #6F6F6B",
"w  c #6E706B",
"e  c #6E706C",
"r  c #71736E",
"t  c #71746F",
"y  c #717370",
"u  c #737570",
"i  c #737571",
"p  c #737572",
"a  c #747671",
"s  c #757772",
"d  c #757673",
"f  c #767775",
"g  c #7C7E7B",
"h  c #7D7F7C",
"j  c #7E807C",
"k  c #80807C",
"l  c #818580",
"z  c #838581",
"x  c #848682",
"c  c #8C8C89",
"v  c #909090",
"b  c gray57",
"n  c #9A9C97",
"m  c #9D9F9B",
"M  c #9D9E9C",
"N  c #9EA09C",
"B  c #9FA19E",
"V  c #A4A4A1",
"C  c #A5A5A2",
"Z  c #B4B5B1",
"A  c #B6B8B4",
"S  c #B8B9B6",
"D  c #BABBB7",
"F  c gray72",
"G  c #CCCECA",
"H  c #D3D4D1",
"J  c #D4D5D2",
"K  c #D7D7D5",
"L  c #D7D8D7",
"P  c #DADAD9",
"I  c #DCDED9",
"U  c #DEDEDC",
"Y  c #DEDFDD",
"T  c #DDE0DA",
"R  c #DEE0DB",
"E  c #E5E6E2",
"W  c #E6E6E4",
"Q  c #E7E8E4",
"!  c #E7E8E5",
"~  c #E7E8E7",
"^  c #E9E9E7",
"/  c #EAEBE6",
"(  c #EAEAE9",
")  c #EAEBE9",
"_  c #EBEBEA",
"`  c #EDEDEC",
"'  c #EDEEEC",
"]  c #EEEFEC",
"[  c #F2F2F0",
"{  c #F2F2F1",
"}  c #F3F3F1",
"|  c #F4F4F2",
" . c #F4F4F3",
".. c #F5F5F3",
"X. c #F4F4F4",
"o. c #F5F5F4",
"O. c #F6F6F5",
"+. c #F8F8F7",
"@. c #F9F9F9",
"#. c #FAFAF9",
"$. c gray98",
"%. c #FBFBFB",
"&. c None",
/* pixels */
"&.&.&.&.&.&.&.&.&.&.&.&.&.&.&.&.&.&.&.&.&.&.&.&.",
"&.&.&.&.&.&.&.&.&.&.&.&.&.&.&.&.&.&.&.&.&.&.&.&.",
"&.&.&.&.&.&.&.&.&.&.&.&.&.&.&.&.&.&.&.&.&.&.&.&.",
"&.&.&.&.&.&.&.&.&.&.&.&.&.&.&.&.&.&.&.&.&.&.&.&.",
"&.&.&.&.&.&.&.&.&.&.&.&.&.&.&.&.2 6 : &.&.&.&.&.",
"&.&.&.&.&.&.&.&.&.&.&.&.&.&.&.&.9 +.g 4 &.&.&.&.",
"&.&.&.&.O O O @ % & &.&.&.p 0 9 h O.$.g q &.&.&.",
"&.&.&.&.O T R I G n $ 3 a J [ |  .o.#.X.< &.&.&.",
"&.&.&.&.O O O # 7 Z A d ` ^ m i h +.%.g C &.&.&.",
"&.&.&.&.&.&.&.&.c - z K ( r B &.9 @.g C &.&.&.&.",
"&.&.&.&.&.&.&.&.&.b w } M V &.&.2 6 C &.&.&.&.&.",
"&.&.&.&.&.&.&.&.&.&.y ..y &.&.&.&.&.&.&.&.&.&.&.",
"&.&.&.&.&.&.&.&.&.k M  .w o &.&.O O . &.&.&.&.&.",
"&.&.&.&.&.&.&.&.> t ` P x ;   &.O ~ 1 X &.&.&.&.",
"&.&.&.&.2 0 0 u m _ { f D S 8 # O ) ' 1 + &.&.&.",
"&.&.&.&.9  .o.O.o.L s l * N H E Q ! ] Y O &.&.&.",
"&.&.&.&.2 0 0 0 e j &.&.F 5 = @ O / W , v &.&.&.",
"&.&.&.&.&.&.&.&.&.&.&.&.&.&.&.&.O U < v &.&.&.&.",
"&.&.&.&.&.&.&.&.&.&.&.&.&.&.&.&.O O v &.&.&.&.&.",
"&.&.&.&.&.&.&.&.&.&.&.&.&.&.&.&.&.&.&.&.&.&.&.&.",
"&.&.&.&.&.&.&.&.&.&.&.&.&.&.&.&.&.&.&.&.&.&.&.&.",
"&.&.&.&.&.&.&.&.&.&.&.&.&.&.&.&.&.&.&.&.&.&.&.&.",
"&.&.&.&.&.&.&.&.&.&.&.&.&.&.&.&.&.&.&.&.&.&.&.&.",
"&.&.&.&.&.&.&.&.&.&.&.&.&.&.&.&.&.&.&.&.&.&.&.&."
};
