/* XPM */
const char * guImage_numerate[] = {
/* columns rows colors chars-per-pixel */
"24 24 45 1",
"  c #549E0E",
". c #59A015",
"X c #888A85",
"o c #8B8E89",
"O c #8D8F8B",
"+ c #8E908B",
"@ c #989B96",
"# c #999C96",
"$ c #9C9D98",
"% c #9C9E98",
"& c #9FA09A",
"* c #9FA19B",
"= c #B0B2AE",
"- c #C0C2BD",
"; c #D3D7CF",
": c #D3D5D2",
"> c #D4D6D2",
", c #D4D8D0",
"< c #D5D9D1",
"1 c #D5D8D2",
"2 c #D9DBD7",
"3 c #D9DCD6",
"4 c #D5E7C3",
"5 c #E0E4DC",
"6 c #E3E3E0",
"7 c #E2E4E1",
"8 c #E7E8E6",
"9 c #EAEBE9",
"0 c #E9ECE8",
"q c #EBECEA",
"w c #ECEEEA",
"e c #EFEFEC",
"r c #EFF1ED",
"t c #EFF0EE",
"y c #F1F2F0",
"u c #F1F3F0",
"i c #F2F3F1",
"p c #F3F3F2",
"a c #F2F4F1",
"s c #F8F9F7",
"d c #F8F9F8",
"f c #F9FAF9",
"g c #FCFCFB",
"h c gray100",
"j c None",
/* pixels */
"jjjjjjjjjjjjjjjjjjjjjjjj",
"jjj  jjjjjjjjjjjjjjjjjjj",
"jj.h4.jjjjjjjjjjjjjjjjjj",
"jj.44.jjjjjjjjjjjjjjjjjj",
"jjj  jjjjjjjjjjjjjjjjjjj",
"jjjjjjjjjjjjjjjjjjjjjjjj",
"jjjjjjjjjjjjjjjjjjjjjjjj",
"jjj  jjjjjjjj7e6jjjjjjjj",
"jj.h4.jjjjjj%q09$jjjjjjj",
"jj.44.jjjjjj@p5i#jjjjjjj",
"jjj  jjjjjjj&f1d*jjjjjjj",
"jjjjjjjjjjjj=s;s=jjjjjjj",
"jjjjjjjjjjjj-a;a-jjjjjjj",
"jjj  jjjXXXX>w;w>XXXXjjj",
"jj.h4.jjjo8hg3;3gh8ojjjj",
"jj.44.jjjj+tu,;,ut+jjjjj",
"jjj  jjjjjj+qy<yq+jjjjjj",
"jjjjjjjjjjjj+qhq+jjjjjjj",
"jjjjjjjjjjjjjO:Ojjjjjjjj",
"jjj  jjjjjjjjjXjjjjjjjjj",
"jj.h4.jjjjjjjjjjjjjjjjjj",
"jj.44.jjjjjjjjjjjjjjjjjj",
"jjj  jjjjjjjjjjjjjjjjjjj",
"jjjjjjjjjjjjjjjjjjjjjjjj"
};
