/* XPM */
const char * guImage_remove[] = {
/* columns rows colors chars-per-pixel */
"24 24 17 1",
"  c #555753",
". c #565854",
"X c #575955",
"o c #585956",
"O c #585A56",
"+ c #585B57",
"@ c #595B57",
"# c #5A5C57",
"$ c #BFC0BE",
"% c #C0C1BF",
"& c #C0C1C0",
"* c #C1C2C0",
"= c #C2C3C1",
"- c #D0D1CF",
"; c #DCDDDB",
": c #DDDEDC",
"> c None",
/* pixels */
">>>>>>>>>>>>>>>>>>>>>>>>",
">>>>>>>>>>>>>>>>>>>>>>>>",
">>>>>>>>>>>>>>>>>>>>>>>>",
">>>>>>>>>>>>>>>>>>>>>>>>",
">>>>>>>>>>>>>>>>>>>>>>>>",
">>>>>>>>>>>>>>>>>>>>>>>>",
">>>>>>>>>>>>>>>>>>>>>>>>",
">>>>>>>>>>>>>>>>>>>>>>>>",
">>>>>>>>>>>>>>>>>>>>>>>>",
">>>>>>>>>>>>>>>>>>>>>>>>",
">>>>o..............O>>>>",
">>>>@:::;::-======= >>>>",
">>>>@;*&*%&%$$$%$$$ >>>>",
">>>>+     ..XX....X#>>>>",
">>>>>>>>>>>>>>>>>>>>>>>>",
">>>>>>>>>>>>>>>>>>>>>>>>",
">>>>>>>>>>>>>>>>>>>>>>>>",
">>>>>>>>>>>>>>>>>>>>>>>>",
">>>>>>>>>>>>>>>>>>>>>>>>",
">>>>>>>>>>>>>>>>>>>>>>>>",
">>>>>>>>>>>>>>>>>>>>>>>>",
">>>>>>>>>>>>>>>>>>>>>>>>",
">>>>>>>>>>>>>>>>>>>>>>>>",
">>>>>>>>>>>>>>>>>>>>>>>>"
};
