/* XPM */
const char * guImage_search[] = {
/* columns rows colors chars-per-pixel */
"24 24 119 2",
"   c #202424",
".  c #222627",
"X  c #262C2D",
"o  c #272C2D",
"O  c #282C2E",
"+  c #282D30",
"@  c #292D30",
"#  c #2B2F30",
"$  c #2E3436",
"%  c #2F3436",
"&  c #2E3536",
"*  c #2F3536",
"=  c #2F3537",
"-  c #2F3638",
";  c #2F3738",
":  c #303637",
">  c #303737",
",  c #303538",
"<  c #303638",
"1  c #313638",
"2  c #313739",
"3  c #313839",
"4  c #31393A",
"5  c #353A3A",
"6  c #353B3B",
"7  c #34393C",
"8  c #343A3C",
"9  c #363B3D",
"0  c #383D3F",
"q  c #3E403E",
"w  c #3F4445",
"e  c #414647",
"r  c #464D4D",
"t  c #474D4D",
"y  c #484C4B",
"u  c #494E4C",
"i  c #494D4E",
"p  c #51514F",
"a  c #555753",
"s  c #565854",
"d  c #575955",
"f  c #5A5E5C",
"g  c #5B5F5D",
"h  c #5F615D",
"j  c #60625D",
"k  c #61635E",
"l  c #616360",
"z  c #626360",
"x  c #626460",
"c  c #676965",
"v  c #686966",
"b  c #686A66",
"n  c #686A67",
"m  c #696B67",
"M  c #666A68",
"N  c #696C68",
"B  c #6C6D6A",
"V  c #6F726F",
"C  c #71736E",
"Z  c #70726F",
"A  c #72746F",
"S  c #727370",
"D  c #717470",
"F  c #757773",
"G  c #737775",
"H  c #757675",
"J  c #757977",
"K  c #797B77",
"L  c #797B78",
"P  c #7C7F79",
"I  c #7C7E7A",
"U  c #7D807A",
"Y  c #7F807C",
"T  c #81847F",
"R  c #828481",
"E  c #838680",
"W  c #868783",
"Q  c #868985",
"!  c #878A85",
"~  c #8E8F8B",
"^  c #8B8E8D",
"/  c #8F928F",
"(  c #929592",
")  c #949791",
"_  c #959793",
"`  c #939694",
"'  c #979894",
"]  c #979895",
"[  c #979A95",
"{  c #9A9C98",
"}  c #9E9F9B",
"|  c #9FA19D",
" . c #A0A19C",
".. c #A0A29D",
"X. c #A0A29E",
"o. c #A3A69F",
"O. c #A5A7A4",
"+. c #AAACA7",
"@. c #ABADA9",
"#. c #ADAFAA",
"$. c #AFB2AB",
"%. c #B0B3AC",
"&. c #B0B2AE",
"*. c #B3B6B0",
"=. c #B6B9B2",
"-. c #B6B9B3",
";. c #B8BAB6",
":. c #BABDB7",
">. c #BFC1BB",
",. c #BEC0BC",
"<. c #BEC1BC",
"1. c #C4C7C1",
"2. c #C6C8C3",
"3. c #C7C9C4",
"4. c #CDCFCA",
"5. c #CED0CC",
"6. c #D5D7D4",
"7. c #D6D8D4",
"8. c None",
/* pixels */
"8.8.8.8.8.8.8.8.8.8.8.8.8.8.8.8.8.8.8.8.8.8.8.8.",
"8.8.8.8.8.8.8.8.8.8.8.8.8.8.8.8.8.8.8.8.8.8.8.8.",
"8.8.8.8.8.8.8.8.8.8.8.8.8.8.8.8.8.8.8.8.8.8.8.8.",
"8.8.8.8.8.8.7 $ $ , 8.8.8.8.8 $ $ < 8.8.8.8.8.8.",
"8.8.8.8.8.8.$ Y d $ 8.8.8.8.$ Y d $ 8.8.8.8.8.8.",
"8.8.8.8.8.8.> $ $ % 8.8.8.8.< $ $ < 8.8.8.8.8.8.",
"8.8.8.8.8.9 / ~ R V $ $ $ $ ` 3.<.( 1 8.8.8.8.8.",
"8.8.8.- 2 G X.k a e J 3.{ g w %.o.| f < % 8.8.8.",
"8.8.1 O.2.-.! j a $ } =.U S $ %.o.Q I K D ; 8.8.",
"8.8.$ &.$.o.T j a $ ' =.P b $ %.o.T j a Z 2 8.8.",
"8.8.$ #.$.o.T j a 0 M :.E u i %.o.T j a B 2 8.8.",
"8.8.$ +.$.o.T j a l $ $ $ $ [ %.o.T j a v < 8.8.",
"8.8.= ..>.*._ F n z $ 8.8.=  .>.*._ F n z & 8.8.",
"8.8.@ < $ $ $ $ $ $ X 8.8.O = $ $ $ $ $ $ + 8.8.",
"8.8.# H c p q   8.8.8.8.8.8.8.8.. H c p q o 8.8.",
"8.8.t 5.) A m 5 8.8.8.8.8.8.8.8.r 5.) A m 6 8.8.",
"8.4 ^ 1.) C h y * 8.8.8.8.8.8.3 ^ 1.) C h y : 8.",
"8.$ 6.7.;.] L N $ 8.8.8.8.8.8.$ 6.7.;.] L N $ 8.",
"8.$ ,.4.@.W x s $ 8.8.8.8.8.8.$ ,.4.@.W x s $ 8.",
"8.$ $ $ $ $ $ $ $ 8.8.8.8.8.8.$ $ $ $ $ $ $ $ 8.",
"8.8.8.8.8.8.8.8.8.8.8.8.8.8.8.8.8.8.8.8.8.8.8.8.",
"8.8.8.8.8.8.8.8.8.8.8.8.8.8.8.8.8.8.8.8.8.8.8.8.",
"8.8.8.8.8.8.8.8.8.8.8.8.8.8.8.8.8.8.8.8.8.8.8.8.",
"8.8.8.8.8.8.8.8.8.8.8.8.8.8.8.8.8.8.8.8.8.8.8.8."
};
