/* XPM */
const char * guImage_smart_play[] = {
/* columns rows colors chars-per-pixel */
"24 24 116 2",
"   c #1F2428",
".  c #262C31",
"X  c #484D4E",
"o  c #6C706D",
"O  c #B28D00",
"+  c #B99700",
"@  c #BE9D11",
"#  c #BFA225",
"$  c #BAA139",
"%  c #C9A713",
"&  c #D1B43D",
"*  c #D2B952",
"=  c #D0B959",
"-  c #FCE94F",
";  c #204A87",
":  c #234E8C",
">  c #214E8E",
",  c #2B5591",
"<  c #2B5794",
"1  c #2F5C9A",
"2  c #335D99",
"3  c #35619B",
"4  c #34619C",
"5  c #37629E",
"6  c #396098",
"7  c #3C689F",
"8  c #3C68A0",
"9  c #3F69A3",
"0  c #45699D",
"q  c #406AA2",
"w  c #446AA1",
"e  c #416DA3",
"r  c #496EA3",
"t  c #4E70A2",
"y  c #5273A4",
"u  c #5477A8",
"i  c #5D7DAA",
"p  c #5E7DAA",
"a  c #6484AF",
"s  c #6988B2",
"d  c #6F8CB3",
"f  c #A0A899",
"g  c #DFCF8C",
"h  c #E7D693",
"j  c #EAE499",
"k  c #EBDEAC",
"l  c #E1E1BE",
"z  c #8EA4C1",
"x  c #8FA8C6",
"c  c #97ABC9",
"v  c #97ACC9",
"b  c #99AFCD",
"n  c #A6B8D0",
"m  c #A9B9D0",
"M  c #A9BCD5",
"N  c #BDCCCF",
"B  c #B6C5D9",
"V  c #BCCED9",
"C  c #BFD4E7",
"Z  c #BED4ED",
"A  c #BFD6F2",
"S  c #C1CFCE",
"D  c #C0D1DA",
"F  c #D9DDDE",
"G  c #DDE0D0",
"H  c #F0E6C1",
"J  c #F1E9C9",
"K  c #F6EED0",
"L  c #F5EEDA",
"P  c #F5F0DC",
"I  c #C3CFE0",
"U  c #C4D1E3",
"Y  c #C7D2E2",
"T  c #C9D7E2",
"R  c #CBD9E9",
"E  c #CBDBED",
"W  c #D3DBE1",
"Q  c #D4DBE0",
"!  c #D7DDE2",
"~  c #D0DBE7",
"^  c #D4DEEA",
"/  c #DDE3E7",
"(  c #DFE4E5",
")  c #DCE4EB",
"_  c #DFE6EB",
"`  c #D8E0EC",
"'  c #DBE5EC",
"]  c #DBE4ED",
"[  c #DDE4EF",
"{  c #D5E3F2",
"}  c #D5E4F7",
"|  c #D8E4F1",
" . c #DDE7F3",
".. c #DFEAF3",
"X. c #E5E8E3",
"o. c #E3E8EB",
"O. c #E4EBEF",
"+. c #ECEFEC",
"@. c #F7F2E3",
"#. c #F9F4E8",
"$. c #E3ECF4",
"%. c #E3ECF5",
"&. c #E5EDF5",
"*. c #E6ECF4",
"=. c #E6ECF5",
"-. c #E7EEF5",
";. c #E6EEF6",
":. c #ECEFF1",
">. c #EDF3F8",
",. c #EEF2F8",
"<. c #FBF8F0",
"1. c #F2F5F9",
"2. c #F5F7F9",
"3. c #F4F6FA",
"4. c gray100",
"5. c None",
/* pixels */
"5.5.5.5.5.5.5.5.5.5.5.5.5.5.5.5.5.5.5.5.5.5.5.5.",
"5.5.5.5.5.5.5.5.5.5.; 7 q e , 5.5.5.5.5.5.5.5.5.",
"5.5.5.5.5.5.5.5.2 z n ^ 1.1.Y a : 5.5.5.5.5.5.5.",
"5.5.5.5.5.5.5.1 I $.-.%.%.&.>.2.M > 5.5.5.5.5.5.",
"5.5.5.5.5.5.4 x |  .{ - - - - E =.s < 5.5.5.5.5.",
"5.5.5.5.5.5.5 3...%.- 4.4.4.4.- ~ *.3 5.5.5.5.5.",
"5.5.5.5.5.5.u ,.} - 4.- - - - 4.j ` 8 5.5.5.5.5.",
"5.5.5.5.5.5.i [ ( - 4.- S D - 4.j U 6 5.5.5.5.5.",
"5.5.5.5.5.5.y c O.G - G N - 4.- ] b 5.5.5.5.5.5.",
"5.5.5.5.5.5.5.p R F ! T V - 4.j ) r 5.5.5.5.5.5.",
"5.5.5.5.5.5.5.t v ' W C - 4.j _ d 5.5.5.5.5.5.5.",
"5.5.5.5.5.5.5.5.0 ;.Z A j :.o.m w 5.5.5.5.5.5.5.",
"5.5.5.5.5.5.5.5.9 B +.Q l / X.f 5.5.5.5.5.5.5.5.",
"5.5.5.5.5.5.5.5.5.@ @ @ @ @ # @ 5.5.5.5.5.5.5.5.",
"5.5.5.5.5.5.5.5.@ #.L K h h h * @ 5.5.5.5.5.5.5.",
"5.5.5.5.5.5.5.5.5.@ <.<.g & % @ 5.5.5.5.5.5.5.5.",
"5.5.5.5.5.5.5.5.@ P J h h h h * @ 5.5.5.5.5.5.5.",
"5.5.5.5.5.5.5.5.O @ <.<.k = $ @ + 5.5.5.5.5.5.5.",
"5.5.5.5.5.5.5.5.@ @.H h h h h * @ 5.5.5.5.5.5.5.",
"5.5.5.5.5.5.5.5.5.@ @ @ @ @ @ @ 5.5.5.5.5.5.5.5.",
"5.5.5.5.5.5.5.5.5.5.  o X .   5.5.5.5.5.5.5.5.5.",
"5.5.5.5.5.5.5.5.5.5.5.5.5.5.5.5.5.5.5.5.5.5.5.5.",
"5.5.5.5.5.5.5.5.5.5.5.5.5.5.5.5.5.5.5.5.5.5.5.5.",
"5.5.5.5.5.5.5.5.5.5.5.5.5.5.5.5.5.5.5.5.5.5.5.5."
};
