/* XPM */
const char * guImage_sysstem_run[] = {
"24 24 159 2",
"  	c None",
". 	c #565854",
"+ 	c #555753",
"@ 	c #585B57",
"# 	c #CFCFCE",
"$ 	c #E2E2E0",
"% 	c #AFB0AD",
"& 	c #C7C8C6",
"* 	c #E1E1E0",
"= 	c #F8F8F8",
"- 	c #FCFCFB",
"; 	c #F7F7F7",
"> 	c #585B56",
", 	c #AEAEAB",
"' 	c #FBFBFB",
") 	c #9FA09D",
"! 	c #5C5E5A",
"~ 	c #C5C5C4",
"{ 	c #C2C2C1",
"] 	c #3C4243",
"^ 	c #2E3436",
"/ 	c #33393A",
"( 	c #999A98",
"_ 	c #BDBEBE",
": 	c #CCCDCC",
"< 	c #33393B",
"[ 	c #303739",
"} 	c #DFDFDE",
"| 	c #353A3C",
"1 	c #D9DAD8",
"2 	c #EEEEEC",
"3 	c #3F4446",
"4 	c #32383A",
"5 	c #303638",
"6 	c #7D8081",
"7 	c #A1A4A3",
"8 	c #353B3C",
"9 	c #C6C7C5",
"0 	c #A2A4A1",
"a 	c #E1E1DF",
"b 	c #A9ABAA",
"c 	c #33383A",
"d 	c #CDCECC",
"e 	c #EDEDEC",
"f 	c #EEEEEE",
"g 	c #C0C2C1",
"h 	c #C1C2C1",
"i 	c #DBDBD9",
"j 	c #9B9E9D",
"k 	c #303738",
"l 	c #353B3D",
"m 	c #363C3E",
"n 	c #DCDCDB",
"o 	c #D7D7D6",
"p 	c #A0A29E",
"q 	c #8A8C88",
"r 	c #A0A19E",
"s 	c #D2D3D1",
"t 	c #DEDEDD",
"u 	c #B9BBB8",
"v 	c #7B7E7F",
"w 	c #3B4042",
"x 	c #B7B9B8",
"y 	c #C7C9C7",
"z 	c #D0D1D0",
"A 	c #8B8D89",
"B 	c #9C9E9A",
"C 	c #AAABA8",
"D 	c #ADAFAB",
"E 	c #D3D4D2",
"F 	c #B3B6B4",
"G 	c #313738",
"H 	c #B3B4B3",
"I 	c #D5D5D3",
"J 	c #E7E8E7",
"K 	c #A7A9A5",
"L 	c #9A9C9A",
"M 	c #3A3F41",
"N 	c #A2A4A3",
"O 	c #C2C4C1",
"P 	c #B3B6B1",
"Q 	c #D7D9D6",
"R 	c #3B3F3F",
"S 	c #383E40",
"T 	c #E8E9E7",
"U 	c #999C97",
"V 	c #BFC1BE",
"W 	c #3D4344",
"X 	c #3E4446",
"Y 	c #DBDDDA",
"Z 	c #B3B7B0",
"` 	c #DFE1DE",
" .	c #373D3E",
"..	c #313639",
"+.	c #33383B",
"@.	c #CCCCCB",
"#.	c #D6D7D5",
"$.	c #ACAFAA",
"%.	c #C6C8C4",
"&.	c #ABAEAC",
"*.	c #3D4143",
"=.	c #DEE0DC",
"-.	c #C2C6C0",
";.	c #DBDCD8",
">.	c #ADAEAB",
",.	c #AEAFAD",
"'.	c #363C3C",
").	c #AEB0AE",
"!.	c #D0D2CE",
"~.	c #B6B9B4",
"{.	c #DADCD8",
"].	c #E9EBE9",
"^.	c #E3E5E2",
"/.	c #C5CAC3",
"(.	c #D7D9D4",
"_.	c #BCC0BC",
":.	c #959895",
"<.	c #9FA2A0",
"[.	c #373C3C",
"}.	c #7F8280",
"|.	c #373C3E",
"1.	c #9EA09C",
"2.	c #D2D4D1",
"3.	c #D1D4CF",
"4.	c #C3C6C0",
"5.	c #C2C6BF",
"6.	c #CBD0C9",
"7.	c #D9DCD7",
"8.	c #CFD2CD",
"9.	c #353C3D",
"0.	c #313739",
"a.	c #394040",
"b.	c #909392",
"c.	c #969895",
"d.	c #ACAFAD",
"e.	c #D6D8D4",
"f.	c #DEE2DC",
"g.	c #D8DCD6",
"h.	c #B8BAB6",
"i.	c #353A3B",
"j.	c #9E9E9D",
"k.	c #333A3B",
"l.	c #909391",
"m.	c #2C3133",
"n.	c #2F3537",
"o.	c #373C3D",
"p.	c #939591",
"q.	c #868985",
"r.	c #303537",
"s.	c #50534F",
"t.	c #2E3537",
"u.	c #212727",
"v.	c #2F3437",
"w.	c #7A7D7B",
"x.	c #696B6A",
"y.	c #AEAFAC",
"z.	c #2F3536",
"A.	c #313637",
"B.	c #4B4E4A",
"                                                ",
"          . + @   @ + .                         ",
"        + # $ % & % $ # +                       ",
"        + * = - ; - = * +                       ",
"        > , ' ) ! ) ' , >                       ",
"          ~ ; +   + ; {   ] ^ /                 ",
"        > , ' ) ! ) ' ( ^ _ : <       [         ",
"        + * = - ; - = } | 1 2 3 4 5 6 7 8       ",
"        + # $ % 9 0 a b c d e ' f g h i j k     ",
"          . + @   ^ l m n o p q r s t u v       ",
"                w x y : z A B C D p E F G       ",
"                5 H I J p K L M N O P Q 4       ",
"      . + @   @ R 4 S T U V W   X Y Z `  ...+.  ",
"    + # $ % & % $ @.< #.$.%.&.*.F =.-.;.>.,.5   ",
"    + * = - ; - = * '.).!.~.{.].^./.(._.:.<.[.  ",
"    > , ' ) ! ) ' }.|.1.2.3.4.5.6.7.8.9.0.^     ",
"      ~ ; +   + ; a.b.K c.d.e.f.g.h.i.          ",
"    > , ' ) ! ) ' j.k.l.8 m.n.o.p.q.r.          ",
"    + * = - ; - = * s.t.u.    v.w.x.^           ",
"    + # $ y.9 y.$ # +         z.^ A.            ",
"      . + B.  B.+ .                             ",
"                                                ",
"                                                ",
"                                                "};
