/* XPM */
const char * guImage_vol_add[] = {
/* columns rows colors chars-per-pixel */
"16 16 21 1",
"  c #555753",
". c #565854",
"X c #575955",
"o c #585A56",
"O c #595B57",
"+ c #5A5C58",
"@ c #BABBB9",
"# c #BBBCBA",
"$ c #C0C1BF",
"% c #C1C2C0",
"& c #C3C4C2",
"* c #C4C5C3",
"= c #CCCDCB",
"- c #D3D4D2",
"; c #D4D5D3",
": c #D7D8D6",
"> c #DBDCDA",
", c #DCDDDA",
"< c #DCDDDB",
"1 c #DDDEDC",
"2 c None",
/* pixels */
"2222222222222222",
"2222222222222222",
"222222 .  222222",
"222222.>@.222222",
"222222.<#X222222",
"222222 <#o222222",
"22   .+1#O    22",
"22 ,<1<<$$$$% 22",
"22 >*&&&&&&&& 22",
"22     ==o    22",
"222222 ;;X222222",
"222222 ::X222222",
"222222 --X222222",
"222222.XX.222222",
"2222222222222222",
"2222222222222222"
};
