/* XPM */
const char * guImage_application_exit[] = {
"64 64 636 2",
"  	c None",
". 	c #424748",
"+ 	c #5B5F5D",
"@ 	c #5A5E5C",
"# 	c #585C5A",
"$ 	c #555957",
"% 	c #464847",
"& 	c #434544",
"* 	c #414443",
"= 	c #404241",
"- 	c #3E4040",
"; 	c #3C403E",
"> 	c #3B3E3C",
", 	c #3A3C3B",
"' 	c #383B3A",
") 	c #373938",
"! 	c #353737",
"~ 	c #333635",
"{ 	c #323433",
"] 	c #303333",
"^ 	c #2F3231",
"/ 	c #2E302F",
"( 	c #2C2F2E",
"_ 	c #2B2D2C",
": 	c #292B2B",
"< 	c #222525",
"[ 	c #191C1D",
"} 	c #1E2223",
"| 	c #1F2324",
"1 	c #2E3436",
"2 	c #5D6260",
"3 	c #D3D7CF",
"4 	c #D0D4CC",
"5 	c #CACEC6",
"6 	c #C4C8C0",
"7 	c #B5B9B1",
"8 	c #858883",
"9 	c #5B5D5A",
"0 	c #555753",
"a 	c #525450",
"b 	c #4F514E",
"c 	c #4C4E4B",
"d 	c #4A4B48",
"e 	c #474946",
"f 	c #454643",
"g 	c #424340",
"h 	c #3F413E",
"i 	c #3C3E3B",
"j 	c #393B38",
"k 	c #373836",
"l 	c #353533",
"m 	c #323330",
"n 	c #2F302E",
"o 	c #2C2D2B",
"p 	c #1B1B1A",
"q 	c #000000",
"r 	c #111E03",
"s 	c #222B22",
"t 	c #EEEEEC",
"u 	c #E6E6E4",
"v 	c #B5B5B3",
"w 	c #878786",
"x 	c #7E7E7C",
"y 	c #7B7C7A",
"z 	c #797A77",
"A 	c #767775",
"B 	c #747572",
"C 	c #727370",
"D 	c #6F706D",
"E 	c #6D6E6B",
"F 	c #6A6C68",
"G 	c #686966",
"H 	c #666864",
"I 	c #454644",
"J 	c #1F1F1E",
"K 	c #2A4C08",
"L 	c #293921",
"M 	c #EAEAE8",
"N 	c #E0E1DE",
"O 	c #B8B8B6",
"P 	c #919290",
"Q 	c #888986",
"R 	c #858684",
"S 	c #838481",
"T 	c #80817E",
"U 	c #7D7E7B",
"V 	c #7A7C78",
"W 	c #777975",
"X 	c #757772",
"Y 	c #737570",
"Z 	c #777874",
"` 	c #515250",
" .	c #232322",
"..	c #5E6360",
"+.	c #E5E6E3",
"@.	c #E1E1DE",
"#.	c #D9DAD7",
"$.	c #BBBCB9",
"%.	c #9A9B98",
"&.	c #91938F",
"*.	c #8E908C",
"=.	c #8B8C89",
"-.	c #888A85",
";.	c #858783",
">.	c #82847F",
",.	c #80827D",
"'.	c #9D9E9C",
").	c #6E6F6D",
"!.	c #272826",
"~.	c #010201",
"{.	c #020301",
"].	c #2B4E09",
"^.	c #2A3921",
"/.	c #DCDDDA",
"(.	c #D8D9D5",
"_.	c #D1D3CF",
":.	c #BCBDB9",
"<.	c #A3A5A0",
"[.	c #9A9B97",
"}.	c #979894",
"|.	c #939590",
"1.	c #90928D",
"2.	c #8D908A",
"3.	c #AEAFAC",
"4.	c #797B78",
"5.	c #2B2D2B",
"6.	c #030502",
"7.	c #040602",
"8.	c #2D5009",
"9.	c #2A3A22",
"0.	c #5F6460",
"a.	c #D3D5D1",
"b.	c #CFD1CC",
"c.	c #CACCC6",
"d.	c #BABCB8",
"e.	c #A9ABA5",
"f.	c #A0A39E",
"g.	c #9D9F99",
"h.	c #9A9D97",
"i.	c #BEBFBC",
"j.	c #848683",
"k.	c #30322F",
"l.	c #050803",
"m.	c #060903",
"n.	c #2E520A",
"o.	c #2B3B22",
"p.	c #5F6561",
"q.	c #CBCDC7",
"r.	c #C6C8C3",
"s.	c #C2C4BE",
"t.	c #B8BBB5",
"u.	c #ADAFA9",
"v.	c #A7AAA3",
"w.	c #CECECC",
"x.	c #8F918E",
"y.	c #353733",
"z.	c #070A05",
"A.	c #080B05",
"B.	c #2F530B",
"C.	c #2C3C23",
"D.	c #BDC0BA",
"E.	c #B9BCB5",
"F.	c #B5B8B1",
"G.	c #DEDFDC",
"H.	c #9B9D9A",
"I.	c #3A3D38",
"J.	c #090E06",
"K.	c #30550C",
"L.	c #2C3D23",
"M.	c #606661",
"N.	c #B6B9B2",
"O.	c #9C9E9B",
"P.	c #3B3E38",
"Q.	c #0C1107",
"R.	c #32570C",
"S.	c #2D3E23",
"T.	c #616762",
"U.	c #3C3F39",
"V.	c #0D1408",
"W.	c #32590D",
"X.	c #2D3F24",
"Y.	c #3C403A",
"Z.	c #0F170A",
"`.	c #345B0E",
" +	c #2D4025",
".+	c #811B1C",
"++	c #6C5955",
"@+	c #3D413A",
"#+	c #111A0B",
"$+	c #355D0F",
"%+	c #2E4025",
"&+	c #9D1214",
"*+	c #A60F11",
"=+	c #C9AAA5",
"-+	c #3E423A",
";+	c #131D0C",
">+	c #365E10",
",+	c #2F4125",
"'+	c #901618",
")+	c #A61012",
"!+	c #A91517",
"~+	c #DAAEAD",
"{+	c #3E433B",
"]+	c #15200D",
"^+	c #376010",
"/+	c #2F4226",
"(+	c #8C1718",
"_+	c #CA2929",
":+	c #CE2F31",
"<+	c #A81214",
"[+	c #D49D9D",
"}+	c #3F443B",
"|+	c #17230F",
"1+	c #396212",
"2+	c #304326",
"3+	c #CB2A2B",
"4+	c #FF5A5A",
"5+	c #D63637",
"6+	c #CE8C8B",
"7+	c #40453C",
"8+	c #192510",
"9+	c #3A6412",
"0+	c #314427",
"a+	c #CB2B2C",
"b+	c #FF5C5C",
"c+	c #DE3D3E",
"d+	c #C87777",
"e+	c #EEEDEB",
"f+	c #41463C",
"g+	c #1B2811",
"h+	c #3B6513",
"i+	c #324527",
"j+	c #CB2C2D",
"k+	c #FF5E5E",
"l+	c #FF3D3D",
"m+	c #FF5D5D",
"n+	c #E64445",
"o+	c #A91416",
"p+	c #C26464",
"q+	c #EDEBE9",
"r+	c #41473C",
"s+	c #1D2B12",
"t+	c #3C6713",
"u+	c #324627",
"v+	c #CB2D2E",
"w+	c #FF6060",
"x+	c #FF2F2F",
"y+	c #FF5F5F",
"z+	c #EB4C4D",
"A+	c #AB1618",
"B+	c #BC5152",
"C+	c #E8E3E1",
"D+	c #8E918B",
"E+	c #8C8F89",
"F+	c #42483D",
"G+	c #1F2E14",
"H+	c #3E6915",
"I+	c #334728",
"J+	c #CC2E2F",
"K+	c #FF6363",
"L+	c #FF3232",
"M+	c #FF3E3E",
"N+	c #F15354",
"O+	c #AF1B1D",
"P+	c #B74042",
"Q+	c #E1D9D6",
"R+	c #81857F",
"S+	c #737671",
"T+	c #797B77",
"U+	c #43493D",
"V+	c #213115",
"W+	c #3F6B15",
"X+	c #344728",
"Y+	c #AA0F11",
"Z+	c #AA1012",
"`+	c #AB1113",
" @	c #A71113",
".@	c #D03031",
"+@	c #FF6565",
"@@	c #FF3535",
"#@	c #FF6161",
"$@	c #F45959",
"%@	c #B32022",
"&@	c #B23233",
"*@	c #DBCCCA",
"=@	c #787A76",
"-@	c #61625F",
";@	c #989A96",
">@	c #434A3E",
",@	c #223416",
"'@	c #406D16",
")@	c #344828",
"!@	c #FF5050",
"~@	c #FF6868",
"{@	c #FF3939",
"]@	c #FF3F3F",
"^@	c #F76060",
"/@	c #B92627",
"(@	c #AF2628",
"_@	c #D4C0BD",
":@	c #414240",
"<@	c #2A2A29",
"[@	c #979996",
"}@	c #444B3E",
"|@	c #243617",
"1@	c #416E17",
"2@	c #344928",
"3@	c #FF5252",
"4@	c #FF4B4B",
"5@	c #FF3B3B",
"6@	c #FF4040",
"7@	c #FF6262",
"8@	c #FB6565",
"9@	c #BF2C2D",
"0@	c #AB1E1F",
"a@	c #CEB1AD",
"b@	c #3F403E",
"c@	c #646662",
"d@	c #6D6F6A",
"e@	c #444C3E",
"f@	c #263918",
"g@	c #427017",
"h@	c #344A28",
"i@	c #FF4343",
"j@	c #FF4242",
"k@	c #FC6969",
"l@	c #C63334",
"m@	c #AA1718",
"n@	c #C7A3A0",
"o@	c #757872",
"p@	c #454D3F",
"q@	c #283C1A",
"r@	c #437219",
"s@	c #354B29",
"t@	c #FE4F4F",
"u@	c #FE3636",
"v@	c #FE3A3A",
"w@	c #FE4141",
"x@	c #FE4242",
"y@	c #FE6161",
"z@	c #FD6C6C",
"A@	c #CE3A3B",
"B@	c #A71315",
"C@	c #C2918F",
"D@	c #464E40",
"E@	c #2A3F1B",
"F@	c #457419",
"G@	c #364C2A",
"H@	c #FA4C4C",
"I@	c #F92828",
"J@	c #F81515",
"K@	c #F92626",
"L@	c #F93939",
"M@	c #F94141",
"N@	c #F94242",
"O@	c #FA5D5D",
"P@	c #FA6363",
"Q@	c #CE2C2C",
"R@	c #A71112",
"S@	c #BC7F7D",
"T@	c #474F40",
"U@	c #2C421C",
"V@	c #46761A",
"W@	c #374D2A",
"X@	c #F44949",
"Y@	c #F22525",
"Z@	c #F11010",
"`@	c #F11717",
" #	c #F22626",
".#	c #F33535",
"+#	c #F43E3E",
"@#	c #F44141",
"##	c #F43C3C",
"$#	c #F33030",
"%#	c #F22424",
"&#	c #F11414",
"*#	c #D22728",
"=#	c #B66C6B",
"-#	c #475040",
";#	c #2E451D",
">#	c #47781A",
",#	c #F04646",
"'#	c #ED2121",
")#	c #EB0C0C",
"!#	c #EC1313",
"~#	c #EC1C1C",
"{#	c #ED2424",
"]#	c #ED2727",
"^#	c #ED2A2A",
"/#	c #EE2C2C",
"(#	c #EE2F2F",
"_#	c #ED2828",
":#	c #EC1919",
"<#	c #EB1212",
"[#	c #D52A2B",
"}#	c #B15654",
"|#	c #BDBEB9",
"1#	c #485141",
"2#	c #30471F",
"3#	c #48791C",
"4#	c #384E2B",
"5#	c #EB4343",
"6#	c #E71D1D",
"7#	c #E50808",
"8#	c #DF3232",
"9#	c #A71618",
"0#	c #BBB0AB",
"a#	c #495241",
"b#	c #324B20",
"c#	c #4A7C1C",
"d#	c #394F2B",
"e#	c #E64040",
"f#	c #E11A1A",
"g#	c #DE0404",
"h#	c #E22222",
"i#	c #D32828",
"j#	c #A81113",
"k#	c #AE3D3E",
"l#	c #C0B8B2",
"m#	c #495342",
"n#	c #344D21",
"o#	c #4B7D1D",
"p#	c #39502C",
"q#	c #E13D3D",
"r#	c #DB1616",
"s#	c #D80000",
"t#	c #D80101",
"u#	c #DE2626",
"v#	c #E13C3C",
"w#	c #C81E1F",
"x#	c #B55857",
"y#	c #C5C4BF",
"z#	c #4A5442",
"A#	c #365022",
"B#	c #4C7F1E",
"C#	c #3A512C",
"D#	c #D90404",
"E#	c #DF2D2D",
"F#	c #E03A3A",
"G#	c #C01A1B",
"H#	c #BB7675",
"I#	c #4A5543",
"J#	c #375324",
"K#	c #4D811F",
"L#	c #3A522D",
"M#	c #D90808",
"N#	c #E03333",
"O#	c #DE3737",
"P#	c #B71819",
"Q#	c #A81315",
"R#	c #C49492",
"S#	c #4B5643",
"T#	c #395625",
"U#	c #4E8320",
"V#	c #3B532D",
"W#	c #E13939",
"X#	c #DA0D0D",
"Y#	c #E13838",
"Z#	c #DB3333",
"`#	c #B11618",
" $	c #AB1F1F",
".$	c #CDAEAC",
"+$	c #4C5743",
"@$	c #3B5926",
"#$	c #4F8520",
"$$	c #3B542D",
"%$	c #C02021",
"&$	c #CF3334",
"*$	c #DB1414",
"=$	c #E13B3B",
"-$	c #D62D2D",
";$	c #AC1516",
">$	c #B02E2F",
",$	c #D6C5C2",
"'$	c #4D5844",
")$	c #3D5C27",
"!$	c #518621",
"~$	c #3C542E",
"{$	c #A70F11",
"]$	c #BD1F20",
"^$	c #DC1C1C",
"/$	c #D02727",
"($	c #A91214",
"_$	c #B74747",
":$	c #DED5D2",
"<$	c #B9BCB6",
"[$	c #E3E4E1",
"}$	c #4D5944",
"|$	c #3F5E29",
"1$	c #528822",
"2$	c #3C552E",
"3$	c #DE2424",
"4$	c #C82122",
"5$	c #A71012",
"6$	c #C16767",
"7$	c #E4E2DF",
"8$	c #C0C3BC",
"9$	c #D1D3CE",
"0$	c #E1E2DF",
"a$	c #E2E3E0",
"b$	c #7B7D7A",
"c$	c #4E5A45",
"d$	c #41612A",
"e$	c #538A23",
"f$	c #3D562F",
"g$	c #D80303",
"h$	c #DF2C2C",
"i$	c #E13A3A",
"j$	c #BF1C1D",
"k$	c #CE8B8A",
"l$	c #CCCEC9",
"m$	c #DADCD8",
"n$	c #E4E5E2",
"o$	c #D9DBD8",
"p$	c #ACAFAA",
"q$	c #6B6F69",
"r$	c #5B5D59",
"s$	c #4C5E3F",
"t$	c #43642B",
"u$	c #558C23",
"v$	c #3E572F",
"w$	c #E03232",
"x$	c #DE3838",
"y$	c #B81A1B",
"z$	c #D7A7A6",
"A$	c #D0D2CD",
"B$	c #E3E4E2",
"C$	c #E7E8E6",
"D$	c #D4D6D3",
"E$	c #A2A49F",
"F$	c #6F716B",
"G$	c #666962",
"H$	c #546548",
"I$	c #486632",
"J$	c #45672C",
"K$	c #568D24",
"L$	c #3E582F",
"M$	c #DA3535",
"N$	c #B11719",
"O$	c #AD2123",
"P$	c #DFC1C0",
"Q$	c #DADBD8",
"R$	c #E1E3E0",
"S$	c #EAEBE9",
"T$	c #E9EAE8",
"U$	c #CED0CC",
"V$	c #999C96",
"W$	c #777A74",
"X$	c #6D7468",
"Y$	c #566C47",
"Z$	c #496A31",
"`$	c #476A2E",
" %	c #578F25",
".%	c #3F592F",
"+%	c #D62F30",
"@%	c #AC1617",
"#%	c #B33334",
"$%	c #E6D6D4",
"%%	c #E5E5E2",
"&%	c #EAEAE9",
"*%	c #EFF0EE",
"=%	c #C9CBC7",
"-%	c #939790",
";%	c #6F7B66",
">%	c #567143",
",%	c #496D2F",
"'%	c #589126",
")%	c #405A30",
"!%	c #A91618",
"~%	c #BA4C4D",
"{%	c #EAE3E1",
"]%	c #EEEEED",
"^%	c #F1F2F0",
"/%	c #F3F3F2",
"(%	c #C4C6C2",
"_%	c #979A93",
":%	c #8C9088",
"<%	c #6E8063",
"[%	c #52733C",
"}%	c #4A7030",
"|%	c #599326",
"1%	c #405B30",
"2%	c #A01114",
"3%	c #BA6361",
"4%	c #EFEFED",
"5%	c #F3F3F1",
"6%	c #F7F7F6",
"7%	c #E7E8E5",
"8%	c #BFC2BC",
"9%	c #9DA19A",
"0%	c #91988B",
"a%	c #6C825D",
"b%	c #507437",
"c%	c #4C7231",
"d%	c #5A9427",
"e%	c #415B30",
"f%	c #8B161A",
"g%	c #874E45",
"h%	c #EFEFEE",
"i%	c #F4F4F3",
"j%	c #F8F8F7",
"k%	c #BBBFB7",
"l%	c #A9ACA5",
"m%	c #919D88",
"n%	c #688454",
"o%	c #507734",
"p%	c #4F7633",
"q%	c #5C9728",
"r%	c #415D31",
"s%	c #707D6B",
"t%	c #F2F2F0",
"u%	c #F8F8F8",
"v%	c #F5F5F4",
"w%	c #E1E2DE",
"x%	c #BCC1B9",
"y%	c #B2B6AE",
"z%	c #8B9C7E",
"A%	c #608049",
"B%	c #E9EAE6",
"C%	c #DDDFDA",
"D%	c #B7BEB2",
"E%	c #839973",
"F%	c #577C3E",
"G%	c #B3BEAB",
"H%	c #789365",
"I%	c #517836",
"J%	c #6D7B68",
"K%	c #A6B699",
"L%	c #6C8D55",
"M%	c #527E30",
"N%	c #3A4C35",
"O%	c #527E31",
"P%	c #292F30",
"Q%	c #2F3536",
"R%	c #303836",
"S%	c #2F3636",
"                                                                                                                                ",
"                                                                                                                                ",
"                                                                                                                                ",
"                                                                                                                                ",
"                                                                                                                                ",
"                                                                                                                                ",
"                                    . + @ # $ % & * = - ; > , ' ) ! ~ { ] ^ / ( _ : < [ [ [ [ [ [ } | | | 1                     ",
"                                    2 3 4 5 6 7 8 9 0 a b c d e f g h i j k l m n o p q q q q q q q q q r s                     ",
"                                    2 3 t t t t t u v w x y z A B C D E F G H H H I J q q q q q q q q q K L                     ",
"                                    2 3 t t t t t t M N O P Q R S T U V W X Y Y Z `  .q q q q q q q q q K L                     ",
"                                    ..3 t t t t t t M +.@.#.$.%.&.*.=.-.;.>.,.,.'.).!.~.~.~.~.~.~.{.{.{.].^.                    ",
"                                    ..3 t t t t t t M +.@./.(._.:.<.[.}.|.1.2.2.3.4.5.6.6.6.6.6.6.7.7.7.8.9.                    ",
"                                    0.3 t t t t t t M +.@./.(.a.b.c.d.e.f.g.h.h.i.j.k.l.l.l.l.l.l.m.m.m.n.o.                    ",
"                                    p.3 t t t t t t M +.@./.(.a.b.q.r.s.t.u.v.v.w.x.y.z.z.z.z.z.z.A.A.A.B.C.                    ",
"                                    p.3 t t t t t t M +.@./.(.a.b.q.r.s.D.E.F.F.G.H.I.J.J.J.J.J.J.J.J.J.K.L.                    ",
"                                    M.3 t t t t t t M +.@./.(.a.b.q.r.s.D.E.N.N.N O.P.Q.Q.Q.Q.Q.Q.Q.Q.Q.R.S.                    ",
"                                    T.3 t t t t t t M +.@./.(.a.b.q.r.s.D.E.N.N.N O.U.V.V.V.V.V.V.V.V.V.W.X.                    ",
"                                    T.3 t t t t t t M +.@./.(.a.b.q.r.s.D.E.N.N.N O.Y.Z.Z.Z.Z.Z.Z.Z.Z.Z.`. +                    ",
"                                  .+++3 t t t t t t M +.@./.(.a.b.q.r.s.D.E.N.N.N O.@+#+#+#+#+#+#+#+#+#+$+%+                    ",
"                                  &+*+=+t t t t t t M +.@./.(.a.b.q.r.s.D.E.N.N.N O.-+;+;+;+;+;+;+;+;+;+>+,+                    ",
"                                  '+)+!+~+t t t t t M +.@./.(.a.b.q.r.s.D.E.N.N.N O.{+]+]+]+]+]+]+]+]+]+^+/+                    ",
"                                  (+_+:+<+[+t t t t M +.@./.(.a.b.q.r.s.D.E.N.N.N O.}+|+|+|+|+|+|+|+|+|+1+2+                    ",
"                                  (+3+4+5+)+6+t t t M +.@./.(.a.b.q.r.s.D.E.N.N.N O.7+8+8+8+8+8+8+8+8+8+9+0+                    ",
"                                  (+a+b+b+c+)+d+e+t M +.@./.(.a.b.q.r.s.D.E.N.N.N O.f+g+g+g+g+g+g+g+g+g+h+i+                    ",
"                                  (+j+k+l+m+n+o+p+q+M +.@./.(.a.b.q.r.s.D.E.N.N.N O.r+s+s+s+s+s+s+s+s+s+t+u+                    ",
"                                  (+v+w+x+l+y+z+A+B+C++.@./.(.a.b.q.r.s.D.D+E+N.N O.F+G+G+G+G+G+G+G+G+G+H+I+                    ",
"                                  *+J+K+L+L+M+w+N+O+P+Q+@./.(.a.b.q.r.s.D.R+S+T+N O.U+V+V+V+V+V+V+V+V+V+W+X+                    ",
"      *+Y+Z+`+`+`+`+`+`+`+`+`+`+`+ @.@+@@@@@@@M+#@$@%@&@*@/.(.a.b.q.r.s.D.=@-@q N ;@>@,@,@,@,@,@,@,@,@,@'@)@                    ",
"      *+!@w+~@~@~@~@~@~@~@~@~@~@~@~@~@~@{@{@{@{@]@#@^@/@(@_@(.a.b.q.r.s.D.:@<@q N [@}@|@|@|@|@|@|@|@|@|@1@2@                    ",
"      *+!@3@4@4@4@4@4@4@4@4@4@4@4@4@4@4@5@5@5@5@5@6@7@8@9@0@a@a.b.q.r.s.b@c@d@T+N [@e@f@f@f@f@f@f@f@f@f@g@h@                    ",
"      *+!@i@]@]@]@]@]@]@]@]@]@]@]@]@]@]@]@]@]@]@]@]@j@#@k@l@m@n@b.q.r.s.b@o@E+N.N [@p@q@q@q@q@q@q@q@q@q@r@s@                    ",
"      *+t@u@v@w@w@w@w@w@w@w@w@w@w@w@w@w@w@w@w@w@w@w@w@x@y@z@A@B@C@q.r.s.D.E.N.N.N [@D@E@E@E@E@E@E@E@E@E@F@G@                    ",
"      *+H@I@J@K@L@M@M@M@M@M@M@M@M@M@M@M@M@M@M@M@M@M@M@M@N@O@P@Q@R@S@r.s.D.E.N.N.N [@T@U@U@U@U@U@U@U@U@U@V@W@                    ",
"      *+X@Y@Z@Z@Z@`@ #.#+#@#@#@#@#@#@#@#@#@#@#@#@#@###$#%#&#$#X@*#*+=#s.D.E.N.N.N [@-#;#;#;#;#;#;#;#;#;#>#W@                    ",
"      *+,#'#)#)#)#)#)#)#)#!#~#{#]#^#/#(#/#^#_#'#:#<#)#)#)#)#)#_#,#[#*+}#|#E.N.N.N [@1#2#2#2#2#2#2#2#2#2#3#4#                    ",
"      *+5#6#7#7#7#7#7#7#7#7#7#7#7#7#7#7#7#7#7#7#7#7#7#7#7#7#7#6#5#8#)+9#0#E.N.N.N [@a#b#b#b#b#b#b#b#b#b#c#d#                    ",
"      *+e#f#g#g#g#g#g#g#g#g#g#g#g#g#g#g#g#g#g#g#g#g#g#g#g#g#h#e#i#j#k#l#D.E.N.N.N [@m#n#n#n#n#n#n#n#n#n#o#p#                    ",
"      *+q#r#s#s#s#s#s#s#s#s#s#s#s#s#s#s#s#s#s#s#s#s#s#s#t#u#v#w#)+x#y#s.D.E.N.N.N [@z#A#A#A#A#A#A#A#A#A#B#C#                    ",
"      *+q#r#s#s#s#s#s#s#s#s#s#s#s#s#s#s#s#s#s#s#s#s#s#D#E#F#G#*+H#q.r.s.D.E.N.N.N [@I#J#J#J#J#J#J#J#J#J#K#L#                    ",
"      *+q#r#s#s#s#s#s#s#s#s#s#s#s#s#s#s#s#s#s#s#s#s#M#N#O#P#Q#R#b.q.r.s.D.E.N.N.N [@S#T#T#T#T#T#T#T#T#T#U#V#                    ",
"      *+q#q#W#W#W#W#W#W#W#W#W#W#W#W#q#q#s#s#s#s#s#X#Y#Z#`# $.$a.b.q.r.s.D.E.N.N.N [@+$@$@$@$@$@$@$@$@$@$#$$$                    ",
"      *+%$%$%$%$%$%$%$%$%$%$%$%$%$%$&$q#s#s#s#s#*$=$-$;$>$,$(.a.b.q.r.s.D.E.N.N.N [@'$)$)$)$)$)$)$)$)$)$!$~$                    ",
"                                  *+]$q#s#s#s#^$q#/$($_$:$/.(.a.b.q.r.s.D.E.N.<$[$[@}$|$|$|$|$|$|$|$|$|$1$2$                    ",
"                                  (+]$q#s#t#3$v#4$5$6$7$@./.(.a.b.q.r.s.D.8$9$0$a$b$c$d$d$d$d$d$d$d$d$d$e$f$                    ",
"                                  (+]$q#g$h$i$j$5$k$M +.@./.(.a.b.q.r.l$m$n$o$p$q$r$s$t$t$t$t$t$t$t$t$t$u$v$                    ",
"                                  (+]$q#w$x$y$!+z$t M +.@./.(.a.A$(.B$C$D$E$F$G$H$I$J$J$J$J$J$J$J$J$J$J$K$L$                    ",
"                                  (+]$q#M$N$O$P$t t M +.@./.Q$R$S$T$U$V$W$X$Y$Z$`$`$`$`$`$`$`$`$`$`$`$`$ %.%                    ",
"                                  (+]$+%@%#%$%t t t M +.%%&%*%&%=%-%R+;%>%,%,%,%,%,%,%,%,%,%,%,%,%,%,%,%'%)%                    ",
"                                  (+!%j#~%{%t t t t ]%^%/%T$(%_%:%<%[%}%}%}%}%}%}%}%}%}%}%}%}%}%}%}%}%}%|%1%                    ",
"                                  2%*+3%q+t t 4%5%6%6%7%8%9%0%a%b%c%c%c%c%c%c%c%c%c%c%c%c%c%c%c%c%c%c%c%d%e%                    ",
"                                  f%g%3 t h%i%j%6%+.k%l%m%n%o%p%p%p%p%p%p%p%p%p%p%p%p%p%p%p%p%p%p%p%p%p%q%r%                    ",
"                                    s%3 t%u%v%w%x%y%z%A%p%p%p%p%p%p%p%p%p%p%p%p%p%p%p%p%p%p%p%p%p%p%p%p%q%r%                    ",
"                                    s%3 B%C%6 D%E%F%p%p%p%p%p%p%p%p%p%p%p%p%p%p%p%p%p%p%p%p%p%p%p%p%p%p%q%r%                    ",
"                                    s%3 4 G%H%I%p%p%p%p%p%p%p%p%p%p%p%p%p%p%p%p%p%p%p%p%p%p%p%p%p%p%p%p%q%r%                    ",
"                                    J%K%L%M%M%M%M%M%M%M%M%M%M%M%M%M%M%M%M%M%M%M%M%M%M%M%M%M%M%M%M%M%M%M%q%r%                    ",
"                                    N%p%O%q%q%q%q%q%q%q%q%q%q%q%q%q%q%q%q%q%q%q%q%q%q%q%q%q%q%q%q%q%q%q%q%r%                    ",
"                                    1 1 Q%R%R%R%R%R%R%R%R%R%R%R%R%R%R%R%R%R%R%R%R%R%R%R%R%R%R%R%R%R%R%R%R%S%                    ",
"                                                                                                                                ",
"                                                                                                                                ",
"                                                                                                                                ",
"                                                                                                                                ",
"                                                                                                                                ",
"                                                                                                                                ",
"                                                                                                                                "};
