/* XPM */
const char * guImage_audio_volume_medium[] = {
/* columns rows colors chars-per-pixel */
"24 24 123 2",
"   c #2E3335",
".  c #313638",
"X  c #323638",
"o  c #34393A",
"O  c #353A3B",
"+  c #383D3D",
"@  c #3A3E3E",
"#  c #3A4040",
"$  c #3C4141",
"%  c #3D4141",
"&  c #3E4241",
"*  c #3F4443",
"=  c #414544",
"-  c #424545",
";  c #434746",
":  c #444947",
">  c #464B48",
",  c #484D4A",
"<  c #494E4B",
"1  c #4C504D",
"2  c #4D504E",
"3  c #4F534F",
"4  c #505450",
"5  c #515551",
"6  c #525752",
"7  c #555753",
"8  c #565853",
"9  c #555955",
"0  c #575B55",
"q  c #575C56",
"w  c #585A55",
"e  c #585D57",
"r  c #5A5E58",
"t  c #595D5B",
"y  c #5C605A",
"u  c #5D615B",
"i  c #5F635D",
"p  c #5F645C",
"a  c #626660",
"s  c #646765",
"d  c #656963",
"f  c #656A62",
"g  c #686C62",
"h  c #696D64",
"j  c #6E6F6F",
"k  c #6C7067",
"l  c #6D7168",
"z  c #6C7069",
"x  c #6F7268",
"c  c #6F7269",
"v  c #71756B",
"b  c #72766B",
"n  c #70756D",
"m  c #75786E",
"M  c #75796E",
"N  c #76786F",
"B  c #767A6E",
"V  c #767A6F",
"C  c #717571",
"Z  c #757970",
"A  c gray48",
"S  c #7F7F7F",
"D  c #7F807F",
"F  c #81847B",
"G  c #204B86",
"H  c #204A87",
"J  c #244E8C",
"K  c #254F8C",
"L  c #325D98",
"P  c #35619A",
"I  c #36619B",
"U  c #37629C",
"Y  c #38639C",
"T  c #4772A9",
"R  c #4873AA",
"E  c #5884B8",
"W  c #5986BA",
"Q  c #5B88BB",
"!  c #608CC0",
"~  c #6996C7",
"^  c #6A97C8",
"/  c gray52",
"(  c #909090",
")  c #969795",
"_  c #989B97",
"`  c gray60",
"'  c #9C9D9B",
"]  c #9D9E9B",
"[  c #9C9D9C",
"{  c #A3A59F",
"}  c #A7A9A6",
"|  c #A8A9A9",
" . c #ADB0AA",
".. c #AFB1AD",
"X. c gray70",
"o. c #B4B5B2",
"O. c #B4B4B4",
"+. c #B6B6B5",
"@. c #BBBDBA",
"#. c gray75",
"$. c #BEC1BB",
"%. c #C3C3C2",
"&. c #C7C7C6",
"*. c #CBCBCB",
"=. c #CDCDCD",
"-. c #CECECE",
";. c LightGray",
":. c #D3D4D2",
">. c #D5D5D3",
",. c #D6D7D6",
"<. c #D8D9D6",
"1. c #D9D9D8",
"2. c gray86",
"3. c #DEDEDD",
"4. c #E9E9E9",
"5. c #E9EAE9",
"6. c #EFEFEE",
"7. c #F0F1F0",
"8. c #F1F2F0",
"9. c #F8F8F8",
"0. c #FDFDFD",
"q. c #FEFEFE",
"w. c None",
/* pixels */
"w.w.w.w.w.w.w.w.w.w.w.w.w.w.w.w.w.w.w.w.w.w.w.w.",
"w.w.w.w.w.w.w.w.w.w.w.w.w.w.w.w.w.w.w.w.w.w.w.w.",
"w.w.w.w.w.w.w.w.w.w.w.w.w.w.w.w.w.w.w.w.w.w.w.w.",
"w.w.w.w.w.w.w.w.w.M F m w.w.w.w.w.w.w.w.w.w.w.w.",
"w.w.w.w.w.w.w.w.w.b %.v w.w.w.w.w.w.w.w.w.w.w.w.",
"w.w.w.w.w.w.w.w.w.x 7.c w.w.w.w.w.w.w.w.w.w.w.w.",
"w.w.w.w.w.w.w.w.Z l -.k w.w.w.w.w.w.w.w.w.w.w.w.",
"w.w.w.w.w.w.w.B { k ;.h w.w.w.w.w.J w.w.w.w.w.w.",
"w.w.w.V b N M  .4.n 1.f w.w.w.w.w.w.P w.w.w.w.w.",
"w.w.w.g &.g $.5.q.z 3.a w.w.w.H w.w.T w.w.w.w.w.",
"w.w.w.p 2.p 8.0.6.d ,.i C w.w.I Y w.w.E w.w.w.w.",
"w.w.w 0 9.r 9.<...u *.y t w.w.w.! w.w.~ w.w.w.w.",
"w.w.7 3 =.3 :.@.} e #.q $ w.w.w.Q w.w.^ w.w.w.w.",
"w.w.8 > X.> >.o.] 9 O.6 o w.w.L w.w.w.W w.w.w.w.",
"w.w.w.& ` & _ +.) 5 | 4 w.w.w.G w.w.R w.w.w.w.w.",
"w.w.w.O S O 1 D ' 2 [ 1 w.w.w.w.w.w.U w.w.w.w.w.",
"w.w.w.X   . w.; s < ( , w.w.w.w.w.K w.w.w.w.w.w.",
"w.w.w.w.w.w.w.w.# : / : w.w.w.w.H w.w.w.w.w.w.w.",
"w.w.w.w.w.w.w.w.w.* A = w.w.w.w.w.w.w.w.w.w.w.w.",
"w.w.w.w.w.w.w.w.w.% j & w.w.w.w.w.w.w.w.w.w.w.w.",
"w.w.w.w.w.w.w.w.w.+ - @ w.w.w.w.w.w.w.w.w.w.w.w.",
"w.w.w.w.w.w.w.w.w.w.w.w.w.w.w.w.w.w.w.w.w.w.w.w.",
"w.w.w.w.w.w.w.w.w.w.w.w.w.w.w.w.w.w.w.w.w.w.w.w.",
"w.w.w.w.w.w.w.w.w.w.w.w.w.w.w.w.w.w.w.w.w.w.w.w."
};
