/* XPM */
const char * guImage_audio_volume_muted[] = {
/* columns rows colors chars-per-pixel */
"24 24 115 2",
"   c #2E3335",
".  c #313638",
"X  c #323638",
"o  c #34393A",
"O  c #353A3B",
"+  c #383D3D",
"@  c #3A3E3E",
"#  c #3A4040",
"$  c #3C4141",
"%  c #3D4141",
"&  c #3E4241",
"*  c #3F4443",
"=  c #414544",
"-  c #424545",
";  c #434746",
":  c #444947",
">  c #464B48",
",  c #484D4A",
"<  c #494E4B",
"1  c #4C504D",
"2  c #4D504E",
"3  c #4F534F",
"4  c #505450",
"5  c #515551",
"6  c #525752",
"7  c #555753",
"8  c #565853",
"9  c #555955",
"0  c #575B55",
"q  c #575C56",
"w  c #585A55",
"e  c #585D57",
"r  c #5A5E58",
"t  c #595D5B",
"y  c #5C605A",
"u  c #5D615B",
"i  c #5F635D",
"p  c #5F645C",
"a  c #626660",
"s  c #646765",
"d  c #656963",
"f  c #656A62",
"g  c #686C62",
"h  c #696D64",
"j  c #6E6F6F",
"k  c #6C7067",
"l  c #6D7168",
"z  c #6C7069",
"x  c #6F7268",
"c  c #6F7269",
"v  c #71756B",
"b  c #72766B",
"n  c #70756D",
"m  c #75786E",
"M  c #75796E",
"N  c #76786F",
"B  c #767A6E",
"V  c #767A6F",
"C  c #717571",
"Z  c #757970",
"A  c gray48",
"S  c #7F7F7F",
"D  c #A40000",
"F  c #A70202",
"G  c #A80202",
"H  c #A90202",
"J  c #AA0202",
"K  c #DA1E1E",
"L  c #DB1E1E",
"P  c #EF2929",
"I  c #7F807F",
"U  c #81847B",
"Y  c gray52",
"T  c #909090",
"R  c #969795",
"E  c #989B97",
"W  c gray60",
"Q  c #9C9D9B",
"!  c #9D9E9B",
"~  c #9C9D9C",
"^  c #A3A59F",
"/  c #A7A9A6",
"(  c #A8A9A9",
")  c #ADB0AA",
"_  c #AFB1AD",
"`  c gray70",
"'  c #B4B5B2",
"]  c #B4B4B4",
"[  c #B6B6B5",
"{  c #BBBDBA",
"}  c gray75",
"|  c #BEC1BB",
" . c #C3C3C2",
".. c #C7C7C6",
"X. c #CBCBCB",
"o. c #CDCDCD",
"O. c #CECECE",
"+. c LightGray",
"@. c #D3D4D2",
"#. c #D5D5D3",
"$. c #D6D7D6",
"%. c #D8D9D6",
"&. c #D9D9D8",
"*. c gray86",
"=. c #DEDEDD",
"-. c #E9E9E9",
";. c #E9EAE9",
":. c #EFEFEE",
">. c #F0F1F0",
",. c #F1F2F0",
"<. c #F8F8F8",
"1. c #FDFDFD",
"2. c #FEFEFE",
"3. c gray100",
"4. c None",
/* pixels */
"4.4.4.4.4.4.4.4.4.4.4.4.4.4.4.4.4.4.4.4.4.4.4.4.",
"4.4.4.4.4.4.4.4.4.4.4.4.4.4.4.4.4.4.4.4.4.4.4.4.",
"4.4.4.4.4.4.4.4.4.4.4.4.4.4.4.4.4.4.4.4.4.4.4.4.",
"4.4.4.4.4.4.4.4.4.M U m 4.4.4.4.4.4.4.4.4.4.4.4.",
"4.4.4.4.4.4.4.4.4.b  .v 4.4.4.4.4.4.4.4.4.4.4.4.",
"4.4.4.4.4.4.4.4.4.x >.c 4.4.4.4.4.4.4.4.4.4.4.4.",
"4.4.4.4.4.4.4.4.Z l O.k 4.4.4.4.4.4.4.4.4.4.4.4.",
"4.4.4.4.4.4.4.B ^ k +.h 4.4.4.4.4.4.4.4.4.4.4.4.",
"4.4.4.V b N M ) -.n &.f 4.4.4.F D D D D D F 4.4.",
"4.4.4.g ..g | ;.2.z =.a 4.4.G L P P P P P L J 4.",
"4.4.4.p *.p ,.1.:.d $.i C 4.D P 3.3.P 3.3.P D 4.",
"4.4.w 0 <.r <.%._ u X.y t 4.D P 3.3.3.3.3.P D 4.",
"4.4.7 3 o.3 @.{ / e } q $ 4.D P P 3.3.3.P P D 4.",
"4.4.8 > ` > #.' ! 9 ] 6 o 4.D P 3.3.3.3.3.P D 4.",
"4.4.4.& W & E [ R 5 ( 4 4.4.D P 3.3.P 3.3.P D 4.",
"4.4.4.O S O 1 I Q 2 ~ 1 4.4.J L P P P P P K H 4.",
"4.4.4.X   . 4.; s < T , 4.4.4.F D D D D D G 4.4.",
"4.4.4.4.4.4.4.4.# : Y : 4.4.4.4.4.4.4.4.4.4.4.4.",
"4.4.4.4.4.4.4.4.4.* A = 4.4.4.4.4.4.4.4.4.4.4.4.",
"4.4.4.4.4.4.4.4.4.% j & 4.4.4.4.4.4.4.4.4.4.4.4.",
"4.4.4.4.4.4.4.4.4.+ - @ 4.4.4.4.4.4.4.4.4.4.4.4.",
"4.4.4.4.4.4.4.4.4.4.4.4.4.4.4.4.4.4.4.4.4.4.4.4.",
"4.4.4.4.4.4.4.4.4.4.4.4.4.4.4.4.4.4.4.4.4.4.4.4.",
"4.4.4.4.4.4.4.4.4.4.4.4.4.4.4.4.4.4.4.4.4.4.4.4."
};
