/* XPM */
const char * guImage_audio_volume_low[] = {
/* columns rows colors chars-per-pixel */
"24 24 113 2",
"   c #2E3335",
".  c #313638",
"X  c #323638",
"o  c #34393A",
"O  c #353A3B",
"+  c #383D3D",
"@  c #3A3E3E",
"#  c #3A4040",
"$  c #3C4141",
"%  c #3D4141",
"&  c #3E4241",
"*  c #3F4443",
"=  c #414544",
"-  c #424545",
";  c #434746",
":  c #444947",
">  c #464B48",
",  c #484D4A",
"<  c #494E4B",
"1  c #4C504D",
"2  c #4D504E",
"3  c #4F534F",
"4  c #505450",
"5  c #515551",
"6  c #525752",
"7  c #555753",
"8  c #565853",
"9  c #555955",
"0  c #575B55",
"q  c #575C56",
"w  c #585A55",
"e  c #585D57",
"r  c #5A5E58",
"t  c #595D5B",
"y  c #5C605A",
"u  c #5D615B",
"i  c #5F635D",
"p  c #5F645C",
"a  c #626660",
"s  c #646765",
"d  c #656963",
"f  c #656A62",
"g  c #686C62",
"h  c #696D64",
"j  c #6E6F6F",
"k  c #6C7067",
"l  c #6D7168",
"z  c #6C7069",
"x  c #6F7268",
"c  c #6F7269",
"v  c #71756B",
"b  c #72766B",
"n  c #70756D",
"m  c #75786E",
"M  c #75796E",
"N  c #76786F",
"B  c #767A6E",
"V  c #767A6F",
"C  c #717571",
"Z  c #757970",
"A  c gray48",
"S  c #7F7F7F",
"D  c #7F807F",
"F  c #81847B",
"G  c #204B86",
"H  c #204A87",
"J  c #325D98",
"K  c #36619B",
"L  c #38639C",
"P  c #5B88BB",
"I  c #608CC0",
"U  c gray52",
"Y  c #909090",
"T  c #969795",
"R  c #989B97",
"E  c gray60",
"W  c #9C9D9B",
"Q  c #9D9E9B",
"!  c #9C9D9C",
"~  c #A3A59F",
"^  c #A7A9A6",
"/  c #A8A9A9",
"(  c #ADB0AA",
")  c #AFB1AD",
"_  c gray70",
"`  c #B4B5B2",
"'  c #B4B4B4",
"]  c #B6B6B5",
"[  c #BBBDBA",
"{  c gray75",
"}  c #BEC1BB",
"|  c #C3C3C2",
" . c #C7C7C6",
".. c #CBCBCB",
"X. c #CDCDCD",
"o. c #CECECE",
"O. c LightGray",
"+. c #D3D4D2",
"@. c #D5D5D3",
"#. c #D6D7D6",
"$. c #D8D9D6",
"%. c #D9D9D8",
"&. c gray86",
"*. c #DEDEDD",
"=. c #E9E9E9",
"-. c #E9EAE9",
";. c #EFEFEE",
":. c #F0F1F0",
">. c #F1F2F0",
",. c #F8F8F8",
"<. c #FDFDFD",
"1. c #FEFEFE",
"2. c None",
/* pixels */
"2.2.2.2.2.2.2.2.2.2.2.2.2.2.2.2.2.2.2.2.2.2.2.2.",
"2.2.2.2.2.2.2.2.2.2.2.2.2.2.2.2.2.2.2.2.2.2.2.2.",
"2.2.2.2.2.2.2.2.2.2.2.2.2.2.2.2.2.2.2.2.2.2.2.2.",
"2.2.2.2.2.2.2.2.2.M F m 2.2.2.2.2.2.2.2.2.2.2.2.",
"2.2.2.2.2.2.2.2.2.b | v 2.2.2.2.2.2.2.2.2.2.2.2.",
"2.2.2.2.2.2.2.2.2.x :.c 2.2.2.2.2.2.2.2.2.2.2.2.",
"2.2.2.2.2.2.2.2.Z l o.k 2.2.2.2.2.2.2.2.2.2.2.2.",
"2.2.2.2.2.2.2.B ~ k O.h 2.2.2.2.2.2.2.2.2.2.2.2.",
"2.2.2.V b N M ( =.n %.f 2.2.2.2.2.2.2.2.2.2.2.2.",
"2.2.2.g  .g } -.1.z *.a 2.2.2.H 2.2.2.2.2.2.2.2.",
"2.2.2.p &.p >.<.;.d #.i C 2.2.K L 2.2.2.2.2.2.2.",
"2.2.w 0 ,.r ,.$.) u ..y t 2.2.2.I 2.2.2.2.2.2.2.",
"2.2.7 3 X.3 +.[ ^ e { q $ 2.2.2.P 2.2.2.2.2.2.2.",
"2.2.8 > _ > @.` Q 9 ' 6 o 2.2.J 2.2.2.2.2.2.2.2.",
"2.2.2.& E & R ] T 5 / 4 2.2.2.G 2.2.2.2.2.2.2.2.",
"2.2.2.O S O 1 D W 2 ! 1 2.2.2.2.2.2.2.2.2.2.2.2.",
"2.2.2.X   . 2.; s < Y , 2.2.2.2.2.2.2.2.2.2.2.2.",
"2.2.2.2.2.2.2.2.# : U : 2.2.2.2.2.2.2.2.2.2.2.2.",
"2.2.2.2.2.2.2.2.2.* A = 2.2.2.2.2.2.2.2.2.2.2.2.",
"2.2.2.2.2.2.2.2.2.% j & 2.2.2.2.2.2.2.2.2.2.2.2.",
"2.2.2.2.2.2.2.2.2.+ - @ 2.2.2.2.2.2.2.2.2.2.2.2.",
"2.2.2.2.2.2.2.2.2.2.2.2.2.2.2.2.2.2.2.2.2.2.2.2.",
"2.2.2.2.2.2.2.2.2.2.2.2.2.2.2.2.2.2.2.2.2.2.2.2.",
"2.2.2.2.2.2.2.2.2.2.2.2.2.2.2.2.2.2.2.2.2.2.2.2."
};
