/* XPM */
const char * guImage_edit_delete[] = {
/* columns rows colors chars-per-pixel */
"24 24 191 2",
"   c #1C1D1B",
".  c #262725",
"X  c #222728",
"o  c #232829",
"O  c #262B2D",
"+  c #282E2F",
"@  c #2A3032",
"#  c #2B3032",
"$  c #2B3133",
"%  c #2D3234",
"&  c #2D3335",
"*  c #2E3436",
"=  c #343533",
"-  c #313637",
";  c #373836",
":  c #353839",
">  c #3A3B39",
",  c #3B3C3A",
"<  c #3A3D3B",
"1  c #3C3D3B",
"2  c #3D3E3C",
"3  c #3E3F3D",
"4  c #3F403E",
"5  c #40413F",
"6  c #3E4344",
"7  c #414240",
"8  c #434442",
"9  c #444543",
"0  c #434544",
"q  c #474A49",
"w  c #494A48",
"e  c #4A4B48",
"r  c #4B4C4A",
"t  c #4C4D4B",
"y  c #4D4F4B",
"u  c #4A4D4D",
"i  c #484E4F",
"p  c #51534F",
"a  c #4D5151",
"s  c #4F5251",
"d  c #515657",
"f  c #565755",
"g  c #545757",
"h  c #565854",
"j  c #595B57",
"k  c #535858",
"l  c #5B5C59",
"z  c #5E605C",
"x  c #5F605E",
"c  c #5E6160",
"v  c #616260",
"b  c #656763",
"n  c #606465",
"m  c #666764",
"M  c #666865",
"N  c #676965",
"B  c #686966",
"V  c #686A66",
"C  c #676A69",
"Z  c #6B6D69",
"A  c #6B6C6A",
"S  c #6E706C",
"D  c #6C706E",
"F  c #6D706E",
"G  c #70726E",
"H  c #707170",
"J  c #737571",
"K  c #747573",
"L  c #757773",
"P  c #767874",
"I  c #777975",
"U  c #777876",
"Y  c #787A76",
"T  c #7A7C78",
"R  c #7B7C7A",
"E  c #7D7F7B",
"W  c #7C7F7F",
"Q  c #7E807C",
"!  c #7F807E",
"~  c #80817F",
"^  c #80827E",
"/  c #818380",
"(  c #828380",
")  c #828381",
"_  c #828482",
"`  c #848582",
"'  c #858683",
"]  c #858783",
"[  c #858784",
"{  c #868784",
"}  c #878986",
"|  c #888986",
" . c #898A88",
".. c #8A8B88",
"X. c #8A8C88",
"o. c #8B8C8B",
"O. c #8D8E8B",
"+. c #8D8F8B",
"@. c #8D8E8C",
"#. c #8E908C",
"$. c #8E908D",
"%. c #8F918D",
"&. c #90918E",
"*. c #90928E",
"=. c #91928F",
"-. c #929490",
";. c #949692",
":. c #959793",
">. c #959794",
",. c #989996",
"<. c #999A98",
"1. c #9A9C99",
"2. c #9B9D99",
"3. c #9A9C9A",
"4. c #9C9E9A",
"5. c #9D9F9B",
"6. c #9EA09D",
"7. c #9FA19D",
"8. c #9FA09F",
"9. c #A0A29E",
"0. c #A1A3A3",
"q. c #A3A5A1",
"w. c #A3A4A2",
"e. c #A4A6A2",
"r. c #A2A4A6",
"t. c #A4A7A5",
"y. c #A7A9A5",
"u. c #A8AAA6",
"i. c #A8AAA7",
"p. c #A9ABA7",
"a. c #AAACA8",
"s. c #ABADA9",
"d. c #ADAFAB",
"f. c #AEAFAC",
"g. c #AEB0AD",
"h. c #AFB1AF",
"j. c #B1B2AF",
"k. c #B1B2B1",
"l. c #B3B5B1",
"z. c #B3B4B2",
"x. c #B4B6B3",
"c. c #B6B7B4",
"v. c #B7B8B6",
"b. c #B9BAB7",
"n. c #B9BAB8",
"m. c #BABCB9",
"M. c #BBBCBA",
"N. c #BCBDBB",
"B. c #BDBEBC",
"V. c #BFC0BE",
"C. c #C0C1BF",
"Z. c #C1C2BF",
"A. c #C1C2C0",
"S. c #C3C4C2",
"D. c #C5C6C4",
"F. c #C7C8C6",
"G. c #C8C9C7",
"H. c #C8C9C8",
"J. c #C8CAC8",
"K. c #CACBC9",
"L. c #CBCCCA",
"P. c #CCCCCB",
"I. c #CDCECC",
"U. c #CECFCD",
"Y. c #CFCFCE",
"T. c #D4D5D3",
"R. c #D6D7D5",
"E. c #D5D6D6",
"W. c #D7D7D6",
"Q. c #D7D8D5",
"!. c #D8D8D7",
"~. c #D8D9D7",
"^. c #DADBD9",
"/. c #DDDEDD",
"(. c #DFDFDD",
"). c #DFE0DE",
"_. c #E1E1E0",
"`. c #E1E2E0",
"'. c #E2E3E2",
"]. c gray89",
"[. c #E3E5E3",
"{. c gray91",
"}. c #E8E9E8",
"|. c #E9E9E9",
" X c #EBECEB",
".X c #EDEDEC",
"XX c gray94",
"oX c #F4F4F4",
"OX c #F8F8F8",
"+X c #F9F9F9",
"@X c None",
/* pixels */
"@X@X@X@X@X@X@X@X@X@X@X@X@X@X@X@X@X@X@X@X@X@X@X@X",
"@X@X@X@X@X@X@X@X@X@X* * * * @X@X@X@X@X@X@X@X@X@X",
"@X@X@X@X@X@X@X@X* * P S.*.w * * @X@X@X@X@X@X@X@X",
"@X@X@X@X@X* * * * [.`.XX{.M.p t * * * @X@X@X@X@X",
"@X@X@X@X* k.H.Q.J.].I 4 Z C.p.b y.2.] * @X@X@X@X",
"@X@X@X* Z.W.D.L.p.%.9 .   y 9.#.n.e.j.6.* @X@X@X",
"@X@X@X* '.A.I.~.F.p.+.8 z S Y z.u.p.Y.f.* @X@X@X",
"@X@X@X*  XoXR.T.).K.U.d.q.:.s.m.K.P.g.4.* @X@X@X",
"@X@X@X* r.!.OX+XoX.X|. X}.(._.I.t.3._ O.* @X@X@X",
"@X@X@X@Xn /.^.c.F.G.D.b.l.l.i.-.[  .A - < @X@X@X",
"@X@X@X@X* a 0.E.V.M.h.J.8.o.<.$.! a 0 : @X@X@X@X",
"@X@X@X@X* =.e 3 a d d d d a u q 8 = s * @X@X@X@X",
"@X@X@X@X* >.h Q M ( m l , j ` > v 5 ) * @X@X@X@X",
"@X@X@X@X* 1.j X.E y.P P 2 V ..; x 7 ` * @X@X@X@X",
"@X@X@X@X* 1.h e.^ v.7.^ 2 G @.1 J r K * @X@X@X@X",
"@X@X@X@X* 1.h 5.^ B.a.#.y L &.2 J r U * @X@X@X@X",
"@X@X@X@X* 1.h ;.^ N.a.;.y T &.2 / r H * @X@X@X@X",
"@X@X@X@X* >.h 4.^ N.a.;.y T &.2 J f F * @X@X@X@X",
"@X@X@X@X* w.h 4.E N.a.;.y T ' 2 J B g * @X@X@X@X",
"@X@X@X@Xo 6 { ,.>.x.2.;.y T N R ' c * O @X@X@X@X",
"@X@X@X@X@XX # k W | { } ~ ! D C i $ O @X@X@X@X@X",
"@X@X@X@X@X@X@X+ $ & * * * * & % @ @X@X@X@X@X@X@X",
"@X@X@X@X@X@X@X@X@X@X@X@X@X@X@X@X@X@X@X@X@X@X@X@X",
"@X@X@X@X@X@X@X@X@X@X@X@X@X@X@X@X@X@X@X@X@X@X@X@X"
};
