/* XPM */
const char * guImage_go_down[] = {
/* columns rows colors chars-per-pixel */
"16 16 59 1",
"  c #204A87",
". c #204B88",
"X c #214B88",
"o c #234C88",
"O c #244D89",
"+ c #254E89",
"@ c #29528D",
"# c #2D5792",
"$ c #305B95",
"% c #325D99",
"& c #345E98",
"* c #36629B",
"= c #39659E",
"- c #3465A4",
"; c #3566A4",
": c #3E69A3",
"> c #3F70AB",
", c #3F70AC",
"< c #4069A0",
"1 c #406AA1",
"2 c #406AA3",
"3 c #406BA3",
"4 c #406FAC",
"5 c #4070AC",
"6 c #4071AC",
"7 c #4070AD",
"8 c #4171AD",
"9 c #4672AC",
"0 c #4773AC",
"q c #4B77AE",
"w c #4979B3",
"e c #4A7AB3",
"r c #4B7AB3",
"t c #4E7AB1",
"y c #4D7BB4",
"u c #507AB0",
"i c #5581B6",
"p c #5B83B5",
"a c #5D84B6",
"s c #5E85B6",
"d c #5683B8",
"f c #5984B8",
"g c #5B86B9",
"h c #6389B9",
"j c #6088BB",
"k c #628CBE",
"l c #658DBE",
"z c #688CBB",
"x c #6C8FBD",
"c c #7193BF",
"v c #678FC0",
"b c #6B91C1",
"n c #6E94C2",
"m c #7196C4",
"M c #7498C5",
"N c #769BC7",
"B c #7A9AC3",
"V c #789BC5",
"C c None",
/* pixels */
"CCCCCCCCCCCCCCCC",
"CCCC       CCCCC",
"CCCC MNVBB+CCCCC",
"CCCC me4-cOCCCCC",
"CCCC ne5-xOCCCCC",
"CCCC be>-zoCCCCC",
"CCCC ve,-hoCCCCC",
"C   +lw,-s@    C",
"C.#jkdw7-9pa<.CC",
"CCX$gyw5-;u1.CCC",
"CCCX&fr6-q3.CCCC",
"CCCCX*i802.CCCCC",
"CCCCC.=t:.CCCCCC",
"CCCCCC.%.CCCCCCC",
"CCCCCCC CCCCCCCC",
"CCCCCCCCCCCCCCCC"
};
