/* XPM */
const char *guImage_lastfm_off[] = {
/* columns rows colors chars-per-pixel */
"80 20 2 1",
"  c gray40",
". c None",
/* pixels */
"   ....................................................     ....................",
"   ...................................................       ...................",
"   ..................................................       ....................",
"   .................................   ..............   ........................",
"   ................................    ..............   ........................",
"   ................................    ..............   ........................",
"   .......       .......      ....        .........        ..  ...    ....    ..",
"   ......         .....        ..          ........        ..   .      .       .",
"   .....    ...    ...    ..    ..        .........        ..                   ",
"   ....    .....    ..   ....   ...    ..............   .....    ...     ...    ",
"   ....   .......   ..   ..........    ..............   .....   .....   .....   ",
"   ....   .......   ..     ........    ..............   .....   .....   .....   ",
"   ....   ........   ..       .....    ..............   .....   .....   .....   ",
"   ....   ........   ....      ....    ..............   .....   .....   .....   ",
"   ....   ........    ......    ...    ..............   .....   .....   .....   ",
"   ....   .........   .......   ...    ..............   .....   .....   .....   ",
"   ....    ..... ..    ......   ...    .......   ....   .....   .....   .....   ",
"     ...     .    ..     ..     ....       ..    ....   .....   .....   .....   ",
".    ....         ...          .....       ...   ....   .....   .....   .....   ",
"..   .....      .......      ........     ..... .....   .....   .....   .....   "
};
