/* XPM */
const char * guImage_lastfm_as_on[] = {
/* columns rows colors chars-per-pixel */
"16 16 133 2",
"   c #A50302",
".  c #A90604",
"X  c #AB0B07",
"o  c #AC0B07",
"O  c #AD0B07",
"+  c #AE0B07",
"@  c #A50F09",
"#  c #A70F09",
"$  c #AA0F09",
"%  c #AD0F0A",
"&  c #AE0F0A",
"*  c #A6170F",
"=  c #AE140C",
"-  c #B2100A",
";  c #B3100A",
":  c #B4100A",
">  c #B5140D",
",  c #B9150D",
"<  c #A71C17",
"1  c #B61910",
"2  c #B11C12",
"3  c #B61D12",
"4  c #BA1910",
"5  c #BC1E13",
"6  c #BE1E13",
"7  c #A8211A",
"8  c #A8221D",
"9  c #AC241D",
"0  c #B92216",
"q  c #B0271C",
"w  c #BB2519",
"e  c #BA2618",
"r  c #AD332F",
"t  c #AB342D",
"y  c #BD3425",
"u  c #BD382B",
"i  c #BB3A2E",
"p  c #AF3B37",
"a  c #A93D38",
"s  c #AF3E3A",
"d  c #B03A33",
"f  c #B73B33",
"g  c #B33A34",
"h  c #B13D35",
"j  c #B13E3A",
"k  c #C21F14",
"l  c #C12416",
"z  c #CA2518",
"x  c #CC2618",
"c  c #CD2618",
"v  c #C8291A",
"b  c #CA2A1B",
"n  c #CB2A1B",
"m  c #CE2B1B",
"M  c #D22B1C",
"N  c #D7311E",
"B  c #C1372C",
"V  c #D33723",
"C  c #D53521",
"Z  c #D63521",
"A  c #DE3722",
"S  c #D63823",
"D  c #DE3A24",
"F  c #C03E30",
"G  c #E03823",
"H  c #E13B25",
"J  c #E23B25",
"K  c #E63D26",
"L  c #E73D26",
"P  c #E83D26",
"I  c #B44137",
"U  c #B5413C",
"Y  c #B94539",
"T  c #D34937",
"R  c #D04F3F",
"E  c #D24F3F",
"W  c #EB4129",
"Q  c #EC4129",
"!  c #ED4229",
"~  c #EE4229",
"^  c #F3462C",
"/  c #F74A2E",
"(  c #FA4D30",
")  c #BA5550",
"_  c #C35447",
"`  c #C55548",
"'  c #CD5A4E",
"]  c #D45241",
"[  c #D45543",
"{  c #D45746",
"}  c #D05D4E",
"|  c #C55F56",
" . c #C0605B",
".. c #C57068",
"X. c #CB8079",
"o. c #D88075",
"O. c #DC8379",
"+. c #CA8580",
"@. c #CF8F8C",
"#. c #D69994",
"$. c #D79A96",
"%. c #D59E9A",
"&. c #DA9F9A",
"*. c #D5A4A1",
"=. c #D9A6A2",
"-. c #DAAAA7",
";. c #DFB1AC",
":. c #E1B1AB",
">. c #E0B0AC",
",. c #E0B5B1",
"<. c #E3BAB6",
"1. c #E7CAC7",
"2. c #E8CDCC",
"3. c #EDD5D4",
"4. c #EED7D5",
"5. c #F2DCD9",
"6. c #F1DEDC",
"7. c #F1E0DF",
"8. c #F4E1DF",
"9. c #F2E3E2",
"0. c #F5E4E2",
"q. c #F6E6E4",
"w. c #F4E7E6",
"e. c #F6EAE9",
"r. c #F8EDEC",
"t. c #F8EFEE",
"y. c #FBF5F4",
"u. c #FBF7F6",
"i. c #FBF7F7",
"p. c #FCF9F9",
"a. c #FEFCFC",
"s. c gray100",
"d. c None",
/* pixels */
"d.( ( ( ( ( ( ( ( ( ( ( ( ( ( d.",
"/ / / / / / / / / / / / / / / / ",
"^ ^ ^ ^ ^ ^ ^ ^ ^ ^ ^ ^ ^ ^ ^ ^ ",
"~ ~ ~ ! Q Q ! ~ ~ ~ ! W W ! ~ ~ ",
"P K D V ] T S H K J S { [ S J L ",
"G Z o.y.s.s.5.} C R 8.s.s.0.E A ",
"N ' s.<.F ` 6.r.y :.e.Y _ q.O.N ",
"b &.a.u m n | s.X.;.i...i e v M ",
"l ,.t.0 c x w w.1.I 4.s.s.>.B z ",
"5 =.s.q k k 3 %.a.h 2 f +.s.#.6 ",
"4  .s.*.7 g $.t u.2.d * a p.-.1 ",
", = @.a.s.s.3.9 ) 7.s.s.s.9.U > ",
": - $ < j 8 # & % @ r s p @ & ; ",
"+ + + O X O + + + O o X X O + + ",
". . . . . . . . . . . . . . . . ",
"d.                            d."
};
