/* XPM */
const char * guImage_lastfm_as_off[] = {
/* columns rows colors chars-per-pixel */
"18 18 81 1",
"  c gray53",
". c #888888",
"X c #898989",
"o c #8B8B8B",
"O c gray55",
"+ c #8D8D8D",
"@ c #8E8E8E",
"# c gray56",
"$ c #909090",
"% c gray57",
"& c #929292",
"* c #939393",
"= c gray58",
"- c #959595",
"; c gray59",
": c #979797",
"> c #989898",
", c gray60",
"< c #9A9A9A",
"1 c #9B9B9B",
"2 c gray61",
"3 c #9D9D9D",
"4 c gray62",
"5 c #A0A0A0",
"6 c gray63",
"7 c gray64",
"8 c #A4A4A4",
"9 c #A5A5A5",
"0 c gray65",
"q c #A7A7A7",
"w c #A9A9A9",
"e c #AAAAAA",
"r c gray67",
"t c #ACACAC",
"y c gray68",
"u c #AEAEAE",
"i c gray69",
"p c #B1B1B1",
"a c #B2B2B2",
"s c gray70",
"d c gray71",
"f c #B6B6B6",
"g c gray72",
"h c gray73",
"j c #BBBBBB",
"k c gray74",
"l c gray",
"z c gray75",
"x c #C1C1C1",
"c c gray76",
"v c #C3C3C3",
"b c #C5C5C5",
"n c #C6C6C6",
"m c #C8C8C8",
"M c gray79",
"N c #CACACA",
"B c #CBCBCB",
"V c gray80",
"C c #CECECE",
"Z c #D0D0D0",
"A c gray83",
"S c #D5D5D5",
"D c gray84",
"F c gray85",
"G c gray88",
"H c #E2E2E2",
"J c gray91",
"K c #E9E9E9",
"L c #ECECEC",
"P c gray93",
"I c #EFEFEF",
"U c #F1F1F1",
"Y c gray95",
"T c #F3F3F3",
"R c gray96",
"E c #F6F6F6",
"W c gray98",
"Q c gray99",
"! c #FDFDFD",
"~ c gray100",
"^ c None",
/* pixels */
"^^^^^^^^^^^^^^^^^^",
"^^MMMMMMMMMMMMMM^^",
"^nnnnnnnnnnnnnnnn^",
"^vvvvvvvvvvvvvvvv^",
"^zzzllllzzzlkklzz^",
"^jhseautdhftsatfh^",
"^dtxW~~PsruI~~Uis^",
"^yi~F5wLR1ST2qYby^",
"^7V!3q8y~gAWp2;6e^",
"^3DE;00>UG,K~~A68^",
"^,C~%44=M!>$1h~m<^",
"^>t~BO,N&WH:.&QZ-^",
"^:@c!~~J$9P~~~I4=^",
"^*%oo<OX@+ =,, @&^",
"^###@+@###@+O+@##^",
"^oooooooooooooooo^",
"^^              ^^",
"^^^^^^^^^^^^^^^^^^"
};
