/* XPM */
const char * guImage_media_playback_pause[] = {
/* columns rows colors chars-per-pixel */
"24 24 46 1",
"  c #555753",
". c #92948F",
"X c #969893",
"o c #979994",
"O c #A2A4A0",
"+ c #A3A5A0",
"@ c #AFB0AC",
"# c #AFB1AD",
"$ c #BABCB9",
"% c #BBBDB9",
"& c #C7C8C5",
"* c #C7C9C6",
"= c #D3D4D2",
"- c #D3D5D2",
"; c #D6D7D5",
": c #D7D8D6",
"> c #D8D9D7",
", c #D9D9D7",
"< c #D9DAD9",
"1 c #DADBD9",
"2 c #DBDBDA",
"3 c #DBDCDA",
"4 c #DCDCDB",
"5 c #DCDDDB",
"6 c #DDDEDC",
"7 c #DEDFDD",
"8 c #E1E2E1",
"9 c #E2E2E1",
"0 c #E2E3E1",
"q c #E3E4E2",
"w c #E4E5E4",
"e c #E5E6E4",
"r c #E7E8E6",
"t c #E8E8E7",
"y c #E9EAE8",
"u c #EAEAE9",
"i c #EAEBEA",
"p c #EBEBEA",
"a c #EBECEA",
"s c #EBECEB",
"d c #ECECEB",
"f c #ECEDEC",
"g c #EDEDEC",
"h c #EDEEED",
"j c #EEEFEE",
"k c None",
/* pixels */
"kkkkkkkkkkkkkkkkkkkkkkkk",
"kkkkkkkkkkkkkkkkkkkkkkkk",
"kkkkkkkkkkkkkkkkkkkkkkkk",
"kkkkkkkkkkkkkkkkkkkkkkkk",
"kkkkkkkkkkkkkkkkkkkkkkkk",
"kkkkkkkkkkkkkkkkkkkkkkkk",
"kkkkkk     kk     kkkkkk",
"kkkkkk 776 kk ,:; kkkkkk",
"kkkkkk 5.1 kk ;X; kkkkkk",
"kkkkkk 1o< kk >O> kkkkkk",
"kkkkkk 5+4 kk 2@3 kkkkkk",
"kkkkkk 7#7 kk 7$7 kkkkkk",
"kkkkkk 9%8 kk 0&q kkkkkk",
"kkkkkk w*e kk r=t kkkkkk",
"kkkkkk y-u kk f7f kkkkkk",
"kkkkkk j7h kk d7s kkkkkk",
"kkkkkk hgf kk api kkkkkk",
"kkkkkk     kk     kkkkkk",
"kkkkkkkkkkkkkkkkkkkkkkkk",
"kkkkkkkkkkkkkkkkkkkkkkkk",
"kkkkkkkkkkkkkkkkkkkkkkkk",
"kkkkkkkkkkkkkkkkkkkkkkkk",
"kkkkkkkkkkkkkkkkkkkkkkkk",
"kkkkkkkkkkkkkkkkkkkkkkkk"
};
