/* XPM */
const char * guImage_media_skip_forward[] = {
/* columns rows colors chars-per-pixel */
"24 24 71 1",
"  c #41413F",
". c #464744",
"X c #4A4A47",
"o c #4A4C48",
"O c #4C4E4B",
"+ c #505250",
"@ c #555753",
"# c #565754",
"$ c #5D5E5B",
"% c #5F5F5B",
"& c #60605E",
"* c #61615F",
"= c #656764",
"- c #696B69",
"; c #6A6B68",
": c #6C6D6B",
"> c #7D7E7D",
", c #80807E",
"< c #868885",
"1 c #9B9D98",
"2 c #9B9D9B",
"3 c #9C9E99",
"4 c #A0A09F",
"5 c #A8AAA6",
"6 c #AAABA7",
"7 c #AFB0AE",
"8 c #B4B5B2",
"9 c #B5B6B3",
"0 c #BCBDBA",
"q c #BEBFBC",
"w c #C5C6C3",
"e c #C7C8C6",
"r c #C8C9C6",
"t c #C8C8C7",
"y c #C9CAC7",
"u c #C8C8C8",
"i c #CACAC9",
"p c #CBCCC9",
"a c #D0D1CE",
"s c #D0D2CF",
"d c #D2D3D1",
"f c #D3D4D2",
"g c #D3D5D2",
"h c #D4D5D3",
"j c #D6D7D5",
"k c #D7D7D6",
"l c #DBDCDA",
"z c #DCDDDB",
"x c #DCDDDC",
"c c #DDDEDC",
"v c #DEDFDD",
"b c #DFE0DE",
"n c #E0E1DF",
"m c #E0E1E0",
"M c #E2E2E1",
"N c #E2E3E1",
"B c #E3E3E2",
"V c #E5E6E5",
"C c #E8E8E7",
"Z c #E8E9E7",
"A c #E8E9E8",
"S c #E9E9E8",
"D c #ECECEB",
"F c #ECEDEC",
"G c #EEEEED",
"H c #EFEFEE",
"J c #EFF0EF",
"K c #F4F4F3",
"L c #F4F5F4",
"P c gray100",
"I c None",
/* pixels */
"IIIIIIIIIIIIIIIIIIIIIIII",
"IIIIIIIIIIIIIIIIIIIIIIII",
"IIIIIIIIIIIIIIIIIIIIIIII",
"IIIIIIIIIIIIIIIIIIIIIIII",
"IIIIIIIIIIIIIIIIIIIIIIII",
"IIIIIIIIIIIIIIIIIIIIIIII",
"IIIIIIIIIIIIIIIIIIIIIIII",
"II. IIIIII. IIIIIII@@@II",
"II.4oIIIII.4oIIIIII@V@II",
"II.Px>XIII.Px>XIIII@w@II",
"II.b3fk;OI.b1fk;OII@p@II",
"II.B69eZt&.M58eAu&+@s@II",
"II.SqyhvFP$C0rgvFP$@j@II",
"II.HdcNHi*.GalNHi*-@z@II",
"II.LnJm:=I.KnJm:=II@v@II",
"II.PD<%III.PD<%IIII@v@II",
"II.7#2IIII.7#2IIIII@v@II",
"II.,IIIIII.,IIIIIII@@@II",
"IIIIIIIIIIIIIIIIIIIIIIII",
"IIIIIIIIIIIIIIIIIIIIIIII",
"IIIIIIIIIIIIIIIIIIIIIIII",
"IIIIIIIIIIIIIIIIIIIIIIII",
"IIIIIIIIIIIIIIIIIIIIIIII",
"IIIIIIIIIIIIIIIIIIIIIIII"
};
