/* XPM */
const char * guImage_media_skip_backward[] = {
/* columns rows colors chars-per-pixel */
"24 24 56 1",
"  c #41413F",
". c #464744",
"X c #4A4A47",
"o c #494B48",
"O c #4A4C48",
"+ c #505250",
"@ c #555753",
"# c #565754",
"$ c #5D5D5B",
"% c #5D5E5B",
"& c #5F5F5B",
"* c #60605D",
"= c #646562",
"- c #676967",
"; c #696A67",
": c #6C6D6B",
"> c #7D7D7C",
", c #80807E",
"< c #868785",
"1 c #9B9D9B",
"2 c #A0A09F",
"3 c #ADAEAB",
"4 c #AFB0AE",
"5 c #B1B3AF",
"6 c #B2B3B0",
"7 c #BABCB9",
"8 c #BBBCB9",
"9 c #BEBFBD",
"0 c #C4C5C2",
"q c #C4C5C3",
"w c #C5C6C3",
"e c #CBCCC9",
"r c #CDCECC",
"t c #CECFCD",
"y c #D0D2CF",
"u c #D2D3D2",
"i c #D3D4D2",
"p c #D3D5D2",
"a c #D6D7D5",
"s c #D7D8D5",
"d c #D9DAD8",
"f c #DCDDDB",
"g c #DDDDDC",
"h c #DEDFDD",
"j c #E0E1DF",
"k c #E0E1E0",
"l c #E5E6E5",
"z c #E6E7E5",
"x c #E8E9E7",
"c c #ECECEB",
"v c #EEEEED",
"b c #EFF0EF",
"n c #F3F4F3",
"m c #F5F6F5",
"M c gray100",
"N c None",
/* pixels */
"NNNNNNNNNNNNNNNNNNNNNNNN",
"NNNNNNNNNNNNNNNNNNNNNNNN",
"NNNNNNNNNNNNNNNNNNNNNNNN",
"NNNNNNNNNNNNNNNNNNNNNNNN",
"NNNNNNNNNNNNNNNNNNNNNNNN",
"NNNNNNNNNNNNNNNNNNNNNNNN",
"NNNNNNNNNNNNNNNNNNNNNNNN",
"NN@@@NNNNNNN .NNNNNN .NN",
"NN@l@NNNNNNO2.NNNNNO2.NN",
"NN@w@NNNNX>gM.NNNX>gM.NN",
"NN@e@NNo;iu3x.No;iu3x.NN",
"NN@y@+$9d657v.$9d657v.NN",
"NN@a@%Mt580rn%Mt580rn.NN",
"NN@f@-*qzpshm.*qzpshm.NN",
"NN@h@NN=:kbjm.N=:kbjm.NN",
"NN@h@NNNN&<cM.NNN&<cM.NN",
"NN@h@NNNNN1#4.NNNN1#4.NN",
"NN@@@NNNNNNN,.NNNNNN,.NN",
"NNNNNNNNNNNNNNNNNNNNNNNN",
"NNNNNNNNNNNNNNNNNNNNNNNN",
"NNNNNNNNNNNNNNNNNNNNNNNN",
"NNNNNNNNNNNNNNNNNNNNNNNN",
"NNNNNNNNNNNNNNNNNNNNNNNN",
"NNNNNNNNNNNNNNNNNNNNNNNN"
};
