/* XPM */
const char * guImage_media_playlist_repeat[] = {
/* columns rows colors chars-per-pixel */
"24 24 83 1",
"  c #555753",
". c #575955",
"X c #575A56",
"o c #585A57",
"O c #5A5C57",
"+ c #5B5C59",
"@ c #5F615D",
"# c #5F615E",
"$ c #60625D",
"% c #60615E",
"& c #61635F",
"* c #626360",
"= c #656663",
"- c #666764",
"; c #686A66",
": c #6B6D68",
"> c #6B6E69",
", c #6C6E69",
"< c #6D6E6B",
"1 c #6D6F6C",
"2 c #70726D",
"3 c #72736F",
"4 c #727570",
"5 c #737572",
"6 c #747673",
"7 c #777975",
"8 c #777876",
"9 c #787A76",
"0 c #797B78",
"q c #7A7D79",
"w c #7E7F7C",
"e c gray69",
"r c #B1B1B1",
"t c gray70",
"y c #B4B6B4",
"u c #B6BAB3",
"i c #B8BBB4",
"p c #BABAB8",
"a c #C1C3BE",
"s c #C2C4BF",
"d c #C2C5C0",
"f c #C8CAC5",
"g c #C9CDC5",
"h c #D0D1CF",
"j c #D1D5CE",
"k c #D1D6CE",
"l c #D3D7CF",
"z c #D2D4D2",
"x c #D4D8D0",
"c c #D5D9D1",
"v c #D5D8D2",
"b c #D5D9D2",
"n c #D7DAD3",
"m c #D7DBD4",
"M c #D8DCD5",
"N c #D9DDD6",
"B c #DADDD6",
"V c #DBDDD8",
"C c #DBDED8",
"Z c #DCE0D9",
"A c #DEE1DB",
"S c #DFE1DC",
"D c #E2E5E0",
"F c #E7E8E5",
"G c #E7E8E6",
"H c #E8EAE6",
"J c #E8EAE7",
"K c #E9EBE7",
"L c #EBEDEA",
"P c #EDEDEB",
"I c #EDEFEC",
"U c #EEEFEC",
"Y c #EFEFED",
"T c #EFF0ED",
"R c #EFF1EE",
"E c #F0F1EE",
"W c #F0F0EF",
"Q c #F0F2EF",
"! c #F1F2F1",
"~ c #F2F3F1",
"^ c #F4F5F3",
"/ c #F5F6F4",
"( c None",
/* pixels */
"((((((((((((((((((((((((",
"((((((((((((((((((((((((",
"((((((((((((((((((((((((",
"((((((((((((((((((((((((",
"((((((((((((((((((((((((",
"((((((((((((((((((((((((",
"(((((XO         +o((((((",
"((((%uklxbnMBCZASd%(((((",
"(((>ig1         4Cf<((((",
"(((@j3p(((((((((y7F&((((",
"((( c ((((((((((( K ((((",
"((( m ((((((((((( L ((((",
"((( N (((((((  (( U ((((",
"((($V5p(((((;^.((9W&((((",
"(((qav2  ((;/R@ 6Jzw((((",
"((((=sDH ( G~ITQ!h-(((((",
"(((((8#  (t,YE@ *0((((((",
"(((((((((((r:P.(((((((((",
"((((((((((((e  (((((((((",
"((((((((((((((((((((((((",
"((((((((((((((((((((((((",
"((((((((((((((((((((((((",
"((((((((((((((((((((((((",
"(((((((((((((((((((((((("
};
