/* XPM */
const char * guImage_media_playback_start[] = {
/* columns rows colors chars-per-pixel */
"24 24 92 1",
"  c #3F413D",
". c #464744",
"X c #4A4A49",
"o c #4A4C49",
"O c #4F4F4D",
"+ c #51524E",
"@ c #535451",
"# c #575956",
"$ c #5A5B58",
"% c #5B5C5A",
"& c #5D5D5B",
"* c #5F605D",
"= c #5F615E",
"- c #636462",
"; c #676866",
": c #6C6C6A",
"> c #71726F",
", c #737573",
"< c #787978",
"1 c #797B78",
"2 c #7D7D7C",
"3 c #828380",
"4 c #858683",
"5 c #8F8F8D",
"6 c #8E8F8E",
"7 c #929491",
"8 c #949691",
"9 c #989997",
"0 c #9A9C97",
"q c #A1A39F",
"w c #A4A6A1",
"e c #A4A4A2",
"r c #ABADA9",
"t c #ADAFAB",
"y c #AEAFAB",
"u c #AEAFAD",
"i c #B2B4B0",
"p c #B5B6B3",
"a c #B8B9B6",
"s c #B9BAB7",
"d c #BABAB9",
"f c #BCBDBA",
"g c #BCBCBB",
"h c #BFC0BD",
"j c #C2C3C0",
"k c #C3C4C1",
"l c #C5C5C4",
"z c #C6C7C4",
"x c #C7C8C6",
"c c #C9CAC7",
"v c #CACBC8",
"b c #CBCDCA",
"n c #CDCECB",
"m c #CECFCE",
"M c #D0D1CE",
"N c #D1D2D0",
"B c #D3D4D1",
"V c #D4D4D3",
"C c #D4D5D3",
"Z c #D5D6D4",
"A c #D7D8D5",
"S c #D7D8D6",
"D c #D8D8D7",
"F c #D8D9D8",
"G c #D9DAD8",
"H c #DBDCDA",
"J c #DCDDDB",
"K c #DEDFDD",
"L c #DEDFDE",
"P c #DFE0DE",
"I c #DFE0DF",
"U c #E1E2E0",
"Y c #E2E3E1",
"T c #E3E4E2",
"R c #E4E4E3",
"E c #E5E6E4",
"W c #E6E7E6",
"Q c #E8E8E7",
"! c #EAEAE9",
"~ c #EAEAEA",
"^ c #EBEBEA",
"/ c #EBECEB",
"( c #EDEDEC",
") c #EEEEED",
"_ c #EEEFEE",
"` c #EFEFEE",
"' c #EFEFEF",
"] c #F1F1F0",
"[ c #F4F4F3",
"{ c #FDFDFD",
"} c gray100",
"| c None",
/* pixels */
"||||||||||||||||||||||||",
"||||||||||||||||||||||||",
"||||||||||||||||||||||||",
"||||||||||||||||||||||||",
"||||||||||||||||||||||||",
"|||||. |||||||||||||||||",
"|||||.d+||||||||||||||||",
"|||||.}L9X||||||||||||||",
"|||||.P8jL3o||||||||||||",
"|||||.P0qtSF:O||||||||||",
"|||||.YwrisxWm*$||||||||",
"|||||.EypfkvNI'g#,||||||",
"|||||.QahznCHKK`}@4|||||",
"|||||.^jcMAKKT(l=6||||||",
"|||||.)bBGKU(D;2||||||||",
"|||||.]ZJP/R<>||||||||||",
"|||||.[K!~7-||||||||||||",
"|||||.{_u%e|||||||||||||",
"|||||.V&5|||||||||||||||",
"|||||.1|||||||||||||||||",
"||||||||||||||||||||||||",
"||||||||||||||||||||||||",
"||||||||||||||||||||||||",
"||||||||||||||||||||||||"
};
