/* XPM */
const char * guImage_media_playback_stop[] = {
/* columns rows colors chars-per-pixel */
"24 24 78 1",
"  c #555753",
". c #999B96",
"X c #9C9E9A",
"o c #A0A29D",
"O c #A2A4A0",
"+ c #A3A5A0",
"@ c #A5A7A3",
"# c #A6A8A4",
"$ c #A9AAA6",
"% c #AAABA7",
"& c #ABADA9",
"* c #ACAEAA",
"= c #ADAEAB",
"- c #AFB0AC",
"; c #AFB1AD",
": c #B0B1AE",
"> c #B2B3B0",
", c #B2B4B0",
"< c #B4B6B2",
"1 c #B5B7B3",
"2 c #B6B7B4",
"3 c #B8B9B6",
"4 c #B8BAB6",
"5 c #B9BAB7",
"6 c #BBBCB9",
"7 c #BCBDBA",
"8 c #BDBFBC",
"9 c #BEBFBC",
"0 c #BFC0BD",
"q c #C1C2BF",
"w c #C1C3C0",
"e c #C2C4C0",
"r c #C4C5C2",
"t c #C5C6C3",
"y c #C7C8C5",
"u c #C7C9C6",
"i c #C8C9C6",
"p c #CACBC8",
"a c #CBCCC9",
"s c #CBCCCA",
"d c #CDCECB",
"f c #CECFCC",
"g c #D0D1CE",
"h c #D0D1CF",
"j c #D1D2D0",
"k c #D3D4D2",
"l c #D3D5D2",
"z c #D4D5D3",
"x c #D6D7D5",
"c c #D7D8D5",
"v c #D9DAD8",
"b c #DADBD9",
"n c #DCDDDB",
"m c #DDDEDC",
"M c #DEDEDD",
"N c #DEDFDD",
"B c #DEDFDE",
"V c #DFDFDE",
"C c #DFE0DE",
"Z c #DFE0DF",
"A c #E0E1DF",
"S c #E1E1E0",
"D c #E2E2E1",
"F c #E2E3E2",
"G c #E3E4E3",
"H c #E4E5E4",
"J c #E6E7E6",
"K c #E7E8E7",
"L c #E9EAE9",
"P c #EAEBEA",
"I c #EBEBEA",
"U c #EBECEA",
"Y c #EBECEB",
"T c #ECECEB",
"R c #ECEDEC",
"E c #EDEDEC",
"W c #EDEEED",
"Q c None",
/* pixels */
"QQQQQQQQQQQQQQQQQQQQQQQQ",
"QQQQQQQQQQQQQQQQQQQQQQQQ",
"QQQQQQQQQQQQQQQQQQQQQQQQ",
"QQQQQQQQQQQQQQQQQQQQQQQQ",
"QQQQQQQQQQQQQQQQQQQQQQQQ",
"QQQQQQQQQQQQQQQQQQQQQQQQ",
"QQQQQQ            QQQQQQ",
"QQQQQQ NNMMNNBVCZ QQQQQQ",
"QQQQQQ M.Xo+#%=:S QQQQQQ",
"QQQQQQ NO@$*;,25F QQQQQQ",
"QQQQQQ V&->1470eH QQQQQQ",
"QQQQQQ A<369wtisK QQQQQQ",
"QQQQQQ D8qruafjzI QQQQQQ",
"QQQQQQ GypdhlcbmW QQQQQQ",
"QQQQQQ JgkxvmNNNR QQQQQQ",
"QQQQQQ LvnNNNNNNY QQQQQQ",
"QQQQQQ WERRTTYUIP QQQQQQ",
"QQQQQQ            QQQQQQ",
"QQQQQQQQQQQQQQQQQQQQQQQQ",
"QQQQQQQQQQQQQQQQQQQQQQQQ",
"QQQQQQQQQQQQQQQQQQQQQQQQ",
"QQQQQQQQQQQQQQQQQQQQQQQQ",
"QQQQQQQQQQQQQQQQQQQQQQQQ",
"QQQQQQQQQQQQQQQQQQQQQQQQ"
};
