/* XPM */
const char *guImage_min_media_playback_start[] = {
/* columns rows colors chars-per-pixel */
"16 16 50 1",
"  c #424240",
". c #464744",
"X c #4F514E",
"o c #50514F",
"O c #5B5C59",
"+ c #5D5E5C",
"@ c #60615E",
"# c #626261",
"$ c #646462",
"% c #686866",
"& c #70706E",
"* c #757774",
"= c #777875",
"- c #7D7F7C",
"; c #7F7F7D",
": c #8F918E",
"> c #91918F",
", c #969794",
"< c #969795",
"1 c #9B9D9B",
"2 c #A6A8A3",
"3 c #B1B2AE",
"4 c #B6B7B5",
"5 c #BBBDB9",
"6 c #BEC0BD",
"7 c #C4C4C3",
"8 c #C9CAC7",
"9 c #CBCCCA",
"0 c #CCCECB",
"q c #CDCECC",
"w c #D1D2D0",
"e c #D3D4D2",
"r c #D4D5D2",
"t c #D7D8D5",
"y c #DBDCDA",
"u c #DEDFDD",
"i c #E0E0DF",
"p c #E1E2E0",
"a c #E2E2E1",
"s c #E2E3E2",
"d c #E5E5E4",
"f c #E8E9E7",
"g c #E9E9E8",
"h c #EAEAE9",
"j c #ECECEB",
"k c #ECEDEC",
"l c #EDEDEC",
"z c #F1F1F1",
"x c gray100",
"c c None",
/* pixels */
"cccccccccccccccc",
"cccccccccccccccc",
"ccc. ccccccccccc",
"ccc.4occcccccccc",
"ccc.xa:Xcccccccc",
"ccc.p2ri&+cccccc",
"ccc.d359fq#;cccc",
"ccc.g68euhx@,ccc",
"ccc.l0tpkw%>cccc",
"ccc.zyjs=*cccccc",
"ccc.xk<$cccccccc",
"ccc.7O1ccccccccc",
"ccc.-ccccccccccc",
"cccccccccccccccc",
"cccccccccccccccc",
"cccccccccccccccc"
};
