/* XPM */
const char * guImage_tags[] = {
"24 24 169 2",
"  	c None",
". 	c #E47448",
"+ 	c #E67D56",
"@ 	c #E46C43",
"# 	c #E0592F",
"$ 	c #DD4B20",
"% 	c #DF5632",
"& 	c #DF5534",
"* 	c #DF5436",
"= 	c #DD492E",
"- 	c #DC442A",
"; 	c #DA391F",
"> 	c #E06022",
", 	c #E36A31",
"' 	c #E26731",
") 	c #E1622B",
"! 	c #E15F29",
"~ 	c #E05C28",
"{ 	c #E05A2A",
"] 	c #E0582A",
"^ 	c #DF572C",
"/ 	c #E0552D",
"( 	c #E0542F",
"_ 	c #DF502E",
": 	c #DE4C2F",
"< 	c #DE4B2E",
"[ 	c #DE482F",
"} 	c #DC452C",
"| 	c #E15A19",
"1 	c #E2662A",
"2 	c #E2672D",
"3 	c #E2652D",
"4 	c #E1642D",
"5 	c #E2622D",
"6 	c #E05F2D",
"7 	c #E15D2D",
"8 	c #E15C2E",
"9 	c #E0582E",
"0 	c #DF562D",
"a 	c #E0532E",
"b 	c #DF502D",
"c 	c #DE4D2E",
"d 	c #DE4B2F",
"e 	c #DC442B",
"f 	c #E16426",
"g 	c #E3682C",
"h 	c #E2672C",
"i 	c #E2652C",
"j 	c #E1642C",
"k 	c #E05F2C",
"l 	c #E15B2E",
"m 	c #E0592E",
"n 	c #DD482E",
"o 	c #DE4A32",
"p 	c #E16425",
"q 	c #E3672A",
"r 	c #E2642D",
"s 	c #E15E2D",
"t 	c #DF562E",
"u 	c #DF512E",
"v 	c #DE4E2E",
"w 	c #DE482E",
"x 	c #DD472F",
"y 	c #E26628",
"z 	c #E46423",
"A 	c #E46324",
"B 	c #E3652C",
"C 	c #E0542E",
"D 	c #DD452B",
"E 	c #E26123",
"F 	c #E36526",
"G 	c #CDA693",
"H 	c #C29E8E",
"I 	c #E06A32",
"J 	c #E0602C",
"K 	c #DC432A",
"L 	c #E2C991",
"M 	c #E3CB93",
"N 	c #DCC37B",
"O 	c #DF7636",
"P 	c #D79973",
"Q 	c #BCF3FF",
"R 	c #8CC6E4",
"S 	c #CB8160",
"T 	c #E4642A",
"U 	c #DF4E2E",
"V 	c #DD4C2F",
"W 	c #DD442B",
"X 	c #EC9587",
"Y 	c #E6D1A0",
"Z 	c #E7D2A1",
"` 	c #E0C383",
" .	c #E07133",
"..	c #D39D75",
"+.	c #6FE0FF",
"@.	c #C3896F",
"#.	c #E46329",
"$.	c #E15C2D",
"%.	c #E05A2E",
"&.	c #DF572E",
"*.	c #DF522E",
"=.	c #DF4F2E",
"-.	c #DD4B2F",
";.	c #E6725F",
">.	c #DE7737",
",.	c #DE804F",
"'.	c #C6C9CC",
").	c #B4B5B7",
"!.	c #D87444",
"~.	c #E2632D",
"{.	c #E0602D",
"].	c #E15E2C",
"^.	c #DE492F",
"/.	c #DE462D",
"(.	c #DF5239",
"_.	c #E1591A",
":.	c #E36223",
"<.	c #DE743F",
"[.	c #DC7644",
"}.	c #E3672B",
"|.	c #E2662D",
"1.	c #E05C2E",
"2.	c #E15A2E",
"3.	c #E0572E",
"4.	c #DF542E",
"5.	c #E0522E",
"6.	c #DF4F2D",
"7.	c #DD472E",
"8.	c #DB3A20",
"9.	c #E06223",
"0.	c #E36729",
"a.	c #E3682B",
"b.	c #E1602D",
"c.	c #E05E2C",
"d.	c #DE4A2F",
"e.	c #DC3B21",
"f.	c #E16525",
"g.	c #E2682B",
"h.	c #E2642C",
"i.	c #E1632C",
"j.	c #E1612C",
"k.	c #E05D2E",
"l.	c #DD4A2F",
"m.	c #DE4930",
"n.	c #DD4C33",
"o.	c #E26529",
"p.	c #E3652D",
"q.	c #E1632D",
"r.	c #E1602C",
"s.	c #E05E2D",
"t.	c #E05A2D",
"u.	c #E0562C",
"v.	c #DF522B",
"w.	c #DF512B",
"x.	c #DE4D2B",
"y.	c #DD4B2D",
"z.	c #DE4B30",
"A.	c #DD482F",
"B.	c #DB3B21",
"C.	c #E06224",
"D.	c #E26328",
"E.	c #E26732",
"F.	c #E26837",
"G.	c #E05A2B",
"H.	c #E16139",
"I.	c #E26846",
"J.	c #DF522D",
"K.	c #E16141",
"L.	c #DE4C31",
"                                                ",
"                                                ",
"                                                ",
"                                                ",
"                      . + @ # $ % & * = - ;     ",
"            > , ' ) ! ~ { ] ^ / ( _ : < [ }     ",
"          | 1 2 3 4 5 6 7 8 9 0 a b c d [ e     ",
"          f g h i j 5 k 7 l m 0 a b c d n o     ",
"        p q g h r 4 5 k s l m t a u v d w x     ",
"        y z A B i 4 5 k s l m t C u v d [ D     ",
"      E F G H I 3 4 5 J s l m t C u v : [ K     ",
"L M N O P Q R S T 4 5 J s 8 m t C u U V [ W X   ",
"Y Z `  ...  +.@.#.4 5 J s $.%.&.C *.=.-.[ D ;.  ",
"      >.,.'.).!.B 4 ~.{.].8 %.&.C *.=.V ^./.(.  ",
"      _.:.<.[.}.|.4 ~.{.].1.2.3.4.5.6.V ^.7.8.  ",
"        9.0.a.a.|.4 ~.b.c.8 2.3.C a 6.V d.7.e.  ",
"          f.a.g.|.h.i.j.c.k.2.3.C a _ V l.m.n.  ",
"            o.g p.r q.r.s.7 t.u.v.w.x.y.z.A.B.  ",
"            C.f D.i.E.F.c.G.%.H.I.J.K.  L.      ",
"                                                ",
"                                                ",
"                                                ",
"                                                ",
"                                                "};
