/* XPM */
const char * guImage_tags[] = {
"24 24 30 1",
" 	c None",
".	c #3570A0",
"+	c #3876A9",
"@	c #3D82B9",
"#	c #3672A3",
"$	c #4B8DC2",
"%	c #71A5CF",
"&	c #70A4CF",
"*	c #3571A1",
"=	c #76A8D1",
"-	c #5E99C9",
";	c #609ACA",
">	c #5B97C8",
",	c #5895C7",
"'	c #5593C6",
")	c #639CCB",
"!	c #659ECC",
"~	c #3977AB",
"{	c #68A0CD",
"]	c #498CC2",
"^	c #6CA2CE",
"/	c #6AA1CD",
"(	c #6FA3CF",
"_	c #73A6D0",
":	c #3B7EB3",
"<	c #6DA2CE",
"[	c #74A7D0",
"}	c #4086BF",
"|	c #4F90C4",
"1	c #4489C0",
"                        ",
"                        ",
"         ...            ",
"       ..+@.            ",
"      .#$%&*.           ",
"      +%=&-@.           ",
"      .%;>-,.           ",
"      .'>-)!~.          ",
"      .,-)!{].          ",
"      .$)!{^;.          ",
"      .$/{^(_+.         ",
"      .:<^&_=$.         ",
"      .:_&_==^#.        ",
"       #[[====$.        ",
"       .^======}.       ",
"       .|=======}..     ",
"       .+========|.     ",
"        .$===^1::#.     ",
"        ..'==1...       ",
"         ..'=:.         ",
"          ..:+.         ",
"            ..          ",
"                        ",
"                        "};
