/* XPM */
const char * guImage_tiny_accept[] = {
"16 16 163 2",
"  	c None",
". 	c #316203",
"+ 	c #326303",
"@ 	c #356607",
"# 	c #356606",
"$ 	c #46721B",
"% 	c #99B47F",
"& 	c #C4D5B3",
"* 	c #EAF1E4",
"= 	c #EFF4EA",
"- 	c #CADABB",
"; 	c #9EB885",
"> 	c #427017",
", 	c #6B8F48",
"' 	c #C2D5B0",
") 	c #93BA6E",
"! 	c #71A63D",
"~ 	c #559715",
"{ 	c #589917",
"] 	c #77AC43",
"^ 	c #9BC177",
"/ 	c #CBDCBA",
"( 	c #6A8E47",
"_ 	c #6A8F47",
": 	c #A8C48D",
"< 	c #5C9525",
"[ 	c #4C900A",
"} 	c #50970B",
"| 	c #539C0C",
"1 	c #549D0D",
"2 	c #539B0C",
"3 	c #50960B",
"4 	c #639E29",
"5 	c #B7D09F",
"6 	c #71974C",
"7 	c #47850B",
"8 	c #427018",
"9 	c #A6C08C",
"0 	c #538D1C",
"a 	c #4A8C09",
"b 	c #4F950B",
"c 	c #58A40E",
"d 	c #5AA70E",
"e 	c #87B25C",
"f 	c #D1DAC7",
"g 	c #549713",
"h 	c #7B9D5C",
"i 	c #6F9C44",
"j 	c #458508",
"k 	c #4B8E0A",
"l 	c #51980C",
"m 	c #57A10D",
"n 	c #5CAA0F",
"o 	c #60B011",
"p 	c #56A10D",
"q 	c #93BE67",
"r 	c #FBFDFA",
"s 	c #E7E7E7",
"t 	c #79A84C",
"u 	c #49870C",
"v 	c #8CAB70",
"w 	c #4D8519",
"x 	c #458408",
"y 	c #51970C",
"z 	c #92C262",
"A 	c #75B734",
"B 	c #5FAF10",
"C 	c #5DAA10",
"D 	c #ADD189",
"E 	c #FFFFFF",
"F 	c #FEFEFE",
"G 	c #AEC09C",
"H 	c #4F8F11",
"I 	c #3A690D",
"J 	c #8AAA6C",
"K 	c #3E7906",
"L 	c #448308",
"M 	c #4C8D0C",
"N 	c #B2D094",
"O 	c #EAF3E1",
"P 	c #6FB12C",
"Q 	c #C4DFAA",
"R 	c #F8F8F8",
"S 	c #E2E2E2",
"T 	c #BCC5B3",
"U 	c #3E6C13",
"V 	c #3C6A0F",
"W 	c #7EA05E",
"X 	c #3D7606",
"Y 	c #427F07",
"Z 	c #9FBF80",
"` 	c #FBFDF9",
" .	c #EFEFEF",
"..	c #9CB584",
"+.	c #8BAC6C",
"@.	c #39690D",
"#.	c #336504",
"$.	c #799B58",
"%.	c #41770E",
"&.	c #3F7A06",
"*.	c #48840D",
"=.	c #C2D6AE",
"-.	c #F3F3F2",
";.	c #8BAE6B",
">.	c #498112",
",.	c #7EA05D",
"'.	c #316303",
").	c #66903F",
"!.	c #4F7E22",
"~.	c #3B7405",
"{.	c #407B06",
"].	c #46830B",
"^.	c #B9CEA3",
"/.	c #FAFAFA",
"(.	c #FCFCFC",
"_.	c #E9ECE7",
":.	c #76A04D",
"<.	c #3F7B06",
"[.	c #578828",
"}.	c #648B40",
"|.	c #406F15",
"1.	c #6F9948",
"2.	c #3A7008",
"3.	c #437E0A",
"4.	c #A8BF92",
"5.	c #D5DACF",
"6.	c #619133",
"7.	c #40770C",
"8.	c #71974E",
"9.	c #406E15",
"0.	c #326404",
"a.	c #55832A",
"b.	c #609033",
"c.	c #386E07",
"d.	c #397005",
"e.	c #3D7607",
"f.	c #86A36A",
"g.	c #4D801E",
"h.	c #3C7208",
"i.	c #608B39",
"j.	c #537F2B",
"k.	c #568529",
"l.	c #6A993C",
"m.	c #497E18",
"n.	c #386C06",
"o.	c #376D04",
"p.	c #396F07",
"q.	c #467718",
"r.	c #66923D",
"s.	c #538028",
"t.	c #346606",
"u.	c #3E6E11",
"v.	c #609230",
"w.	c #699A3B",
"x.	c #669835",
"y.	c #659735",
"z.	c #69973D",
"A.	c #5F8E31",
"B.	c #3D6D11",
"C.	c #346704",
"D.	c #356806",
"E.	c #39690C",
"F.	c #39680C",
"          . + @ # + .           ",
"        $ % & * = - ; >         ",
"    + , ' ) ! ~ { ] ^ / ( +     ",
"    _ : < [ } | 1 2 3 4 5 6 7   ",
"  8 9 0 a b 1 c d c 1 b e f g   ",
". h i j k l m n o n p q r s t u ",
"+ v w x k y z A B C D E F s G H ",
"I J K L M N E O P Q E E R S T U ",
"V W X Y Z E E E ` E E E  ...+.@.",
"#.$.%.&.*.=.E E E E E -.;.>.,.'.",
"+ ).!.~.{.].^./.(.R _.:.<.[.}.. ",
"  |.1.2.~.K 3.4.s 5.6.K 7.8.9.  ",
"  0.a.b.c.d.~.e.f.g.~.h.i.j.+   ",
"    # k.l.m.n.o.o.p.q.r.s.t.    ",
"      #.u.v.w.x.y.z.A.B.0.      ",
"          C.D.E.F.D.C.          "};
