/* XPM */
const char * guImage_vol_remove[] = {
/* columns rows colors chars-per-pixel */
"16 16 9 1",
"  c #555753",
". c #565854",
"X c #C1C2C0",
"o c #C2C3C1",
"O c #C3C4C2",
"+ c #C4C5C3",
"@ c #DCDDDB",
"# c #DDDEDC",
"$ c None",
/* pixels */
"$$$$$$$$$$$$$$$$",
"$$$$$$$$$$$$$$$$",
"$$$$$$$$$$$$$$$$",
"$$$$$$$$$$$$$$$$",
"$$$$$$$$$$$$$$$$",
"$$$$$$$$$$$$$$$$",
"$$ .......... $$",
"$$ @#@#XXXXXo $$",
"$$ @+OOOOOOOO $$",
"$$            $$",
"$$$$$$$$$$$$$$$$",
"$$$$$$$$$$$$$$$$",
"$$$$$$$$$$$$$$$$",
"$$$$$$$$$$$$$$$$",
"$$$$$$$$$$$$$$$$",
"$$$$$$$$$$$$$$$$"
};
