<?xml version="1.0" encoding="UTF-8" standalone="no"?>
<!-- Creator: CorelDRAW -->

<svg
   xmlns:dc="http://purl.org/dc/elements/1.1/"
   xmlns:cc="http://creativecommons.org/ns#"
   xmlns:rdf="http://www.w3.org/1999/02/22-rdf-syntax-ns#"
   xmlns:svg="http://www.w3.org/2000/svg"
   xmlns="http://www.w3.org/2000/svg"
   xmlns:xlink="http://www.w3.org/1999/xlink"
   xmlns:sodipodi="http://sodipodi.sourceforge.net/DTD/sodipodi-0.dtd"
   xmlns:inkscape="http://www.inkscape.org/namespaces/inkscape"
   xml:space="preserve"
   width="1.48025in"
   height="1.35893in"
   style="shape-rendering:geometricPrecision; text-rendering:geometricPrecision; image-rendering:optimizeQuality; fill-rule:evenodd; clip-rule:evenodd"
   viewBox="0 0 1.51348 1.38943"
   id="svg2867"
   version="1.1"
   inkscape:version="0.47pre4 r22446"
   sodipodi:docname="InternetRadio.svg"><metadata
   id="metadata2914"><rdf:RDF><cc:Work
       rdf:about=""><dc:format>image/svg+xml</dc:format><dc:type
         rdf:resource="http://purl.org/dc/dcmitype/StillImage" /></cc:Work></rdf:RDF></metadata><sodipodi:namedview
   pagecolor="#ffffff"
   bordercolor="#666666"
   borderopacity="1"
   objecttolerance="10"
   gridtolerance="10"
   guidetolerance="10"
   inkscape:pageopacity="0"
   inkscape:pageshadow="2"
   inkscape:window-width="1280"
   inkscape:window-height="948"
   id="namedview2912"
   showgrid="false"
   showborder="false"
   inkscape:zoom="0.4824057"
   inkscape:cx="-65.848327"
   inkscape:cy="134.08072"
   inkscape:window-x="0"
   inkscape:window-y="0"
   inkscape:window-maximized="1"
   inkscape:current-layer="svg2867" />
 <defs
   id="defs2869"><linearGradient
   inkscape:collect="always"
   id="linearGradient3712"><stop
     style="stop-color:#ffffff;stop-opacity:1;"
     offset="0"
     id="stop3714" /><stop
     style="stop-color:#ffffff;stop-opacity:0;"
     offset="1"
     id="stop3716" /></linearGradient><linearGradient
   inkscape:collect="always"
   id="linearGradient2928"><stop
     style="stop-color:#ffffff;stop-opacity:1;"
     offset="0"
     id="stop2930" /><stop
     style="stop-color:#ffffff;stop-opacity:0;"
     offset="1"
     id="stop2932" /></linearGradient><inkscape:perspective
   sodipodi:type="inkscape:persp3d"
   inkscape:vp_x="0 : 61.151848 : 1"
   inkscape:vp_y="0 : 1000 : 0"
   inkscape:vp_z="133.2225 : 61.151848 : 1"
   inkscape:persp3d-origin="66.611252 : 40.767899 : 1"
   id="perspective2916" />
  <style
   type="text/css"
   id="style2871">
   
    .fil3 {fill:#383431}
    .fil4 {fill:white}
    .fil0 {fill:#0A94D6}
    .fil2 {fill:white;fill-rule:nonzero}
    .fil1 {fill:url(#id4)}
   
  </style>
   <mask
   id="id0">
  <linearGradient
   id="id1"
   gradientUnits="userSpaceOnUse"
   x1="0.866038"
   y1="0.306759"
   x2="1.32006"
   y2="1.08245">
   <stop
   offset="0"
   style="stop-opacity:1; stop-color:white"
   id="stop2875" />
   <stop
   offset="1"
   style="stop-opacity:0; stop-color:white"
   id="stop2877" />
  </linearGradient>
    <rect
   style="fill:url(#id1)"
   x="0.962366"
   y="0.244752"
   width="0.261372"
   height="0.899711"
   id="rect2879" />
   </mask>
   <mask
   id="id2">
  <linearGradient
   id="id3"
   gradientUnits="userSpaceOnUse"
   x1="0.0233432"
   y1="0.108834"
   x2="0.733108"
   y2="1.27466">
   <stop
   offset="0"
   style="stop-opacity:1; stop-color:white"
   id="stop2883" />
   <stop
   offset="1"
   style="stop-opacity:0; stop-color:white"
   id="stop2885" />
  </linearGradient>
    <rect
   style="fill:url(#id3)"
   x="0.017752"
   y="0.017752"
   width="0.720947"
   height="1.34799"
   id="rect2887" />
   </mask>
  <linearGradient
   id="id4"
   gradientUnits="userSpaceOnUse"
   x1="0.351956"
   y1="0.553197"
   x2="1.03675"
   y2="0.724397">
   <stop
   offset="0"
   style="stop-color:#A3CE27"
   id="stop2890" /><stop
   id="stop3708"
   style="stop-color:#a3ce27;stop-opacity:1;"
   offset="0.5" /><stop
   offset="0.75"
   style="stop-color:#a3ce27;stop-opacity:1;"
   id="stop3710" />
   <stop
   offset="1"
   style="stop-color:#8aac21;stop-opacity:1;"
   id="stop2892" />
  </linearGradient>
 
  
  
  
  
  
  
  
  
  
 <linearGradient
   inkscape:collect="always"
   xlink:href="#id4"
   id="linearGradient2925"
   gradientUnits="userSpaceOnUse"
   x1="0.351956"
   y1="0.553197"
   x2="1.03675"
   y2="0.724397" /><linearGradient
   inkscape:collect="always"
   xlink:href="#linearGradient2928"
   id="linearGradient2934"
   x1="-0.86074752"
   y1="-0.98828387"
   x2="1.7123941"
   y2="1.3560991"
   gradientUnits="userSpaceOnUse" /><linearGradient
   inkscape:collect="always"
   xlink:href="#linearGradient3712"
   id="linearGradient3718"
   x1="-1.5819591"
   y1="-0.89191842"
   x2="0.84093618"
   y2="1.6808467"
   gradientUnits="userSpaceOnUse" /></defs>
 <g
   id="g2843"><circle
     class="fil0"
     cx="0.69471502"
     cy="0.69471598"
     r="0.67341298"
     id="circle2896"
     sodipodi:cx="0.69471502"
     sodipodi:cy="0.69471598"
     sodipodi:rx="0.67341298"
     sodipodi:ry="0.67341298"
     style="fill:#0a94d6" /><path
     class="fil1"
     d="M 1.3668,0.652954 C 1.3452199,0.300551 1.052538,0.021302 0.694713,0.021302 0.421079,0.021302 0.185526,0.184608 0.080169,0.419043 0.1625244,0.3682547 0.280533,0.3922903 0.280533,0.3922903 L 0.431529,0.3200346 0.588044,0.2046546 0.433582,0.1905416 0.487961,0.1455901 c 0,0 0.155799,-0.0706335 0.283484,-0.015385 0.160702,0.0695305 0.164099,0.162477 -0.0537228,0.258905 -0.00886,0.003921 -0.0170153,0.008808 -0.0251466,0.0130825 C 0.6746827,0.4115916 0.674888,0.4460251 0.6593178,0.4545951 0.6440334,0.4630041 0.612893,0.4456101 0.5997702,0.4531661 0.5078988,0.5060798 0.4682322,0.5372444 0.4682322,0.5372444 l 0.0249292,0.0827821 c 0,0 0.0705691,-0.0312853 0.151029,-0.0445449 0.0148899,-0.002451 0.0544595,0.0452735 0.0695627,0.0439371 0.0207146,-0.001836 0.0380802,-0.0426208 0.0574101,-0.0412683 0.0369007,0.002592 0.0620031,0.0185248 0.0829512,0.0394689 0.0831524,0.0831524 -0.0974063,0.113097 -0.15978,0.0897098 -0.0623734,-0.0233875 -0.239949,-0.0330042 -0.286728,0.0657507 -0.046779,0.0987549 -0.0294336,0.224432 0.118701,0.237425 0.148134,0.012994 0.175825,0.04535 0.181022,0.125914 0.005197,0.080564 0.0699089,0.119868 0.140075,0.114671 0.0701665,-0.0052 0.125958,-0.074079 0.162883,-0.165009 0.035504,-0.0874234 0.083692,-0.163624 0.083692,-0.163624 L 1.0165954,0.9114836 c 0,0 0.077388,-0.007222 0.095579,-0.0799885 0.018191,-0.0727669 0.122146,-0.0935581 0.153331,-0.046779 9.66e-5,-0.128197 0.051634,-0.124356 0.101295,-0.131763 z M 0.02191,0.7222712 c 0.0057563,0.142785 0.055973,0.274129 0.137209,0.380568 0.0108283,-0.04605 0.0667329,-0.115778 0.0667329,-0.115778 0,0 -0.157691,-0.0957881 -0.203942,-0.26479 z"
     id="path2898"
     style="fill:url(#linearGradient2925)" /><path
     class="fil2"
     d="m 0.694714,1.34683 c 0.180044,0 0.34308,-0.073009 0.461092,-0.191017 C 1.273818,1.037801 1.346827,0.874768 1.346827,0.694721 1.346827,0.514673 1.2738185,0.351637 1.155806,0.233629 1.037794,0.115617 0.874761,0.042608 0.694714,0.042608 c -0.180048,0 -0.34308,0.0730085 -0.461092,0.191021 -0.118008,0.118012 -0.191017,0.281045 -0.191017,0.461092 0,0.180048 0.0730085,0.34308 0.191017,0.461088 C 0.351634,1.273821 0.514667,1.34683 0.694714,1.34683 z M 1.185924,1.185931 C 1.060195,1.311656 0.886516,1.389435 0.694714,1.389435 0.502912,1.389435 0.329229,1.3116524 0.203504,1.185927 0.077783,1.060206 0,0.886523 0,0.694721 0,0.502919 0.0777786,0.32924 0.203504,0.203511 0.329229,0.077786 0.502912,3e-6 0.694714,3e-6 c 0.191806,0 0.365485,0.0777826 0.49121,0.203508 0.125729,0.125725 0.203508,0.299412 0.203508,0.49121 0,0.191802 -0.077783,0.365485 -0.203508,0.49121 z"
     id="path2900"
     style="fill:#ffffff;fill-rule:nonzero" /><path
     class="fil2"
     d="M 1.33638,0.628568 C 1.3202221,0.469831 1.2464528,0.328065 1.136302,0.224544 1.02095,0.116132 0.865611,0.049705 0.694713,0.049705 0.565619,0.049705 0.445481,0.0875396 0.34481,0.152699 0.2609934,0.2069451 0.190557,0.280074 0.139543,0.366037 0.2003062,0.3528055 0.240017,0.3388173 0.259894,0.3419853 L 0.39943,0.2732075 0.501667,0.2143281 0.4161718,0.20915145 c -0.0212379,-0.0218297 0.001349,-0.0521127 0.060252,-0.0894119 4.7902e-4,-2.1335e-4 0.167005,-0.0757337 0.306227,-0.0154937 0.0367437,0.0158963 0.0640922,0.0358582 0.0823957,0.0585936 0.0227153,0.0282059 0.031712,0.0601152 0.0277148,0.0936587 -0.003756,0.0314624 -0.0192051,0.0636857 -0.0456922,0.0947737 -0.036466,0.042806 -0.0481879,0.0206905 -0.126405,0.0553129 -0.005112,0.002262 -0.010313,0.005116 -0.0154092,0.00791 -0.001018,5.555e-4 -0.001755,9.7012e-4 -0.007986,0.004239 l 2.415e-5,4.83e-5 c -1.8114e-4,9.259e-5 -0.002274,0.006384 -0.004653,0.0126478 -0.005849,0.0154172 -0.0115368,0.0303836 -0.0281616,0.0395333 -0.0169912,0.009355 -0.0343164,0.005756 -0.0510218,0.002278 -0.00564,-0.001171 -0.005072,-0.005776 -0.008083,-0.004041 -0.0576516,0.0332054 -0.094029,0.0574664 -0.112687,0.0705852 l 0.0102366,0.0339904 c 0.0290673,-0.0107317 0.0765508,-0.0262133 0.128233,-0.0347351 0.0202678,-0.003337 0.0392234,0.0125552 0.0580582,0.028387 l 5.636e-5,-6.44e-5 c 0.008896,0.007475 0.009375,0.0156467 0.0135575,0.0152804 l 8.05e-6,1.1271e-4 c 9.9427e-4,-1.2076e-4 0.004649,-0.006107 0.010148,-0.0121406 0.0142136,-0.0155984 0.0281375,-0.0308788 0.0515813,-0.0292404 0.0225059,0.001578 0.0416225,0.007338 0.0584366,0.0159566 0.0167054,0.008562 0.0304802,0.019499 0.0427053,0.0317241 0.0197526,0.0197526 0.0287493,0.0389416 0.0296711,0.0570398 0.001051,0.0206462 -0.007841,0.0376615 -0.0233915,0.0512834 -0.0121124,0.0105988 -0.0284756,0.0188469 -0.0468434,0.0248125 l 1.207e-5,3.22e-5 c -0.0475398,0.0154253 -0.113878,0.0163672 -0.149181,0.003136 -0.0331813,-0.0124425 -0.103082,-0.0204409 -0.164083,-0.006453 -0.0384706,0.00882 -0.0723322,0.0265152 -0.0871456,0.0577804 -0.0106794,0.0225502 -0.0175668,0.0466462 -0.0196238,0.0701223 -0.002129,0.0242771 9.0974e-4,0.0475358 0.010305,0.0670911 0.009005,0.0187382 0.0242731,0.0346626 0.0469763,0.0454144 0.0155219,0.00735 0.0346787,0.0123861 0.0578569,0.0144149 0.0795779,0.00698 0.127987,0.0200585 0.158757,0.0433856 0.0644465,0.048872 0.0241805,0.133671 0.0824722,0.1776 0.0476002,0.03589 0.107957,0.021552 0.146898,-0.017901 C 0.97559503,1.1087289 1.0089771,0.99426334 1.0650271,0.91383134 l -0.048043,0.016017 -0.0209682,-0.052475 c 3.4216e-4,-1.6101e-4 0.0737169,0.006952 0.0886431,-0.0527567 0.00768,-0.0307379 0.026777,-0.0543226 0.050494,-0.0701343 l 1.61e-5,2.415e-5 c 0.015554,-0.0103493 0.033077,-0.0173132 0.050547,-0.0206905 0.017945,-0.00347 0.036192,-0.003253 0.052644,8.6144e-4 l 0.00167,4.3071e-4 c 0.010812,-0.0858334 0.051412,-0.0997652 0.096352,-0.10654 z m 0.031579,0.0528453 -0.0089,0.001175 c -0.03327,0.004372 -0.065191,0.008578 -0.06526,0.102128 L 1.241879,0.800359 C 1.238399,0.795138 1.232199,0.791596 1.224606,0.7897038 1.216186,0.7875988 1.206383,0.7875748 1.196372,0.78951058 1.18593,0.79152758 1.175581,0.79561258 1.166556,0.80163098 l -1.127e-4,1.0869e-4 c -0.012664,0.008441 -0.022796,0.0207952 -0.026753,0.0366351 -0.00641,0.0256538 -0.023802,0.0497015 -0.04504,0.0708146 l 4.589e-4,0.0424437 C 0.96875322,1.0345605 1.0427077,1.2888165 0.80037122,1.2749125 c -0.122179,-0.00701 -0.0963034,-0.193207 -0.138083,-0.224894 -0.0931475,-0.0706174 -0.233464,0.022361 -0.297895,-0.11170902 -0.014109,-0.0293572 -0.0188066,-0.0626632 -0.015852,-0.0963799 0.002633,-0.0300697 0.0113918,-0.0607954 0.0249534,-0.089428 0.0235203,-0.0496451 0.0719055,-0.0765065 0.125749,-0.0888484 0.0719941,-0.0165081 0.148621,0.0146806 0.189068,0.0298483 0.258482,0.0672844 0.144024,-0.220881 0.0193943,-0.054391 0,1.1271e-4 -0.0304641,-0.0854509 -0.227245,-5.5148e-4 L 0.42704002,0.521694 c 0.0746549,-0.0591933 0.151045,-0.0679284 0.210145,-0.100437 0.0558684,-0.0306936 0.277724,-0.117952 0.186879,-0.230325 -0.0696271,-0.0864694 -0.23462,-0.0801052 -0.324676,-0.0445772 l -0.0558643,0.0449555 0.143892,-0.007499 c 0.081812,0.0461511 -0.290557,0.227338 -0.331523,0.214585 -3.019e-4,-6.038e-5 -0.0858615,-0.0259235 -0.179895,0.0301864 0.103195,-0.239531 0.341389,-0.407281 0.618714,-0.407281 0.36740498,0 0.66614898,0.294401 0.67324598,0.660111 z m -1.30634,0.160714 c 0.0022301,0.00692 -0.0038926,0.0296631 -0.0014371,0.0364781 0.0167577,0.0464812 0.0715875,0.143489 0.098143,0.184423 C 0.1688996,1.0438514 0.1874848,1.0022084 0.1973027,0.9883816 0.17183,0.9694502 0.1002184,0.8898844 0.0616187,0.8421276 z M 0.0225166,0.6547293 c 0.0343245,0.11476 0.113423,0.262761 0.215692,0.326129 C 0.2078008,1.01887 0.1979145,1.0617485 0.186744,1.1092763 L 0.181676,1.1308243 C 0.0816813,1.0133113 0.021301,0.8610633 0.021301,0.6947173 c 0,-0.0134287 4.3877e-4,-0.0267527 0.0012157,-0.0399882 z"
     id="path2902"
     style="fill:#ffffff;fill-rule:nonzero" /><path
     class="fil2"
     d="M 1.06316,0.203741 C 1.157946,0.1783448 1.254173,0.19383 1.333082,0.2393898 l -5.64e-5,9.661e-5 c 0.078918,0.0456197 0.14041,0.121172 0.165778,0.215837 l 0.014673,0.0547533 -0.054834,0.0146967 -0.117058,0.0313658 0.086345,0.32224 0,8.05e-6 c 0.018243,0.0680935 0.00577,0.13735404 -0.029124,0.19428104 -0.034417,0.056138 -0.09064,0.10022 -0.160492,0.118942 l -1.61e-5,4e-6 c -0.069925,0.01873 -0.140603,0.00872 -0.198323,-0.022598 -0.0586982,-0.031857 -0.10415696,-0.0857 -0.12244796,-0.153955 l 0,-8.1e-6 c -0.0182431,-0.0680935 -0.005772,-0.13735397 0.0291237,-0.19428097 0.0300415,-0.048993 0.0766917,-0.0888121 0.13451596,-0.110594 l -0.11314596,-0.422259 -0.0146766,-0.0547614 0.0548379,-0.0146886 0.054979,-0.0147289 z M 1.276276,0.337464 C 1.2226538,0.3065047 1.157133,0.2960226 1.092449,0.3133519 l -1.449e-4,4.025e-5 0.113311,0.422871 0.016758,0.0625505 -0.064463,0.008232 c -0.00201,2.536e-4 -0.00562,8.9767e-4 -0.010816,0.001924 -0.00362,7.1652e-4 -0.00719,0.001546 -0.010655,0.002472 l -1.61e-5,4.03e-6 c -0.040785,0.010933 -0.073359,0.0362567 -0.093035,0.0683471 -0.019189,0.0313014 -0.026125,0.0691079 -0.01625,0.105976 l 0,8.05e-6 c 0.00983,0.0366995 0.034715,0.0658835 0.066978,0.083394 0.033242,0.018038 0.074176,0.023738 0.114901,0.012829 l 1.61e-5,-4e-6 c 0.040785,-0.010933 0.073359,-0.036257 0.093035,-0.068347 0.019189,-0.0313015 0.026125,-0.069108 0.01625,-0.10597602 l 0,-8.05e-6 -0.101017,-0.376994 -0.014673,-0.0547614 0.054834,-0.0146886 0.110646,-0.029647 C 1.3464841,0.3916132 1.314442,0.3593658 1.2765027,0.3374636 l -2.254e-4,0 z m 0.042041,0.570204 0,-4.03e-6 m 0.109611,-0.0292807 0,4.03e-6 m -0.400792,0.107385 0,4.03e-6 m -0.109611,0.0292807 0,-4e-6"
     id="path2904"
     style="fill:#ffffff;fill-rule:nonzero" /><path
     class="fil3"
     d="M 1.07781,0.258547 C 1.237288,0.2158135 1.40127,0.3104906 1.444004,0.469968 L 1.272112,0.5160265 c 0.033672,0.125665 0.067345,0.251333 0.101017,0.376998 0.028125,0.104966 -0.038805,0.214135 -0.149463,0.243782 C 1.113008,1.1664575 1.000462,1.1053843 0.972337,1.0004185 0.9442116,0.8954525 1.0111417,0.7862835 1.1218,0.7566365 1.13148,0.7540405 1.141166,0.7521445 1.150815,0.7509085 L 1.022832,0.2732765 1.077811,0.2585476 z"
     id="path2906"
     style="fill:#383431" /><path
     class="fil4"
     style="fill:url(#linearGradient3718);fill-opacity:1"
     d="M 0.735149,0.0225462 C 0.7217646,0.0217532 0.7082956,0.0213024 0.694714,0.0213024 c -0.371849,0 -0.673411,0.301562 -0.673411,0.673415 0,0.3415059 0.25436,0.62369 0.583915,0.6674779 C 0.562251,1.2839538 0.5254751,1.2004873 0.497092,1.1116073 0.370836,0.71622535 0.5323665,0.32408835 0.735149,0.02254735 z"
     id="path2910"
     mask="url(#id2)" /></g>
</svg>