<?xml version="1.0" encoding="UTF-8" standalone="no"?>
<!-- Creator: CorelDRAW -->

<svg
   xmlns:dc="http://purl.org/dc/elements/1.1/"
   xmlns:cc="http://creativecommons.org/ns#"
   xmlns:rdf="http://www.w3.org/1999/02/22-rdf-syntax-ns#"
   xmlns:svg="http://www.w3.org/2000/svg"
   xmlns="http://www.w3.org/2000/svg"
   xmlns:sodipodi="http://sodipodi.sourceforge.net/DTD/sodipodi-0.dtd"
   xmlns:inkscape="http://www.inkscape.org/namespaces/inkscape"
   xml:space="preserve"
   width="300"
   height="300"
   style="fill-rule:evenodd"
   viewBox="0 0 0.32380883 0.32380914"
   id="svg2"
   version="1.1"
   inkscape:version="0.47pre4 r22446"
   sodipodi:docname="recording.svg"><metadata
   id="metadata16"><rdf:RDF><cc:Work
       rdf:about=""><dc:format>image/svg+xml</dc:format><dc:type
         rdf:resource="http://purl.org/dc/dcmitype/StillImage" /><dc:title></dc:title></cc:Work></rdf:RDF></metadata><sodipodi:namedview
   pagecolor="#ffffff"
   bordercolor="#666666"
   borderopacity="1"
   objecttolerance="10"
   gridtolerance="10"
   guidetolerance="10"
   inkscape:pageopacity="0"
   inkscape:pageshadow="2"
   inkscape:window-width="1164"
   inkscape:window-height="784"
   id="namedview14"
   showgrid="false"
   inkscape:zoom="2.086748"
   inkscape:cx="139.5782"
   inkscape:cy="49.574327"
   inkscape:window-x="0"
   inkscape:window-y="0"
   inkscape:window-maximized="0"
   inkscape:current-layer="svg2" />
 <defs
   id="defs4"><inkscape:perspective
   sodipodi:type="inkscape:persp3d"
   inkscape:vp_x="0 : 24.088634 : 1"
   inkscape:vp_y="0 : 1000 : 0"
   inkscape:vp_z="49.215149 : 24.088634 : 1"
   inkscape:persp3d-origin="24.607574 : 16.05909 : 1"
   id="perspective18" />
  <style
   type="text/css"
   id="style6">
   
    .fil0 {fill:white}
    .fil1 {fill:#666366}
   
  </style>
 <inkscape:perspective
   id="perspective2832"
   inkscape:persp3d-origin="0.5 : 0.33333333 : 1"
   inkscape:vp_z="1 : 0.5 : 1"
   inkscape:vp_y="0 : 1000 : 0"
   inkscape:vp_x="0 : 0.5 : 1"
   sodipodi:type="inkscape:persp3d" /><inkscape:perspective
   id="perspective2832-1"
   inkscape:persp3d-origin="0.5 : 0.33333333 : 1"
   inkscape:vp_z="1 : 0.5 : 1"
   inkscape:vp_y="0 : 1000 : 0"
   inkscape:vp_x="0 : 0.5 : 1"
   sodipodi:type="inkscape:persp3d" />
  
  
  
 <inkscape:perspective
   id="perspective2869"
   inkscape:persp3d-origin="0.5 : 0.33333333 : 1"
   inkscape:vp_z="1 : 0.5 : 1"
   inkscape:vp_y="0 : 1000 : 0"
   inkscape:vp_x="0 : 0.5 : 1"
   sodipodi:type="inkscape:persp3d" /><inkscape:perspective
   id="perspective2869-4"
   inkscape:persp3d-origin="0.5 : 0.33333333 : 1"
   inkscape:vp_z="1 : 0.5 : 1"
   inkscape:vp_y="0 : 1000 : 0"
   inkscape:vp_x="0 : 0.5 : 1"
   sodipodi:type="inkscape:persp3d" /><inkscape:perspective
   id="perspective7010"
   inkscape:persp3d-origin="0.5 : 0.33333333 : 1"
   inkscape:vp_z="1 : 0.5 : 1"
   inkscape:vp_y="0 : 1000 : 0"
   inkscape:vp_x="0 : 0.5 : 1"
   sodipodi:type="inkscape:persp3d" /></defs>
 <g
   id="g7039"
   transform="matrix(1.0159483,0,0,1.0378338,-9.2069096e-4,-0.01055865)"><path
     class="fil0"
     d="m 0.0842902,0.27907964 c 0.0146666,0 0.0265605,-0.011643 0.0265605,-0.0260006 0,-0.0143572 -0.0118939,-0.0260002 -0.0265605,-0.0260002 -0.0146666,0 -0.0265605,0.011643 -0.0265605,0.0260002 0,0.0143576 0.0118939,0.0260006 0.0265605,0.0260006 z"
     id="path10"
     style="fill:#ffffff" /><path
     class="fil1"
     d="m 0.0842902,0.27574694 c 0.0127865,0 0.0231563,-0.010151 0.0231563,-0.0226679 0,-0.0125169 -0.0103698,-0.0226679 -0.0231563,-0.0226679 -0.0127865,0 -0.0231559,0.010151 -0.0231559,0.0226679 0,0.007941 0.0041737,0.0149275 0.0104899,0.0189761 l 0.003107,-0.005382 C 0.0703147,0.26293674 0.0690491,0.25642084 0.072038,0.25124404 l 0.005811,-0.0100654 0.0026389,0.001523 -0.0058274,0.010094 c -0.0012609,0.002184 -0.0015141,0.004684 -9.0717e-4,0.006949 6.0733e-4,0.002266 0.0020767,0.004304 0.0042605,0.005565 0.0021838,0.001261 0.0046835,0.001515 0.0069495,9.0717e-4 0.002266,-6.0733e-4 0.0043041,-0.002076 0.0055651,-0.004261 l 0.0058278,-0.0100937 0.0026389,0.001524 -0.0058113,0.010065 c -0.0029885,0.005177 -0.0092645,0.007339 -0.01470869,0.005382 l -0.0030061,0.005207 c 0.0027192,0.001098 0.0056978,0.001705 0.0088212,0.001705 z m 0.0096102,-0.0379537 0,0 c 0.00313,0.001807 0.0042112,0.005846 0.0024049,0.008975 l -0.0015168,0.002627 -0.0113783,-0.00657 0.0015164,-0.002627 c 0.0018071,-0.00313 0.0058446,-0.004212 0.0089738,-0.002405 z m -4.6659e-4,0.013948 -0.0050858,0.008809 c -0.0018063,0.003128 -0.0058446,0.004211 -0.0089742,0.002405 l 0,0 c -0.0031292,-0.001807 -0.0042116,-0.005845 -0.0024045,-0.008974 l 0.0050858,-0.008809 0.0113787,0.00657 z"
     id="path12"
     style="fill:#31a2f2;fill-opacity:1" /></g>
<g
   id="g7027"
   transform="matrix(1.0159483,0,0,1.0378338,-0.0020016,-0.0105938)"
   inkscape:export-filename="/home/jrios/Projects/guayadeque/src/images/orig/pref_record.png"
   inkscape:export-xdpi="57.599998"
   inkscape:export-ydpi="57.599998"><path
     class="fil0"
     d="m 0.15206609,0.28000863 c 0.0146666,0 0.0265605,-0.011643 0.0265605,-0.0260006 0,-0.0143572 -0.0118939,-0.0260002 -0.0265605,-0.0260002 -0.0146666,0 -0.0265605,0.011643 -0.0265605,0.0260002 0,0.0143576 0.0118939,0.0260006 0.0265605,0.0260006 z"
     id="path10-6"
     style="fill:#ffffff;fill-rule:evenodd" /><path
     class="fil1"
     d="m 0.15206609,0.27667593 c 0.0127865,0 0.0231563,-0.010151 0.0231563,-0.0226679 0,-0.0125169 -0.0103698,-0.0226679 -0.0231563,-0.0226679 -0.0127865,0 -0.0231559,0.010151 -0.0231559,0.0226679 0,0.007941 0.004174,0.0149275 0.0104899,0.0189761 l 0.003107,-0.005382 c -0.004417,-0.003736 -0.005682,-0.0102523 -0.002693,-0.0154291 l 0.005811,-0.0100654 0.002639,0.001523 -0.005827,0.010094 c -0.001261,0.002184 -0.001514,0.004684 -9.0717e-4,0.006949 6.0733e-4,0.002266 0.002077,0.004304 0.004261,0.005565 0.002184,0.001261 0.004684,0.001515 0.00695,9.0717e-4 0.002266,-6.0733e-4 0.004304,-0.002076 0.005565,-0.004261 l 0.005828,-0.0100937 0.002639,0.001524 -0.005811,0.010065 c -0.002989,0.005177 -0.009265,0.007339 -0.0147087,0.005382 l -0.003006,0.005207 c 0.002719,0.001098 0.005698,0.001705 0.008821,0.001705 z m 0.00961,-0.0379537 0,0 c 0.00313,0.001807 0.004211,0.005846 0.002405,0.008975 l -0.001517,0.002627 -0.0113783,-0.00657 0.001516,-0.002627 c 0.001807,-0.00313 0.005845,-0.004212 0.008974,-0.002405 z m -4.666e-4,0.013948 -0.005086,0.008809 c -0.001806,0.003128 -0.005845,0.004211 -0.008974,0.002405 l 0,0 c -0.003129,-0.001807 -0.004212,-0.005845 -0.002405,-0.008974 l 0.005086,-0.008809 0.0113787,0.00657 z"
     id="path12-4"
     style="fill:#960000;fill-opacity:1;fill-rule:evenodd" /></g><g
   id="g7031"
   transform="matrix(1.0159483,0,0,1.0378338,-0.00311481,-0.01068812)"><path
     class="fil0"
     d="m 0.22186699,0.28250152 c 0.0146666,0 0.0265605,-0.011643 0.0265605,-0.0260006 0,-0.0143572 -0.0118939,-0.0260002 -0.0265605,-0.0260002 -0.0146666,0 -0.0265605,0.011643 -0.0265605,0.0260002 0,0.0143576 0.0118939,0.0260006 0.0265605,0.0260006 z"
     id="path10-8"
     style="fill:#ffffff;fill-rule:evenodd" /><path
     class="fil1"
     d="m 0.22186699,0.27916882 c 0.0127865,0 0.0231563,-0.010151 0.0231563,-0.0226679 0,-0.0125169 -0.0103698,-0.0226679 -0.0231563,-0.0226679 -0.0127865,0 -0.0231559,0.010151 -0.0231559,0.0226679 0,0.007941 0.004174,0.0149275 0.0104899,0.0189761 l 0.003107,-0.005382 c -0.004417,-0.003736 -0.005682,-0.0102523 -0.002693,-0.0154291 l 0.005811,-0.0100654 0.002639,0.001523 -0.005827,0.010094 c -0.001261,0.002184 -0.001514,0.004684 -9.0717e-4,0.006949 6.0733e-4,0.002266 0.002077,0.004304 0.004261,0.005565 0.002184,0.001261 0.004684,0.001515 0.006949,9.0717e-4 0.002266,-6.0733e-4 0.004304,-0.002076 0.005565,-0.004261 l 0.005828,-0.0100937 0.002639,0.001524 -0.005811,0.010065 c -0.002989,0.005177 -0.009265,0.007339 -0.0147087,0.005382 l -0.003006,0.005207 c 0.002719,0.001098 0.005698,0.001705 0.008821,0.001705 z m 0.00961,-0.0379537 0,0 c 0.00313,0.001807 0.004211,0.005846 0.002405,0.008975 l -0.001517,0.002627 -0.0113783,-0.00657 0.001516,-0.002627 c 0.001807,-0.00313 0.005845,-0.004212 0.008974,-0.002405 z m -4.666e-4,0.013948 -0.005086,0.008809 c -0.001806,0.003128 -0.005845,0.004211 -0.008974,0.002405 l 0,0 c -0.003129,-0.001807 -0.004212,-0.005845 -0.002405,-0.008974 l 0.005086,-0.008809 0.0113787,0.00657 z"
     id="path12-5"
     style="fill:#b3b3b3;fill-opacity:1;fill-rule:evenodd" /></g><g
   id="g7035"
   transform="matrix(1.0159483,0,0,1.0378338,-0.00200167,-0.00799003)"><path
     class="fil0"
     d="m 0.1520704,0.21118739 c 0.0146666,0 0.0265605,-0.011643 0.0265605,-0.0260006 0,-0.0143572 -0.0118939,-0.0260002 -0.0265605,-0.0260002 -0.0146666,0 -0.0265605,0.011643 -0.0265605,0.0260002 0,0.0143576 0.0118939,0.0260006 0.0265605,0.0260006 z"
     id="path10-8-2"
     style="fill:#ffffff;fill-rule:evenodd" /><path
     class="fil1"
     d="m 0.1520704,0.20785469 c 0.0127865,0 0.0231563,-0.010151 0.0231563,-0.0226679 0,-0.0125169 -0.0103698,-0.0226679 -0.0231563,-0.0226679 -0.0127865,0 -0.0231559,0.010151 -0.0231559,0.0226679 0,0.007941 0.004174,0.0149275 0.0104899,0.0189761 l 0.003107,-0.005382 c -0.004417,-0.003736 -0.005682,-0.0102523 -0.002693,-0.0154291 l 0.005811,-0.0100654 0.002639,0.001523 -0.005827,0.010094 c -0.001261,0.002184 -0.001514,0.004684 -9.0717e-4,0.006949 6.0733e-4,0.002266 0.002077,0.004304 0.004261,0.005565 0.002184,0.001261 0.004684,0.001515 0.006949,9.0717e-4 0.002266,-6.0733e-4 0.004304,-0.002076 0.005565,-0.004261 l 0.005828,-0.0100937 0.002639,0.001524 -0.005811,0.010065 c -0.002989,0.005177 -0.009265,0.007339 -0.0147087,0.005382 l -0.003006,0.005207 c 0.002719,0.001098 0.005698,0.001705 0.008821,0.001705 z m 0.00961,-0.0379537 0,0 c 0.00313,0.001807 0.004211,0.005846 0.002405,0.008975 l -0.001517,0.002627 -0.0113783,-0.00657 0.001516,-0.002627 c 0.001807,-0.00313 0.005845,-0.004212 0.008974,-0.002405 z m -4.6659e-4,0.013948 -0.005086,0.008809 c -0.001806,0.003128 -0.005845,0.004211 -0.008974,0.002405 l 0,0 c -0.003129,-0.001807 -0.004212,-0.005845 -0.002405,-0.008974 l 0.005086,-0.008809 0.0113787,0.00657 z"
     id="path12-5-5"
     style="fill:#333333;fill-opacity:1;fill-rule:evenodd" /></g></svg>