<?xml version="1.0" encoding="UTF-8" standalone="no"?>
<!-- Created with Inkscape (http://www.inkscape.org/) -->

<svg
   xmlns:dc="http://purl.org/dc/elements/1.1/"
   xmlns:cc="http://creativecommons.org/ns#"
   xmlns:rdf="http://www.w3.org/1999/02/22-rdf-syntax-ns#"
   xmlns:svg="http://www.w3.org/2000/svg"
   xmlns="http://www.w3.org/2000/svg"
   xmlns:xlink="http://www.w3.org/1999/xlink"
   xmlns:sodipodi="http://sodipodi.sourceforge.net/DTD/sodipodi-0.dtd"
   xmlns:inkscape="http://www.inkscape.org/namespaces/inkscape"
   width="594.44"
   height="327.29999"
   id="svg4750"
   version="1.1"
   inkscape:version="0.47pre4 r22446"
   sodipodi:docname="Splash rev2.svg"
   inkscape:export-filename="/home/jrios/Projects/guayadeque/src/images/orig/splash.png.png"
   inkscape:export-xdpi="75.220993"
   inkscape:export-ydpi="75.220993">
  <defs
     id="defs4752">
    <inkscape:perspective
       sodipodi:type="inkscape:persp3d"
       inkscape:vp_x="0 : 526.18109 : 1"
       inkscape:vp_y="0 : 1000 : 0"
       inkscape:vp_z="744.09448 : 526.18109 : 1"
       inkscape:persp3d-origin="372.04724 : 350.78739 : 1"
       id="perspective4758" />
    <inkscape:perspective
       id="perspective4678"
       inkscape:persp3d-origin="0.5 : 0.33333333 : 1"
       inkscape:vp_z="1 : 0.5 : 1"
       inkscape:vp_y="0 : 1000 : 0"
       inkscape:vp_x="0 : 0.5 : 1"
       sodipodi:type="inkscape:persp3d" />
    <linearGradient
       id="linearGradient3131">
      <stop
         style="stop-color:#1f1a17;stop-opacity:1;"
         offset="0"
         id="stop3133" />
      <stop
         style="stop-color:#ffffff;stop-opacity:1;"
         offset="1"
         id="stop3135" />
    </linearGradient>
    <linearGradient
       id="linearGradient3139">
      <stop
         style="stop-color:#a3ce27;stop-opacity:1;"
         offset="0"
         id="stop3141" />
      <stop
         style="stop-color:#ffffff;stop-opacity:1;"
         offset="1"
         id="stop3143" />
    </linearGradient>
    <filter
       id="filter3385"
       inkscape:label="Drop shadow"
       width="1.5"
       height="1.5"
       x="-0.25"
       y="-0.25"
       color-interpolation-filters="sRGB">
      <feGaussianBlur
         id="feGaussianBlur3387"
         in="SourceAlpha"
         stdDeviation="3.500000"
         result="blur" />
      <feColorMatrix
         id="feColorMatrix3389"
         result="bluralpha"
         type="matrix"
         values="1 0 0 0 0 0 1 0 0 0 0 0 1 0 0 0 0 0 0.210000 0 " />
      <feOffset
         id="feOffset3391"
         in="bluralpha"
         dx="2.900000"
         dy="1.800000"
         result="offsetBlur" />
      <feMerge
         id="feMerge3393">
        <feMergeNode
           id="feMergeNode3395"
           in="offsetBlur" />
        <feMergeNode
           id="feMergeNode3397"
           in="SourceGraphic" />
      </feMerge>
    </filter>
    <radialGradient
       inkscape:collect="always"
       xlink:href="#linearGradient3401"
       id="radialGradient3407"
       cx="366.68536"
       cy="563.03107"
       fx="366.68536"
       fy="563.03107"
       r="306.14008"
       gradientTransform="matrix(-2.6057274,-0.00410119,0.00336409,-2.3530046,1297.8311,1869.3515)"
       gradientUnits="userSpaceOnUse" />
    <linearGradient
       id="linearGradient3401">
      <stop
         style="stop-color:#000000;stop-opacity:0;"
         offset="0"
         id="stop3403" />
      <stop
         id="stop3409"
         offset="0.27777779"
         style="stop-color:#000000;stop-opacity:0;" />
      <stop
         style="stop-color:#005d8f;stop-opacity:0.58039218;"
         offset="1"
         id="stop3405" />
    </linearGradient>
    <linearGradient
       inkscape:collect="always"
       xlink:href="#linearGradient3139"
       id="linearGradient5432"
       gradientUnits="userSpaceOnUse"
       gradientTransform="translate(-13.407434,-13.551604)"
       x1="191.92899"
       y1="563.95343"
       x2="8.0812206"
       y2="743.25549" />
    <linearGradient
       inkscape:collect="always"
       xlink:href="#linearGradient3131"
       id="linearGradient5434"
       gradientUnits="userSpaceOnUse"
       gradientTransform="translate(-13.407434,-13.551604)"
       x1="200.30351"
       y1="525.39301"
       x2="-3.0304544"
       y2="341.71985" />
    <radialGradient
       inkscape:collect="always"
       xlink:href="#linearGradient3401"
       id="radialGradient2860"
       gradientUnits="userSpaceOnUse"
       gradientTransform="matrix(-2.6057274,-0.00410119,0.00336409,-2.3530046,1297.8311,1869.3515)"
       cx="366.68536"
       cy="563.03107"
       fx="366.68536"
       fy="563.03107"
       r="306.14008" />
    <radialGradient
       inkscape:collect="always"
       xlink:href="#linearGradient3401"
       id="radialGradient2876"
       gradientUnits="userSpaceOnUse"
       gradientTransform="matrix(-2.6057274,-0.00410119,0.00336409,-2.3530046,1297.8311,1869.3515)"
       cx="366.68536"
       cy="563.03107"
       fx="366.68536"
       fy="563.03107"
       r="306.14008" />
    <linearGradient
       inkscape:collect="always"
       xlink:href="#linearGradient3139"
       id="linearGradient2878"
       gradientUnits="userSpaceOnUse"
       gradientTransform="translate(-13.407434,-13.551604)"
       x1="191.92899"
       y1="563.95343"
       x2="8.0812206"
       y2="743.25549" />
    <linearGradient
       inkscape:collect="always"
       xlink:href="#linearGradient3131"
       id="linearGradient2880"
       gradientUnits="userSpaceOnUse"
       gradientTransform="translate(-13.407434,-13.551604)"
       x1="200.30351"
       y1="525.39301"
       x2="-3.0304544"
       y2="341.71985" />
    <radialGradient
       inkscape:collect="always"
       xlink:href="#linearGradient3401"
       id="radialGradient2890"
       gradientUnits="userSpaceOnUse"
       gradientTransform="matrix(-2.6399245,-0.00416317,0.00340824,-2.3885647,1310.2706,1890.3033)"
       cx="366.68536"
       cy="563.03107"
       fx="366.68536"
       fy="563.03107"
       r="306.14008" />
    <radialGradient
       inkscape:collect="always"
       xlink:href="#linearGradient3401"
       id="radialGradient2857"
       gradientUnits="userSpaceOnUse"
       gradientTransform="matrix(-2.6374398,-0.00419265,0.00340502,-2.4054683,1309.0778,1898.735)"
       cx="366.68536"
       cy="563.03107"
       fx="366.68536"
       fy="563.03107"
       r="306.14008" />
    <linearGradient
       inkscape:collect="always"
       xlink:href="#linearGradient3139"
       id="linearGradient2861"
       gradientUnits="userSpaceOnUse"
       gradientTransform="translate(-13.407434,-13.551604)"
       x1="191.92899"
       y1="563.95343"
       x2="8.0812206"
       y2="743.25549" />
    <linearGradient
       inkscape:collect="always"
       xlink:href="#linearGradient3131"
       id="linearGradient2863"
       gradientUnits="userSpaceOnUse"
       gradientTransform="translate(-13.407434,-13.551604)"
       x1="200.30351"
       y1="525.39301"
       x2="-3.0304544"
       y2="341.71985" />
  </defs>
  <sodipodi:namedview
     id="base"
     pagecolor="#ffffff"
     bordercolor="#666666"
     borderopacity="1.0"
     inkscape:pageopacity="0.0"
     inkscape:pageshadow="2"
     inkscape:zoom="1.3976008"
     inkscape:cx="284.76015"
     inkscape:cy="92.339639"
     inkscape:document-units="px"
     inkscape:current-layer="layer1"
     showgrid="false"
     inkscape:window-width="1280"
     inkscape:window-height="948"
     inkscape:window-x="0"
     inkscape:window-y="0"
     inkscape:window-maximized="1" />
  <metadata
     id="metadata4755">
    <rdf:RDF>
      <cc:Work
         rdf:about="">
        <dc:format>image/svg+xml</dc:format>
        <dc:type
           rdf:resource="http://purl.org/dc/dcmitype/StillImage" />
        <dc:title></dc:title>
      </cc:Work>
    </rdf:RDF>
  </metadata>
  <g
     inkscape:label="Layer 1"
     inkscape:groupmode="layer"
     id="layer1"
     transform="translate(-42.782341,-371.57152)">
    <g
       id="g2865"
       inkscape:export-filename="/home/jrios/Projects/guayadeque/src/images/orig/splash.png"
       inkscape:export-xdpi="75.699997"
       inkscape:export-ydpi="75.699997">
      <path
         d="m 42.782341,698.87151 594.439999,0 0,-327.3 -594.439999,0 z"
         style="fill:#ffffff;fill-opacity:1;fill-rule:evenodd;stroke:none"
         id="3" />
      <path
         id="path4905"
         d="m 153.96684,411.86995 c -21.87726,0.12535 -45.45672,4.45078 -69.459161,13.38309 -10.64258,3.96054 -27.224454,12.94034 -41.725338,22.16464 l 0,237.5235 c 12.615544,2.25974 26.157172,2.85732 40.514876,1.82657 26.644433,-1.91285 57.129633,-11.07681 82.026603,-24.69374 6.67184,-3.64903 12.46416,-6.78756 12.88786,-6.95499 0.42368,-0.16744 7.0246,-4.96283 14.66796,-10.67837 33.37566,-24.95767 56.91573,-55.44861 68.56911,-88.79908 10.20741,-29.21231 10.85469,-54.56731 1.99369,-78.68274 -15.44815,-42.04253 -57.66105,-65.38577 -109.4756,-65.08888 z"
         style="fill:#0092d6;fill-opacity:1;stroke:none" />
      <rect
         y="371.57153"
         x="42.782341"
         height="327.29999"
         width="594.44"
         id="rect3399"
         style="fill:url(#radialGradient2857);fill-opacity:1" />
      <path
         id="5"
         d="m 463.93482,506.41262 -0.85008,0.0274 -0.8775,0.0548 -0.85008,0.10969 -0.85009,0.16453 -0.8775,0.19195 -3.18095,0.85009 7.26683,27.33972 -0.41133,0.0549 -0.41133,0.0822 -0.43875,0.0822 -0.38391,0.10969 -0.57586,0.16453 -0.60329,0.19195 -0.54844,0.21938 -0.54844,0.21938 -0.52101,0.27422 -0.52102,0.32906 -0.4936,0.30164 -0.49359,0.32907 -0.43876,0.32906 -0.41133,0.38391 -0.43875,0.41133 -0.38391,0.38391 -0.35648,0.41133 -0.35649,0.43875 -0.32906,0.46617 -0.30164,0.46618 -0.27422,0.46617 -0.27422,0.52102 -0.2468,0.49359 -0.19196,0.4936 -0.19195,0.52102 -0.13711,0.54844 -0.13711,0.52101 -0.10969,0.52102 -0.0822,0.57586 -0.0274,0.54844 -0.0274,0.54844 0,0.57587 0.0548,0.54844 0.0548,0.54844 0.10969,0.60328 0.13711,0.54844 0.16453,0.54844 0.16453,0.54844 0.21938,0.52102 0.27422,0.49359 0.27422,0.52102 0.27422,0.46617 0.30164,0.43876 0.35649,0.43875 0.35648,0.43875 0.38391,0.41133 0.38391,0.38391 0.43875,0.35648 0.41133,0.35649 0.46618,0.30164 0.46617,0.30164 0.46617,0.27422 0.52102,0.2468 0.4936,0.2468 0.54844,0.19195 0.52101,0.21938 0.52102,0.16453 0.57586,0.10969 0.54844,0.10969 0.57587,0.0822 0.57586,0.0548 0.60328,0.0548 0.54844,0 0.63071,-0.0274 0.57586,-0.0548 0.60328,-0.0822 0.57586,-0.10969 0.63071,-0.13711 0.57586,-0.16453 0.57586,-0.21937 0.54844,-0.21938 0.54844,-0.2468 0.52102,-0.27422 0.4936,-0.27422 0.52102,-0.30164 0.46617,-0.35648 0.46617,-0.35649 0.41133,-0.35649 0.41133,-0.3839 0.41133,-0.41133 0.35649,-0.43876 0.35649,-0.41133 0.32906,-0.46617 0.32906,-0.43875 0.27422,-0.4936 0.2468,-0.49359 0.21938,-0.4936 0.24679,-0.52102 0.16454,-0.52102 0.16453,-0.52101 0.10969,-0.54844 0.10968,-0.54844 0.0822,-0.54844 0.0274,-0.54844 0.0274,-0.54844 0,-0.54844 -0.0548,-0.60329 -0.0549,-0.54844 -0.10968,-0.54844 -0.13711,-0.57586 -0.32907,-1.34368 -0.3839,-1.34367 -0.35649,-1.3711 -0.35649,-1.34368 -0.3839,-1.34368 -0.32907,-1.34368 -0.35648,-1.34367 -0.38391,-1.3711 -0.35649,-1.34368 -0.32906,-1.3711 -0.35649,-1.31626 -0.38391,-1.34367 -0.35648,-1.3711 -0.32907,-1.34368 -0.3839,-1.31626 -0.35649,-1.3711 9.89934,-2.60509 -0.2468,-0.82266 -0.27422,-0.85008 -0.32906,-0.79524 -0.35649,-0.76781 -0.41133,-0.74039 -0.41133,-0.7404 -0.49359,-0.71297 -0.46618,-0.65813 -0.54844,-0.65813 -0.54844,-0.60328 -0.60328,-0.60328 -0.60328,-0.54844 -0.63071,-0.52102 -0.65813,-0.4936 -0.68555,-0.46617 -0.68555,-0.43875 -0.74039,-0.38391 -0.7404,-0.35649 -0.76781,-0.35648 -0.76782,-0.27422 -0.76781,-0.2468 -0.82266,-0.21938 -0.82266,-0.16453 -0.79524,-0.13711 -0.85008,-0.10969 -0.85008,-0.0548 -0.85009,0 z m 32.76926,14.42397 -0.82266,0.0548 -0.79519,0.10969 -0.79529,0.10969 -0.74035,0.16453 -0.76783,0.21937 -0.71297,0.21938 -0.71297,0.27422 -0.71297,0.30164 -0.65813,0.32907 -0.65813,0.35648 -0.63071,0.43875 -0.6307,0.43875 -0.57586,0.46618 -0.60329,0.54844 -0.57586,0.52102 -0.54844,0.57586 -0.4936,0.6307 -0.46617,0.60329 -0.43875,0.60328 -0.41133,0.68555 -0.35649,0.65813 -0.35648,0.65813 -0.27422,0.74039 -0.27422,0.71297 -0.21938,0.76782 -0.19195,0.74039 -0.16453,0.79524 -0.10969,0.76782 -0.10969,0.85008 -0.0274,0.82266 -0.0274,0.85008 0.0274,0.82266 0.0274,0.82266 0.10969,0.79524 0.10969,0.79523 0.16453,0.7404 0.19195,0.74039 0.21938,0.7404 0.27422,0.68555 0.27422,0.71297 0.35648,0.65813 0.35649,0.65812 0.41133,0.65813 0.46617,0.60329 0.43875,0.6307 0.52102,0.57586 0.54844,0.54844 0.54844,0.57586 0.60329,0.4936 0.60328,0.46617 0.65813,0.41133 0.6307,0.43876 0.68555,0.35648 0.71298,0.32907 0.68555,0.30164 0.76781,0.2468 0.74039,0.21937 0.76779,0.21938 0.82266,0.16453 0.79529,0.10969 0.85003,0.0822 0.87751,0.0548 0.85012,0.0274 1.15173,-0.0274 1.06941,-0.0822 1.0695,-0.10969 1.01457,-0.19195 0.4936,-0.10969 0.49359,-0.13711 0.46622,-0.13711 0.46613,-0.13711 0.43875,-0.13711 0.43876,-0.19195 0.43875,-0.16453 0.41137,-0.19196 0.41129,-0.21937 0.43875,-0.21938 0.38391,-0.21938 0.38391,-0.27422 0.41137,-0.27422 0.35644,-0.27422 0.35653,-0.27422 0.38391,-0.30164 0.35644,-0.35648 0.32906,-0.32907 0.35653,-0.32906 0.32907,-0.35649 0.63066,-0.76781 0.63075,-0.82266 -6.41675,-2.989 -0.3839,0.35649 -0.38391,0.35648 -0.43875,0.30164 -0.41138,0.27422 -0.41128,0.27422 -0.43876,0.2468 -0.43875,0.21938 -0.43875,0.21937 -0.4936,0.16454 -0.46621,0.13711 -0.46613,0.13711 -0.52107,0.10968 -0.46613,0.0822 -0.52106,0.0548 -0.52097,0.0274 -0.54844,0 -0.43875,0 -0.41138,-0.0274 -0.43875,-0.0274 -0.41128,-0.0548 -0.38391,-0.0548 -0.41138,-0.0822 -0.35644,-0.10969 -0.38391,-0.10968 -0.3839,-0.10969 -0.32907,-0.13711 -0.32906,-0.19196 -0.32907,-0.16453 -0.3565,-0.19195 -0.30164,-0.19196 -0.27422,-0.19195 -0.30164,-0.2468 -0.30164,-0.21937 -0.2468,-0.27422 -0.2468,-0.27422 -0.2468,-0.27422 -0.21937,-0.27422 -0.21938,-0.30165 -0.21938,-0.27422 -0.16453,-0.32906 -0.16453,-0.32906 -0.16453,-0.32907 -0.13711,-0.35648 -0.10969,-0.32907 -0.16453,-0.41133 -0.0822,-0.35648 -0.0822,-0.38391 -0.0822,-0.38391 24.46044,0 0.0272,-1.45336 -0.0272,-0.93235 -0.0544,-0.87751 -0.0825,-0.90492 -0.10969,-0.82266 -0.16453,-0.85008 -0.192,-0.79524 -0.21938,-0.79524 -0.27422,-0.76781 -0.3016,-0.71298 -0.32906,-0.74039 -0.35653,-0.68555 -0.41128,-0.68555 -0.43876,-0.65813 -0.46621,-0.60328 -0.52098,-0.63071 -0.52106,-0.57586 -0.60328,-0.52102 -0.57582,-0.54844 -0.63075,-0.46617 -0.60329,-0.43875 -0.6855,-0.43875 -0.65813,-0.35649 -0.71297,-0.32906 -0.71297,-0.30165 -0.74044,-0.27422 -0.76782,-0.21937 -0.74035,-0.21938 -0.82266,-0.16453 -0.82266,-0.10969 -0.82266,-0.10969 -0.8775,-0.0548 -0.90497,0 -0.82266,0 z m 102.94216,0 -0.82266,0.0548 -0.82266,0.10969 -0.76781,0.10969 -0.76782,0.16453 -0.71297,0.21937 -0.74035,0.21938 -0.74044,0.27422 -0.65813,0.30164 -0.6855,0.32907 -0.65813,0.35648 -0.65813,0.43875 -0.60328,0.43875 -0.60329,0.46618 -0.5759,0.54844 -0.57582,0.52102 -0.54844,0.57586 -0.52106,0.6307 -0.46613,0.60329 -0.41137,0.60328 -0.43876,0.68555 -0.35644,0.65813 -0.30168,0.65813 -0.3016,0.74039 -0.27422,0.71297 -0.21938,0.76782 -0.192,0.74039 -0.16453,0.79524 -0.10969,0.76782 -0.0825,0.85008 -0.0544,0.82266 -0.0272,0.85008 0.0272,0.82266 0.0544,0.82266 0.0825,0.79524 0.10969,0.79523 0.16453,0.7404 0.192,0.74039 0.21938,0.7404 0.27422,0.68555 0.3016,0.71297 0.32906,0.65813 0.35653,0.65812 0.41129,0.65813 0.43875,0.60329 0.46621,0.6307 0.52098,0.57586 0.52106,0.54844 0.60328,0.57586 0.57582,0.4936 0.60329,0.46617 0.63075,0.41133 0.65812,0.43876 0.65813,0.35648 0.71297,0.32907 0.74035,0.30164 0.71298,0.2468 0.76781,0.21937 0.76782,0.21938 0.79528,0.16453 0.82266,0.10969 0.82266,0.0822 0.8775,0.0548 0.87751,0.0274 1.15172,-0.0274 1.09688,-0.0822 1.01457,-0.10969 1.01466,-0.19195 0.52097,-0.10969 0.46622,-0.13711 0.49359,-0.13711 0.43876,-0.13711 0.43875,-0.13711 0.46613,-0.19195 0.43875,-0.16453 0.41137,-0.19196 0.41129,-0.21937 0.41137,-0.21938 0.38391,-0.21938 0.41129,-0.27422 0.38391,-0.27422 0.35653,-0.27422 0.41128,-0.27422 0.35653,-0.30164 0.32907,-0.35648 0.35644,-0.32907 0.35653,-0.32906 0.32906,-0.35649 0.65813,-0.76781 0.57582,-0.82266 -6.38928,-2.989 -0.41138,0.35649 -0.38391,0.35648 -0.41128,0.30164 -0.41138,0.27422 -0.43875,0.27422 -0.41128,0.2468 -0.46622,0.21938 -0.43875,0.21937 -0.46613,0.16454 -0.4936,0.13711 -0.46622,0.13711 -0.49359,0.10968 -0.4936,0.0822 -0.49359,0.0548 -0.54844,0.0274 -0.52098,0 -0.43875,0 -0.43875,-0.0274 -0.41138,-0.0274 -0.41128,-0.0548 -0.41138,-0.0548 -0.3839,-0.0822 -0.38391,-0.10969 -0.35644,-0.10968 -0.35653,-0.10969 -0.35645,-0.13711 -0.35652,-0.19196 -0.32907,-0.16453 -0.3016,-0.19195 -0.32906,-0.19196 -0.30169,-0.19195 -0.30159,-0.2468 -0.27422,-0.21937 -0.24685,-0.27427 -0.27422,-0.27422 -0.24675,-0.27422 -0.21938,-0.27422 -0.19199,-0.30164 -0.19191,-0.27422 -0.21938,-0.32906 -0.16453,-0.32907 -0.16453,-0.32906 -0.13716,-0.35649 -0.10969,-0.32906 -0.10968,-0.41133 -0.10969,-0.35649 -0.0825,-0.3839 -0.0825,-0.38391 24.46042,0 0.0272,-1.45337 -0.0272,-0.93235 -0.0544,-0.8775 -0.0825,-0.90493 -0.13706,-0.82266 -0.16453,-0.85008 -0.192,-0.79524 -0.21938,-0.79523 -0.24675,-0.76782 -0.30169,-0.71297 -0.35644,-0.74039 -0.35653,-0.68555 -0.38391,-0.68555 -0.46613,-0.65813 -0.46621,-0.60329 -0.52098,-0.6307 -0.52106,-0.57586 -0.54844,-0.52102 -0.63066,-0.54844 -0.57591,-0.46618 -0.65813,-0.43875 -0.6855,-0.43875 -0.65813,-0.35648 -0.68559,-0.32907 -0.71297,-0.30164 -0.74035,-0.27422 -0.74044,-0.21938 -0.7952,-0.21937 -0.82266,-0.16453 -0.79528,-0.10969 -0.85004,-0.10969 -0.8775,-0.0548 -0.8775,0 -0.82266,0 z m -300.24338,0.79523 -0.68555,0.0549 -0.65813,0.0822 -0.68555,0.0822 -0.65813,0.13711 -0.60328,0.16453 -0.63071,0.21938 -0.60328,0.21938 -0.60329,0.24679 -0.57586,0.32907 -0.57586,0.30164 -0.54844,0.35649 -0.54844,0.3839 -0.54844,0.41133 -0.52102,0.46618 -0.52102,0.46617 -0.52101,0.54844 -0.52102,0.57586 -0.46618,0.60329 -0.43875,0.60328 -0.41133,0.65813 -0.35648,0.65813 -0.32907,0.71297 -0.27422,0.68555 -0.30164,0.71297 -0.21937,0.76782 -0.16454,0.76781 -0.16453,0.82266 -0.10969,0.79524 -0.0822,0.85008 -0.0548,0.85008 -0.0274,0.90493 0.0274,0.82266 0.0274,0.82266 0.0822,0.79524 0.10969,0.76781 0.16453,0.74039 0.16453,0.76782 0.21938,0.71297 0.27422,0.68555 0.24679,0.71297 0.32907,0.63071 0.32906,0.68555 0.38391,0.60328 0.41133,0.60329 0.43875,0.60328 0.4936,0.57586 0.49359,0.54844 0.54844,0.54844 0.54844,0.4936 0.54844,0.43875 0.57586,0.41133 0.57587,0.43875 0.6307,0.32907 0.60329,0.32906 0.65812,0.30164 0.63071,0.2468 0.68555,0.2468 0.68555,0.16453 0.68555,0.16453 0.71297,0.10969 0.71297,0.0822 0.76782,0.0548 0.76781,0.0274 0.65813,-0.0274 0.68555,-0.0274 0.63071,-0.0822 0.65813,-0.0822 0.60328,-0.10968 0.60328,-0.16454 0.57586,-0.19195 0.54844,-0.19195 0.54844,-0.2468 0.54844,-0.27422 0.52102,-0.30164 0.52102,-0.32907 0.54844,-0.38391 0.4936,-0.41133 0.54844,-0.43875 0.49359,-0.46617 -0.0274,0.85008 -0.0274,0.82266 -0.0548,0.74039 -0.0822,0.65813 -0.10969,0.63071 -0.13711,0.54844 -0.13711,0.46617 -0.21937,0.41133 -0.19196,0.38391 -0.2468,0.32906 -0.27422,0.32907 -0.30164,0.30164 -0.35648,0.32906 -0.38391,0.27422 -0.41133,0.2468 -0.46618,0.2468 -0.32906,0.16453 -0.35649,0.13711 0,7.3491 0.65813,-0.10969 0.68555,-0.19196 0.60329,-0.16453 0.65812,-0.16453 0.57587,-0.21938 0.60328,-0.21937 0.54844,-0.2468 0.54844,-0.27422 0.52093,-0.30164 0.52102,-0.32907 0.49359,-0.35648 0.46618,-0.32907 0.46617,-0.3839 0.41133,-0.43876 0.41133,-0.41133 0.41133,-0.43875 0.38391,-0.46617 0.32906,-0.4936 0.35649,-0.52102 0.30164,-0.54844 0.27422,-0.6307 0.2468,-0.60329 0.21937,-0.6307 0.21938,-0.71297 0.19195,-0.71297 0.16454,-0.76782 0.10968,-0.76782 0.10969,-0.82266 0.0822,-0.82266 0.0548,-0.90492 0.0548,-0.87751 0,-0.95977 0,-26.57191 -17.19359,0 -0.68555,0 z m 21.60853,0 0,12.53185 0,1.72759 0.0548,1.6179 0.10969,1.45336 0.0822,1.31626 0.13711,1.15172 0.13711,1.04204 0.16453,0.90492 0.21938,0.76782 0.16453,0.46617 0.16453,0.46618 0.21938,0.49359 0.19195,0.43876 0.21938,0.41133 0.2468,0.43875 0.24679,0.41133 0.27422,0.38391 0.27422,0.3839 0.27422,0.35649 0.30165,0.35648 0.35648,0.35649 0.32907,0.30164 0.32906,0.30164 0.35649,0.30165 0.41133,0.30164 0.3839,0.27422 0.38391,0.2468 0.43875,0.21937 0.43876,0.21938 0.43875,0.19195 0.46617,0.19196 0.4936,0.16453 0.49359,0.16453 0.4936,0.13711 0.52102,0.10969 0.57586,0.0822 0.52102,0.0822 0.60328,0.0548 0.57586,0.0548 0.60329,0 0.60328,0.0274 0.57586,-0.0274 0.54844,0 0.57586,-0.0548 0.4936,-0.0274 0.54844,-0.0822 0.49359,-0.0822 0.4936,-0.0822 0.4936,-0.10969 0.43875,-0.13711 0.49359,-0.16453 0.41133,-0.13711 0.43876,-0.19195 0.43875,-0.16453 0.38391,-0.19196 0.3839,-0.21937 0.38391,-0.21938 0.38391,-0.2468 0.32906,-0.27422 0.32907,-0.27422 0.35648,-0.27422 0.32907,-0.30164 0.30164,-0.30164 0.30164,-0.30164 0.30164,-0.35649 0.27422,-0.32906 0.2468,-0.35649 0.2468,-0.38391 0.27422,-0.3839 0.21937,-0.41133 0.21938,-0.41133 0.19195,-0.41133 0.19196,-0.41133 0.16453,-0.41133 0.16453,-0.41133 0.10969,-0.46618 0.13711,-0.52102 0.10969,-0.52101 0.0822,-0.57587 0.10969,-0.6307 0.0822,-0.63071 0.13711,-1.45336 0.0822,-1.59048 0.0548,-1.72758 0.0274,-1.89212 0,-12.75123 -7.62331,0 0,14.72561 -0.0274,1.04204 0,0.90492 -0.0548,0.85008 -0.0548,0.7404 -0.0548,0.65813 -0.0822,0.54844 -0.0822,0.46617 -0.10969,0.38391 -0.19196,0.41133 -0.19195,0.41133 -0.21938,0.35648 -0.21937,0.35649 -0.2468,0.32906 -0.27422,0.27422 -0.32906,0.27422 -0.30165,0.21938 -0.32906,0.21938 -0.38391,0.16453 -0.35648,0.19195 -0.38391,0.10969 -0.43875,0.10969 -0.41133,0.0548 -0.43875,0.0548 -0.4936,0 -0.43875,0 -0.43875,-0.0548 -0.46618,-0.0548 -0.38391,-0.10969 -0.3839,-0.10969 -0.38391,-0.19195 -0.35649,-0.19196 -0.32906,-0.19195 -0.32907,-0.2468 -0.27422,-0.2468 -0.27422,-0.30164 -0.24679,-0.30164 -0.21938,-0.35649 -0.21938,-0.35648 -0.16453,-0.35649 -0.16453,-0.38391 -0.13711,-0.49359 -0.10969,-0.52102 -0.10969,-0.60328 -0.0822,-0.71298 -0.0548,-0.76781 -0.0274,-0.85008 -0.0274,-0.93235 -0.0274,-1.01461 0,-14.50624 -7.70558,0 z m 43.29932,0 -0.74039,0.0549 -0.68555,0.0822 -0.71297,0.13711 -0.65813,0.13711 -0.68555,0.19195 -0.65813,0.21938 -0.6307,0.27422 -0.63071,0.27422 -0.60328,0.35649 -0.60329,0.35648 -0.57586,0.41133 -0.54844,0.41133 -0.57586,0.4936 -0.52102,0.49359 -0.54844,0.54844 -0.49359,0.57586 -0.4936,0.57587 -0.41133,0.60328 -0.41133,0.65813 -0.38391,0.6307 -0.32906,0.63071 -0.30164,0.71297 -0.27422,0.71297 -0.27422,0.71298 -0.19196,0.74043 -0.19195,0.79524 -0.13711,0.76782 -0.10969,0.82266 -0.0822,0.79523 -0.0274,0.85009 -0.0274,0.85008 0.0274,0.85008 0.0274,0.79524 0.0822,0.79523 0.13711,0.79524 0.13711,0.76782 0.16453,0.74039 0.21938,0.71297 0.27422,0.7404 0.27422,0.68555 0.32906,0.65813 0.32907,0.68555 0.41133,0.6307 0.41133,0.63071 0.43875,0.60328 0.49359,0.60328 0.52102,0.57587 0.54844,0.54844 0.54844,0.49359 0.57586,0.4936 0.57587,0.43875 0.60328,0.41133 0.60328,0.35649 0.63071,0.32906 0.60328,0.32906 0.65813,0.2468 0.63071,0.2468 0.68555,0.19195 0.65812,0.16454 0.71298,0.10968 0.68555,0.0822 0.74039,0.0548 0.74039,0.0274 0.63071,-0.0274 0.63071,-0.0274 0.6307,-0.0822 0.63071,-0.10969 0.57586,-0.10969 0.60328,-0.16453 0.57587,-0.19195 0.57587,-0.21938 0.54844,-0.2468 0.57586,-0.30164 0.54844,-0.32906 0.54844,-0.32907 0.57586,-0.41133 0.54844,-0.41133 0.57586,-0.49359 0.54844,-0.4936 0,3.18095 7.59589,0 0,-1.94696 0,-1.91954 0,-1.94696 0,-1.94696 0,-1.91954 0,-1.91954 0,-1.94696 0,-1.91954 0,-1.91954 0,-1.94696 0,-1.94696 0,-1.91954 0,-1.91954 0,-1.94696 0,-1.91954 0,-1.91954 -17.16617,0 -0.71298,0 z m 20.40198,0 11.51723,27.88817 -6.22479,13.24482 7.84269,0 19.03086,-41.13299 -7.81526,0 -8.7202,18.89376 -7.87011,-18.89376 -7.76042,0 z m 45.1366,0 -0.7404,0.0549 -0.71297,0.0822 -0.68555,0.13711 -0.68555,0.13711 -0.65813,0.19195 -0.65812,0.21938 -0.63071,0.27422 -0.63071,0.27422 -0.60328,0.35649 -0.60328,0.35648 -0.57587,0.41133 -0.57586,0.41133 -0.54844,0.4936 -0.54844,0.49359 -0.52102,0.54844 -0.52101,0.57586 -0.46618,0.57587 -0.41133,0.60328 -0.43875,0.65813 -0.35648,0.6307 -0.32907,0.63071 -0.30164,0.71297 -0.30164,0.71297 -0.2468,0.71298 -0.19195,0.74039 -0.19196,0.79524 -0.13711,0.76781 -0.10969,0.82266 -0.0822,0.79524 -0.0822,0.85008 0,0.85008 0.0548,0.85009 0.0274,0.79523 0.0822,0.79524 0.13711,0.79524 0.13711,0.76781 0.16454,0.7404 0.21937,0.71297 0.2468,0.74039 0.30164,0.68555 0.32907,0.65813 0.32906,0.68555 0.38391,0.63071 0.43875,0.6307 0.43875,0.60329 0.4936,0.60328 0.52101,0.57586 0.52102,0.54844 0.57586,0.4936 0.54844,0.49359 0.60329,0.43876 0.57586,0.41133 0.63071,0.35648 0.60328,0.32907 0.63071,0.32906 0.6307,0.2468 0.65813,0.2468 0.65813,0.19195 0.68555,0.16453 0.71297,0.10969 0.68555,0.0822 0.74039,0.0548 0.71297,0.0274 0.65813,-0.0274 0.60329,-0.0274 0.65812,-0.0822 0.60329,-0.10969 0.60328,-0.10969 0.57586,-0.16453 0.60329,-0.19196 0.54844,-0.21937 0.57586,-0.2468 0.54844,-0.30164 0.57586,-0.32907 0.54844,-0.32906 0.57586,-0.41133 0.54844,-0.41133 0.57586,-0.4936 0.54844,-0.49359 0,3.18095 7.56847,0 0,-1.94696 0,-1.91954 0,-1.94696 0,-1.94696 0,-1.91954 0,-1.91954 0,-1.94696 0,-1.91954 0,-1.91954 0,-1.94697 0,-1.94696 0,-1.91954 0,-1.91954 0,-1.94696 0,-1.91954 0,-1.91954 -17.13874,0 -0.71297,0 z m 101.24197,0 -0.71297,0.0549 -0.74035,0.0822 -0.65813,0.13711 -0.71297,0.13711 -0.63075,0.19195 -0.68551,0.21938 -0.60328,0.27422 -0.65813,0.27422 -0.57591,0.35649 -0.63066,0.35648 -0.54844,0.41133 -0.60328,0.41133 -0.52106,0.4936 -0.57582,0.49359 -0.4936,0.54844 -0.52106,0.57586 -0.46613,0.57587 -0.43875,0.60328 -0.41137,0.65813 -0.35645,0.6307 -0.35653,0.63071 -0.30159,0.71297 -0.27422,0.71297 -0.24685,0.71298 -0.19191,0.74039 -0.19199,0.79524 -0.13707,0.76781 -0.10969,0.82266 -0.0825,0.79524 -0.0825,0.85008 0,0.85008 0,0.85009 0.0825,0.79523 0.0825,0.79524 0.10969,0.79524 0.16453,0.76781 0.16453,0.7404 0.21938,0.71297 0.24675,0.74039 0.30169,0.68555 0.3016,0.65813 0.35653,0.68555 0.38391,0.63071 0.43875,0.6307 0.43875,0.60329 0.4936,0.60328 0.52097,0.57586 0.52106,0.54844 0.57582,0.4936 0.54844,0.49359 0.60328,0.43876 0.57591,0.41133 0.60328,0.35648 0.60329,0.32907 0.65812,0.32906 0.63067,0.2468 0.65812,0.2468 0.65813,0.19195 0.6856,0.16453 0.71297,0.10969 0.6855,0.0822 0.71298,0.0548 0.71297,0.0274 0.65812,-0.0274 0.63075,-0.0274 0.63067,-0.0822 0.60328,-0.10969 0.63075,-0.10969 0.57582,-0.16453 0.60328,-0.19196 0.54844,-0.21937 0.57591,-0.2468 0.54844,-0.30164 0.57582,-0.32907 0.54844,-0.32906 0.5759,-0.41133 0.54844,-0.41133 0.54844,-0.4936 0.54844,-0.49359 0,14.17717 7.59585,0 0,-2.60509 0,-2.63251 0,-2.60509 0,-2.63251 0,-2.60509 0,-2.63251 0,-2.60509 0,-2.63251 0,-2.63252 0,-2.60508 0,-2.63252 0,-2.60509 0,-2.63251 0,-2.60509 0,-2.63251 0,-2.60509 -17.16617,0 -0.71297,0 z m 23.14416,0 0,12.53185 0.0272,1.72759 0.0272,1.6179 0.0825,1.45336 0.0825,1.31626 0.13715,1.15172 0.13707,1.04204 0.192,0.90492 0.19191,0.76782 0.16453,0.46617 0.192,0.46618 0.19191,0.49359 0.21937,0.43876 0.21938,0.41133 0.21937,0.43875 0.27422,0.41133 0.24684,0.38391 0.27422,0.3839 0.3016,0.35649 0.30169,0.35648 0.32906,0.35649 0.32907,0.30164 0.32906,0.30164 0.38391,0.30165 0.38391,0.30164 0.3839,0.27422 0.41129,0.2468 0.41137,0.21937 0.43876,0.21938 0.46613,0.19195 0.46621,0.19196 0.46613,0.16453 0.52107,0.16453 0.49359,0.13711 0.54844,0.10969 0.52097,0.0822 0.57591,0.0822 0.54844,0.0548 0.60328,0.0548 0.60329,0 0.63066,0.0274 0.54844,-0.0274 0.54844,0 0.54844,-0.0548 0.52106,-0.0274 0.52098,-0.0822 0.49359,-0.0822 0.52106,-0.0822 0.46613,-0.10969 0.46622,-0.13711 0.46613,-0.16453 0.43875,-0.13711 0.41138,-0.19195 0.43875,-0.16453 0.38391,-0.19196 0.3839,-0.21937 0.41129,-0.21938 0.35653,-0.2468 0.35644,-0.27422 0.35653,-0.27422 0.32907,-0.27422 0.30159,-0.30164 0.30169,-0.30164 0.32906,-0.30164 0.27422,-0.35649 0.27422,-0.32906 0.24676,-0.35649 0.30168,-0.38391 0.21938,-0.3839 0.21938,-0.41133 0.21937,-0.41133 0.21938,-0.41133 0.19191,-0.41133 0.16453,-0.41133 0.13715,-0.41133 0.13707,-0.46618 0.10969,-0.52102 0.10969,-0.52101 0.10968,-0.57587 0.0825,-0.6307 0.0825,-0.63071 0.13716,-1.45336 0.10969,-1.59048 0.0544,-1.72758 0,-1.89212 0,-12.75123 -7.62331,0 0,14.72561 0,1.04204 -0.0272,0.90492 -0.0272,0.85008 -0.0544,0.7404 -0.0544,0.65813 -0.0825,0.54844 -0.10969,0.46617 -0.10969,0.38391 -0.16453,0.41133 -0.192,0.41133 -0.21938,0.35648 -0.24675,0.35649 -0.24684,0.32906 -0.27422,0.27422 -0.3016,0.27422 -0.32906,0.21938 -0.32907,0.21938 -0.35653,0.16453 -0.38391,0.19195 -0.3839,0.10969 -0.41129,0.10969 -0.43875,0.0548 -0.43875,0.0548 -0.46622,0 -0.46613,0 -0.43875,-0.0548 -0.43875,-0.0548 -0.41138,-0.10969 -0.38391,-0.10969 -0.3839,-0.19195 -0.32907,-0.19196 -0.32906,-0.19195 -0.32907,-0.2468 -0.30159,-0.2468 -0.27422,-0.30164 -0.21938,-0.30164 -0.21938,-0.35649 -0.19199,-0.35648 -0.19191,-0.35649 -0.192,-0.38391 -0.10969,-0.49359 -0.13707,-0.52102 -0.0825,-0.60328 -0.0825,-0.71298 -0.0544,-0.76781 -0.0544,-0.85008 -0.0272,-0.93235 0,-1.01461 0,-14.50624 -7.70562,0 z m -56.35215,5.59409 0.74035,0.0274 0.71297,0.0822 0.65813,0.10969 0.65813,0.19195 0.63075,0.21938 0.63066,0.2468 0.54844,0.35648 0.60328,0.35649 0.4936,0.41133 0.49359,0.43875 0.43876,0.46617 0.3839,0.4936 0.35653,0.52102 0.32907,0.57586 0.24675,0.57586 0.192,0.60328 -16.45321,0 0.32906,-0.65812 0.30164,-0.60329 0.32907,-0.57586 0.3839,-0.52102 0.32907,-0.43875 0.35648,-0.43875 0.38391,-0.35649 0.35649,-0.30164 0.30164,-0.21937 0.30164,-0.19196 0.32904,-0.16453 0.32906,-0.19195 0.32907,-0.16454 0.30168,-0.16453 0.35644,-0.10969 0.35653,-0.13711 0.32907,-0.0822 0.38391,-0.10969 0.35644,-0.0548 0.35653,-0.0822 0.76781,-0.0822 0.76782,-0.0274 z m 102.94216,0 0.71297,0.0274 0.71298,0.0822 0.65812,0.10969 0.65813,0.19195 0.65813,0.21938 0.60328,0.2468 0.60329,0.35648 0.54844,0.35649 0.52097,0.41133 0.4936,0.43875 0.43875,0.46617 0.38391,0.4936 0.35653,0.52102 0.30159,0.57586 0.24685,0.57586 0.21937,0.60328 -16.48066,0 0.32906,-0.65812 0.32907,-0.60329 0.35653,-0.57586 0.32906,-0.52102 0.32907,-0.43875 0.3839,-0.43875 0.35645,-0.35649 0.3839,-0.30164 0.27422,-0.21937 0.32907,-0.19196 0.32906,-0.16453 0.30169,-0.19195 0.32906,-0.16454 0.35644,-0.16453 0.32907,-0.10969 0.32906,-0.13711 0.38391,-0.0822 0.32906,-0.10969 0.35653,-0.0548 0.41129,-0.0822 0.74044,-0.0822 0.76781,-0.0274 z m -234.23869,1.3711 0.43875,0.0274 0.43875,0.0274 0.43876,0.0274 0.41133,0.0822 0.43875,0.0822 0.3839,0.10969 0.38392,0.10968 0.35649,0.13711 0.38391,0.16454 0.35648,0.16453 0.35649,0.21937 0.35648,0.21938 0.32907,0.2468 0.30164,0.2468 0.30164,0.27422 0.32906,0.30164 0.27422,0.30164 0.27422,0.32906 0.2468,0.32907 0.2468,0.35648 0.21938,0.35649 0.16453,0.35649 0.19195,0.3839 0.13711,0.38391 0.13711,0.41133 0.13711,0.41133 0.0822,0.43875 0.0822,0.43875 0.0822,0.43876 0.0548,0.46617 0.0274,0.4936 0,0.46617 0,0.4936 -0.0274,0.49359 -0.0548,0.46618 -0.0822,0.46617 -0.0822,0.43875 -0.0822,0.46618 -0.13711,0.41133 -0.13711,0.41133 -0.13711,0.3839 -0.19195,0.41133 -0.16453,0.35649 -0.21938,0.35648 -0.2468,0.35649 -0.2468,0.32906 -0.27422,0.35671 -0.27422,0.30164 -0.32906,0.30164 -0.30164,0.27422 -0.30164,0.2468 -0.32907,0.2468 -0.35648,0.2468 -0.32907,0.19195 -0.35648,0.19196 -0.38391,0.16453 -0.38391,0.13711 -0.38392,0.13711 -0.3839,0.10969 -0.41133,0.0822 -0.41133,0.0548 -0.43875,0.0549 -0.43876,0.0274 -0.43875,0 -0.43875,0 -0.41133,-0.0274 -0.41133,-0.0549 -0.41133,-0.0548 -0.38391,-0.10969 -0.38391,-0.0822 -0.41133,-0.13711 -0.35648,-0.13711 -0.35649,-0.16453 -0.35648,-0.19196 -0.35649,-0.19195 -0.32906,-0.27422 -0.32907,-0.21938 -0.32906,-0.27422 -0.30164,-0.27422 -0.30165,-0.30164 -0.27422,-0.32906 -0.30164,-0.35649 -0.24679,-0.32906 -0.21938,-0.35649 -0.21938,-0.35649 -0.19195,-0.35648 -0.16453,-0.41133 -0.19196,-0.38391 -0.10968,-0.41133 -0.13711,-0.41133 -0.0822,-0.43875 -0.0822,-0.43875 -0.0822,-0.43875 -0.0274,-0.43876 -0.0274,-0.49359 -0.0274,-0.4936 0.0274,-0.46617 0.0274,-0.4936 0.0274,-0.43875 0.0822,-0.43875 0.0822,-0.43875 0.0822,-0.43876 0.10968,-0.41133 0.13711,-0.3839 0.19196,-0.38391 0.16453,-0.41133 0.19195,-0.35649 0.19196,-0.35648 0.21937,-0.35649 0.2468,-0.32906 0.30164,-0.35649 0.27422,-0.30164 0.27422,-0.30164 0.30164,-0.27422 0.35649,-0.2468 0.30164,-0.2468 0.32907,-0.2468 0.32906,-0.19195 0.38391,-0.19195 0.35648,-0.16454 0.35649,-0.13711 0.41133,-0.10968 0.38391,-0.10969 0.38391,-0.0822 0.41133,-0.0822 0.41133,-0.0274 0.43875,-0.0274 0.43875,-0.0274 z m 65.51115,0 0.46617,0.0274 0.43876,0.0274 0.43875,0.0274 0.41133,0.0822 0.41133,0.0822 0.41133,0.10969 0.38391,0.10968 0.35648,0.13711 0.41133,0.16454 0.32907,0.16453 0.35648,0.21937 0.32906,0.21938 0.35649,0.2468 0.30164,0.2468 0.30164,0.27422 0.30165,0.30164 0.30164,0.30164 0.27422,0.32906 0.2468,0.32907 0.21937,0.35648 0.21938,0.35649 0.19195,0.3567 0.19196,0.38391 0.13711,0.38391 0.13711,0.41133 0.13711,0.41133 0.0822,0.43875 0.0822,0.43875 0.0548,0.43876 0.0549,0.46617 0.0274,0.4936 0.0274,0.46617 -0.0274,0.4936 -0.0274,0.49359 -0.0549,0.46618 -0.0548,0.46617 -0.0822,0.43875 -0.0822,0.46617 -0.13711,0.41133 -0.13711,0.41133 -0.13711,0.38391 -0.19196,0.41133 -0.19195,0.35649 -0.21938,0.35648 -0.21937,0.35649 -0.2468,0.32906 -0.27422,0.35649 -0.30164,0.30164 -0.30165,0.30164 -0.30164,0.27422 -0.30164,0.2468 -0.35649,0.2468 -0.32906,0.2468 -0.32906,0.19195 -0.35649,0.19196 -0.38391,0.16453 -0.3839,0.13711 -0.38391,0.13711 -0.41133,0.10969 -0.38391,0.0822 -0.41133,0.0548 -0.43875,0.0549 -0.43875,0.0274 -0.46618,0 -0.41133,0 -0.41133,-0.0274 -0.43875,-0.0549 -0.38391,-0.0548 -0.38391,-0.10969 -0.41133,-0.0822 -0.3839,-0.13711 -0.35649,-0.13711 -0.35649,-0.16453 -0.3839,-0.19196 -0.32907,-0.19195 -0.32906,-0.27422 -0.35649,-0.21938 -0.30164,-0.27422 -0.30164,-0.27422 -0.30164,-0.30164 -0.30164,-0.32906 -0.27422,-0.35649 -0.2468,-0.32906 -0.21938,-0.35649 -0.21937,-0.35649 -0.21938,-0.35648 -0.16453,-0.41133 -0.16453,-0.38391 -0.13711,-0.41133 -0.10969,-0.41133 -0.0822,-0.43875 -0.0822,-0.43875 -0.0822,-0.43875 -0.0274,-0.43876 -0.0274,-0.49359 -0.0274,-0.4936 0.0274,-0.46617 0.0274,-0.4936 0.0274,-0.43875 0.0822,-0.43875 0.0548,-0.43875 0.10969,-0.43876 0.10968,-0.41133 0.13711,-0.3839 0.16454,-0.38391 0.16453,-0.41133 0.21937,-0.35649 0.19196,-0.35648 0.21937,-0.35649 0.2468,-0.32906 0.27422,-0.35649 0.30164,-0.30164 0.27422,-0.30164 0.30156,-0.27422 0.30164,-0.2468 0.35649,-0.2468 0.32906,-0.2468 0.32906,-0.19195 0.38391,-0.19195 0.35649,-0.16454 0.35648,-0.13711 0.38391,-0.10968 0.41133,-0.10969 0.38391,-0.0822 0.41133,-0.0822 0.41133,-0.0274 0.43875,-0.0274 0.41133,-0.0274 z m 101.26944,0 0.46613,0.0274 0.43875,0.0274 0.43875,0.0274 0.41138,0.0822 0.3839,0.0822 0.43876,0.10969 0.3839,0.10968 0.35645,0.13711 0.35653,0.16454 0.3839,0.16453 0.35645,0.21937 0.32906,0.21938 0.35653,0.2468 0.3016,0.2468 0.30168,0.27422 0.3016,0.30164 0.30169,0.30164 0.24675,0.32906 0.24684,0.32907 0.24676,0.35648 0.19199,0.35649 0.21938,0.35649 0.16453,0.3839 0.16453,0.38391 0.13707,0.41133 0.10969,0.41133 0.10969,0.43875 0.0825,0.43875 0.0544,0.43876 0.0544,0.46617 0.0272,0.4936 0,0.46617 0,0.4936 -0.0272,0.49359 -0.0544,0.46618 -0.0544,0.46617 -0.0825,0.43875 -0.10969,0.46618 -0.10969,0.41133 -0.13707,0.41133 -0.16453,0.3839 -0.16453,0.41133 -0.21938,0.35649 -0.19199,0.35648 -0.24676,0.35649 -0.24684,0.32906 -0.24675,0.35649 -0.30169,0.30164 -0.3016,0.30164 -0.30168,0.27422 -0.3016,0.2468 -0.35653,0.2468 -0.32906,0.2468 -0.35645,0.19195 -0.3839,0.19196 -0.35653,0.16453 -0.35645,0.13711 -0.3839,0.13711 -0.41138,0.10969 -0.41128,0.0822 -0.38391,0.0548 -0.46622,0.0548 -0.41129,0.0274 -0.46621,0 -0.41129,0 -0.41137,-0.0271 -0.43876,-0.0548 -0.3839,-0.0549 -0.41129,-0.10969 -0.41137,-0.0822 -0.35644,-0.13711 -0.35653,-0.13711 -0.35645,-0.16453 -0.3839,-0.19195 -0.32907,-0.19196 -0.32906,-0.27422 -0.35653,-0.21937 -0.3016,-0.27422 -0.30169,-0.27422 -0.30159,-0.30165 -0.30169,-0.32906 -0.27422,-0.35649 -0.24675,-0.32906 -0.21938,-0.35649 -0.21938,-0.35648 -0.21937,-0.35649 -0.16453,-0.41133 -0.16454,-0.38391 -0.13715,-0.41133 -0.10969,-0.41133 -0.10969,-0.43875 -0.0825,-0.43875 -0.0544,-0.43875 -0.0544,-0.43875 -0.0272,-0.4936 0,-0.49359 0,-0.46618 0.0272,-0.49359 0.0544,-0.43876 0.0544,-0.43875 0.0825,-0.43875 0.10969,-0.43875 0.10969,-0.41133 0.13715,-0.38391 0.13707,-0.38391 0.192,-0.41133 0.19191,-0.35648 0.21937,-0.35649 0.21938,-0.35649 0.24684,-0.32906 0.24676,-0.35649 0.30168,-0.30164 0.3016,-0.30164 0.30169,-0.27422 0.30159,-0.2468 0.35653,-0.24679 0.32907,-0.2468 0.32906,-0.19196 0.38391,-0.19195 0.35644,-0.16453 0.35653,-0.13711 0.38391,-0.10969 0.38391,-0.10969 0.41128,-0.0822 0.38391,-0.0822 0.43875,-0.0274 0.41138,-0.0274 0.43875,-0.0274 z m -231.52392,0.0822 0.43876,0.0274 0.41133,0.0274 0.46617,0.0274 0.41133,0.0822 0.38391,0.0822 0.41133,0.0822 0.3839,0.10969 0.38391,0.13711 0.38391,0.16453 0.35649,0.16453 0.32906,0.19196 0.35649,0.2468 0.32906,0.21937 0.30164,0.2468 0.30164,0.2468 0.30165,0.30164 0.27422,0.30164 0.27422,0.32907 0.21937,0.30164 0.21938,0.32906 0.2468,0.32907 0.16453,0.35648 0.16453,0.38391 0.16453,0.38391 0.13711,0.38391 0.10969,0.3839 0.10969,0.41133 0.0548,0.43875 0.0822,0.41133 0.0274,0.43876 0.0274,0.49359 0.0274,0.43875 -0.0274,0.46618 -0.0274,0.46617 -0.0274,0.46618 -0.0822,0.43875 -0.0548,0.41133 -0.10969,0.41133 -0.10969,0.41133 -0.13711,0.38391 -0.13711,0.3839 -0.19195,0.35649 -0.16453,0.35649 -0.2468,0.35648 -0.21938,0.32907 -0.21937,0.32906 -0.27422,0.30164 -0.27422,0.30164 -0.30165,0.30164 -0.30164,0.27422 -0.30164,0.21938 -0.30164,0.2468 -0.35649,0.19195 -0.32906,0.19196 -0.35649,0.19195 -0.38391,0.13711 -0.35648,0.16453 -0.35649,0.10969 -0.41133,0.10969 -0.38391,0.0822 -0.41132,0.0548 -0.43876,0.0548 -0.41133,0.0274 -0.43875,0 -0.46617,0 -0.41133,-0.0274 -0.43875,-0.0548 -0.43876,-0.0548 -0.3839,-0.0822 -0.41133,-0.10969 -0.38391,-0.10969 -0.38391,-0.16453 -0.35649,-0.16427 -0.3839,-0.19195 -0.35649,-0.19196 -0.32906,-0.19195 -0.32907,-0.2468 -0.32906,-0.2468 -0.30164,-0.27422 -0.30165,-0.30164 -0.30164,-0.30164 -0.27422,-0.32906 -0.24679,-0.30165 -0.2468,-0.32906 -0.19196,-0.38391 -0.19195,-0.35648 -0.21938,-0.35649 -0.13711,-0.38391 -0.13711,-0.3839 -0.13711,-0.41133 -0.0822,-0.41133 -0.0822,-0.41133 -0.0822,-0.43876 -0.0274,-0.46617 -0.0274,-0.43875 -0.0274,-0.46618 0.0274,-0.46617 0.0274,-0.43875 0.0274,-0.41133 0.0822,-0.41133 0.0822,-0.43875 0.0822,-0.38391 0.10969,-0.38391 0.13711,-0.38391 0.16453,-0.35648 0.19196,-0.38391 0.19195,-0.35649 0.19196,-0.32906 0.21937,-0.32906 0.2468,-0.32907 0.30164,-0.32906 0.27422,-0.30164 0.27422,-0.27422 0.30164,-0.27422 0.35649,-0.2468 0.30164,-0.21938 0.32906,-0.2468 0.35649,-0.19195 0.35649,-0.19195 0.3839,-0.13711 0.35649,-0.13711 0.41133,-0.13711 0.38391,-0.0822 0.38391,-0.0822 0.43875,-0.0822 0.41133,-0.0274 0.43875,-0.0274 0.46617,-0.0276 z"
         style="fill:#0092d6;fill-opacity:1;fill-rule:nonzero;stroke:none" />
      <g
         transform="matrix(1.1414255,0,0,1.1414255,-10.108015,-88.159391)"
         id="g5425">
        <path
           id="2-4"
           style="fill:#ffffff;fill-opacity:1;fill-rule:nonzero;stroke:none;filter:url(#filter3385)"
           d="m 155.56683,584.993 -1.47056,0.34936 -1.47056,0.28585 -1.47055,0.25411 -1.50253,0.22236 -1.50252,0.19062 -1.50252,0.0951 -1.5345,0.0951 -1.50252,0 -1.24678,0 -1.2148,-0.063 -1.21481,-0.063 -1.21481,-0.0951 -1.18283,-0.15886 -1.21481,-0.15887 -1.15087,-0.19061 -1.18283,-0.22236 -1.15088,-0.25411 -1.15087,-0.28586 -1.15087,-0.28585 -1.1189,-0.34936 -1.1189,-0.34936 -1.08693,-0.3811 -1.08694,-0.41297 -1.08693,-0.44472 -1.05496,-0.44472 -1.05497,-0.50822 -1.02299,-0.50822 -1.023,-0.53997 -1.02299,-0.53997 -0.99102,-0.60346 -0.95907,-0.60347 -0.95906,-0.60346 -0.95906,-0.66708 -0.92707,-0.66791 -0.89512,-0.6988 -0.89512,-0.6988 -0.86315,-0.73056 -0.86315,-0.76233 -0.83119,-0.79409 -0.83118,-0.79409 -0.79922,-0.79409 -0.76724,-0.82585 -0.76725,-0.85762 -0.73528,-0.88938 -0.73528,-0.85762 -0.7033,-0.92114 -0.67135,-0.92114 -0.63937,-0.92115 -0.63937,-0.95291 -0.6074,-0.98467 -0.57544,-0.98467 -0.57543,-0.98467 -0.54347,-1.01644 -0.5115,-1.0482 -0.47952,-1.01643 -0.479534,-1.07996 -0.44756,-1.0482 -0.38363,-1.07996 -0.41559,-1.11173 -0.35165,-1.11173 -0.31969,-1.11172 -0.31969,-1.11173 -0.28771,-1.14349 -0.25575,-1.17525 -0.22378,-1.14349 -0.19181,-1.17525 -0.15985,-1.17526 -0.12787,-1.20701 -0.12788,-1.17526 -0.0639,-1.20701 -0.032,-1.23878 -0.032,-1.20702 0.032,-1.23878 0.032,-1.20702 0.0639,-1.20701 0.12788,-1.20702 0.12787,-1.17525 0.15985,-1.17526 0.19181,-1.17525 0.22378,-1.17525 0.25575,-1.14349 0.28771,-1.1435 0.31969,-1.14349 0.31969,-1.11173 0.35165,-1.11173 0.41559,-1.07996 0.38362,-1.07996 0.44757,-1.07996 0.479524,-1.04819 0.47953,-1.0482 0.5115,-1.01644 0.54347,-1.01644 0.57543,-1.01643 0.57544,-0.98468 0.6074,-0.9529 0.63937,-0.95291 0.63937,-0.9529 0.67135,-0.92115 0.70331,-0.88938 0.73527,-0.88938 0.73528,-0.85762 0.76725,-0.85763 0.76725,-0.82584 0.79921,-0.82585 0.83119,-0.79409 0.83119,-0.76233 0.83119,-0.76233 0.86315,-0.73057 0.89511,-0.69879 0.92709,-0.6988 0.89511,-0.66703 0.95907,-0.63527 0.95906,-0.63528 0.95905,-0.60351 0.99103,-0.57174 0.99103,-0.57174 1.023,-0.53998 1.02299,-0.50822 1.05496,-0.47645 1.05496,-0.47646 1.05496,-0.41293 1.08694,-0.41292 1.08694,-0.41293 1.1189,-0.3494 1.1189,-0.31763 1.1189,-0.31763 1.15086,-0.28587 1.15087,-0.25411 1.15086,-0.22235 1.18284,-0.19059 1.18284,-0.15881 1.18284,-0.15882 1.21481,-0.0952 1.2148,-0.0953 1.21481,-0.0317 1.21481,-0.0317 0,-28.90487 0,-4.12927 4.15592,0 6.29781,0 0.99103,0 0.95906,0.0635 0.92709,0.0318 0.95906,0.0953 0.92709,0.0953 0.92709,0.12706 0.92709,0.15881 0.92709,0.19059 0.89512,0.19058 0.92709,0.22234 0.86315,0.22235 0.89513,0.28587 0.86315,0.25411 0.86315,0.31764 0.86315,0.31763 0.86315,0.3494 0.83119,0.3494 0.79922,0.38116 0.83118,0.41293 0.79922,0.41293 0.79921,0.44469 0.76725,0.44469 0.76725,0.47645 0.73528,0.50822 0.73528,0.50822 0.73527,0.50822 0.70332,0.57174 0.70331,0.53998 0.70331,0.57175 0.67134,0.6035 0.63938,0.60351 0.63937,0.63527 0.63938,0.63528 0.6074,0.63527 0.6074,0.66703 0.57544,0.6988 0.54346,0.66703 0.54346,0.73057 0.54347,0.69879 0.5115,0.76233 0.5115,0.73057 0.44756,0.76233 0.47953,0.76232 0.44756,0.79409 0.41559,0.79409 0.41559,0.82585 0.38362,0.79409 0.35165,0.82585 0.35165,0.85762 0.31969,0.82585 0.28771,0.85762 0.28772,0.88938 0.25575,0.85763 0.25575,0.88938 0.22377,0.88938 0.19182,0.92114 0.19181,0.88939 0.12787,0.92114 0.12788,0.9529 0.12787,0.92115 0.064,0.9529 0.064,0.92115 0.032,0.9529 0.032,0.9529 -0.032,81.156 0,1.01643 -0.032,1.01644 -0.064,0.98469 -0.064,1.01644 -0.096,1.01643 -0.12787,0.98469 -0.15985,0.98469 -0.15984,0.98469 -0.15984,0.98469 -0.22377,0.95294 -0.22378,0.98469 -0.22377,0.95294 -0.28772,0.95294 -0.25575,0.95294 -0.31968,0.92119 -0.31969,0.92119 -0.35165,0.92119 -0.35165,0.92119 -0.38363,0.92119 -0.38362,0.88944 -0.41559,0.88933 -0.41559,0.85757 -0.44756,0.85757 -0.47953,0.85758 -0.47953,0.85757 -0.47952,0.82583 -0.54346,0.82582 -0.51151,0.82583 -0.54346,0.79408 -0.57544,0.79407 -0.57543,0.76233 -0.60741,0.79408 -0.6074,0.76233 -0.63937,0.73057 -0.63938,0.76233 -0.67134,0.73058 -0.67134,0.69883 -0.67133,0.69883 -0.70332,0.69883 -0.73527,0.66708 -0.73528,0.63522 -0.73528,0.66708 -0.76725,0.60347 -0.76725,0.60346 -0.79921,0.60347 -0.79921,0.57171 -0.79922,0.57172 -0.83119,0.53997 -0.83118,0.53996 -0.83119,0.50822 -0.86315,0.50822 -0.86316,0.47647 -0.86315,0.44472 -0.89512,0.44472 -0.89513,0.44472 -0.92709,0.38111 -0.89512,0.3811 -0.92709,0.38111 -0.95905,0.34935 -0.92709,0.31761 -0.95905,0.31761 -0.95907,0.28585 -0.99102,0.28586 -0.95907,0.22236 -5.11497,1.23879 0,-1.96935 0,-1.96935 0,-1.93758 0,-1.96934 0,-1.96934 0,-1.96934 0,-1.96934 0,-1.93758 0,-1.96934 0,-1.96934 0,-1.96935 0,-1.96935 0,-1.93758 0,-1.96934 0,-1.96934 0,-1.96934 2.10992,-1.1753 0.51151,-0.28586 0.47952,-0.31761 0.44756,-0.31761 0.47953,-0.3176 0.44756,-0.34936 0.41559,-0.34935 0.44756,-0.38111 0.38363,-0.3811 0.41559,-0.41298 0.38362,-0.41297 0.38363,-0.41297 0.35165,-0.44472 0.31969,-0.44472 0.31968,-0.47647 0.31969,-0.44472 0.28772,-0.47647 0.22377,-0.38111 0.22378,-0.3811 0.19181,-0.38111 0.15984,-0.3811 -0.86315,0.28586 -0.86315,0.25411 -0.89513,0.25411 -0.86315,0.2541 z" />
        <path
           id="3-0"
           style="fill:url(#linearGradient2861);fill-opacity:1;fill-rule:evenodd;stroke:none"
           d="m 143.35482,582.48368 1.43859,-0.0321 1.43858,-0.063 1.37465,-0.12711 1.40662,-0.15886 1.37465,-0.19062 1.37465,-0.25411 1.34268,-0.28585 1.34268,-0.31761 1.31072,-0.34936 1.31071,-0.41297 1.27874,-0.44472 1.27875,-0.50822 1.24677,-0.50822 1.21481,-0.57171 1.21481,-0.57172 1.18284,-0.63527 0,0.73056 -0.064,0.73058 -0.064,0.69883 -0.064,0.73058 -0.12788,0.69883 -0.12787,0.69883 -0.15984,0.69883 -0.19181,0.66709 -0.19182,0.66708 -0.22377,0.66708 -0.25575,0.63533 -0.25575,0.66708 -0.28772,0.63522 -0.31968,0.60346 -0.31969,0.60347 -0.35165,0.60346 -0.35165,0.57172 -0.38363,0.57171 -0.41559,0.57172 -0.41559,0.53997 -0.44756,0.53997 -0.44756,0.50821 -0.47953,0.50822 -0.47952,0.47647 -0.5115,0.47647 -0.5115,0.44472 -0.5115,0.44472 -0.54347,0.41298 -0.57544,0.41297 -0.57543,0.3811 -0.57544,0.34936 -0.6074,0.34936 0,23.82269 1.75827,-0.47647 1.75827,-0.53997 1.69434,-0.60346 1.66236,-0.69883 1.66237,-0.73058 1.59843,-0.82583 1.56646,-0.88932 1.50253,-0.92119 1.50252,-1.01644 1.40662,-1.07993 1.40662,-1.11169 1.34268,-1.1753 1.31071,-1.20701 1.24678,-1.30231 1.18284,-1.3023 1.15086,-1.39761 1.08694,-1.3976 1.02299,-1.46112 0.95906,-1.52466 0.92709,-1.52465 0.83119,-1.58818 0.79921,-1.61994 0.70332,-1.65171 0.63937,-1.68347 0.57544,-1.71523 0.5115,-1.74701 0.44756,-1.74699 0.35165,-1.81052 0.28772,-1.81053 0.19181,-1.84229 0.12787,-1.84228 0.032,-1.87406 0,-5.33628 0,-5.241 0,-5.1457 0,-5.05041 0,-5.01865 0,-4.95512 0,-4.8916 0,-4.92335 0,-4.8916 0,-4.92336 0,-4.95512 0,-4.98688 0,-5.08218 0,-5.11394 0,-5.24099 0,-5.36805 -43.54123,0 -2.2378,0.0635 -2.20584,0.15881 -2.17386,0.28587 -2.1419,0.38117 -2.10992,0.47646 -2.07796,0.57174 -2.01402,0.69879 -1.98206,0.76233 -1.9181,0.88938 -1.88608,0.95266 -1.82221,1.0482 -1.75827,1.11173 -1.72631,1.20701 -1.6304,1.27055 -1.56646,1.36583 -1.53449,1.42936 -1.43859,1.52466 -1.37465,1.55641 -1.27874,1.65171 -1.21481,1.68347 -1.1189,1.747 -1.05496,1.81052 -0.95906,1.87405 -0.89512,1.90582 -0.76725,1.96934 -0.70331,2.00111 -0.57543,2.06463 -0.47953,2.0964 -0.38362,2.12816 -0.28772,2.15993 -0.159844,2.19169 -0.0639,2.22345 0.0639,2.25521 0.159844,2.19169 0.28772,2.15993 0.38362,2.12816 0.47953,2.09639 0.57543,2.06464 0.70331,2.0011 0.76725,1.96935 0.89512,1.90581 0.95906,1.87406 1.05496,1.81052 1.1189,1.747 1.21481,1.71523 1.27874,1.61995 1.37465,1.55641 1.43859,1.52466 1.53449,1.42936 1.56646,1.36583 1.6304,1.27055 1.72631,1.20701 1.75827,1.11173 1.82221,1.0482 1.88615,0.95291 1.9181,0.88932 1.98206,0.76233 2.01402,0.69883 2.07796,0.57171 2.10993,0.47647 2.14189,0.38111 2.17387,0.28586 2.20583,0.15886 2.2378,0.063 z" />
        <path
           id="4"
           style="fill:url(#linearGradient2863);fill-opacity:1;fill-rule:evenodd;stroke:none"
           d="m 153.64871,462.89373 1.7263,0.0318 1.69434,0.15881 1.66237,0.19059 1.6304,0.28587 1.59843,0.38116 1.56646,0.44469 1.56646,0.50822 1.50252,0.60351 1.47056,0.66703 1.43859,0.73056 1.37464,0.79409 1.37465,0.85762 1.27875,0.92115 1.27874,0.98467 1.21481,1.01643 1.15086,1.11173 1.08694,1.14349 1.05497,1.20702 0.99102,1.23878 0.92709,1.30231 0.86315,1.33407 0.79922,1.36583 0.73527,1.42936 0.67134,1.46113 0.57544,1.52466 0.54346,1.52465 0.41559,1.55641 0.38363,1.61995 0.28771,1.61994 0.22377,1.65171 0.12788,1.68347 0.032,1.68347 -19.78857,0 0,2.6999 0,2.69991 0,2.69991 0,2.6999 0,2.69991 0,2.66814 0,2.6999 0,2.69991 0,2.6999 0,2.69991 0,2.69991 0,2.6999 0,2.66814 0,2.69991 0,2.69991 0,2.6999 -0.032,1.11173 -0.064,1.11173 -0.15983,1.07996 -0.19182,1.07996 -0.28771,1.0482 -0.28771,1.01644 -0.38363,1.01643 -0.41559,0.98468 -0.44756,0.98468 -0.5115,0.92114 -0.54346,0.92114 -0.60741,0.88939 -0.63937,0.85762 -0.70331,0.79409 -0.70332,0.79409 -0.76725,0.76232 -0.79921,0.73057 -0.83119,0.66704 -0.89513,0.66703 -0.89512,0.60351 -0.92709,0.53998 -0.99103,0.53998 -0.99102,0.47646 -1.02299,0.44468 -1.023,0.38117 -1.08694,0.3494 -1.08694,0.28587 -1.1189,0.25411 -1.1189,0.19058 -1.18284,0.12705 -1.15087,0.0953 -1.18284,0 -1.18284,0 -1.18283,-0.0953 -1.15087,-0.12705 -1.15088,-0.19058 -1.1189,-0.25411 -1.08694,-0.28587 -1.05496,-0.3494 -1.05496,-0.38117 -1.02299,-0.44468 -0.99103,-0.47646 -0.99103,-0.53998 -0.92708,-0.53998 -0.89512,-0.60351 -0.86315,-0.66704 -0.86315,-0.66703 -0.79921,-0.73057 -0.76726,-0.76232 -0.70331,-0.79409 -0.7033,-0.79409 -0.63938,-0.85762 -0.6074,-0.88939 -0.54346,-0.92114 -0.5115,-0.92114 -0.44757,-0.98468 -0.41558,-0.98468 -0.38363,-1.01643 -0.28771,-1.01644 -0.25575,-1.0482 -0.22378,-1.07996 -0.12787,-1.07996 -0.096,-1.11173 -0.032,-1.11173 0.032,-1.11173 0.096,-1.11173 0.12787,-1.07996 0.22378,-1.07996 0.25575,-1.0482 0.28771,-1.04819 0.38363,-0.98468 0.41558,-0.98468 0.44757,-0.98466 0.5115,-0.92115 0.54346,-0.92114 0.6074,-0.88938 0.63938,-0.85762 0.7033,-0.82585 0.70331,-0.76233 0.76726,-0.76233 0.79921,-0.73057 0.86315,-0.66703 0.86315,-0.66703 0.89512,-0.60352 0.92708,-0.57174 0.99103,-0.50822 0.99103,-0.47645 1.02299,-0.44469 1.05496,-0.38116 1.05496,-0.34941 1.08694,-0.28587 1.1189,-0.25411 1.15088,-0.19057 1.15087,-0.12706 1.18283,-0.0952 1.18284,-0.0317 0.83119,0.0317 0.79922,0.0317 0.83118,0.0635 0.79922,0.0952 0,-54.63339 6.32978,0 z" />
        <path
           id="14"
           style="fill:#383431;fill-opacity:1;fill-rule:evenodd;stroke:none"
           d="m 136.22582,523.46692 0.38363,0 0.38362,0.0317 0.38363,0.0635 0.35165,0.0635 0.38363,0.0635 0.35165,0.0952 0.35165,0.12706 0.35165,0.12705 0.31969,0.15882 0.31968,0.15881 0.31969,0.19059 0.28771,0.19058 0.31969,0.22235 0.28772,0.19057 0.25575,0.25411 0.25575,0.25411 0.25575,0.25411 0.22377,0.25411 0.22378,0.28587 0.22377,0.31764 0.19182,0.28587 0.19181,0.31763 0.15985,0.31763 0.15984,0.31764 0.12787,0.3494 0.096,0.3494 0.12788,0.34941 0.064,0.3494 0.064,0.38116 0.064,0.38117 0.032,0.38116 0,0.38116 0,0.38117 -0.032,0.38116 -0.064,0.38117 -0.064,0.3494 -0.064,0.3494 -0.12788,0.34941 -0.096,0.3494 -0.12787,0.3494 -0.15984,0.31763 -0.15985,0.34941 -0.19181,0.28587 -0.19182,0.31764 -0.22377,0.28587 -0.22378,0.28587 -0.22377,0.28587 -0.25575,0.25411 -0.25575,0.22235 -0.25575,0.25411 -0.28772,0.22235 -0.31969,0.19057 -0.28771,0.22235 -0.31969,0.15882 -0.31968,0.15881 -0.31969,0.15882 -0.35165,0.12705 -0.35165,0.12706 -0.35165,0.0952 -0.38363,0.0952 -0.35165,0.0635 -0.38363,0.0317 -0.38362,0.0317 -0.38363,0.0317 -0.38362,-0.0317 -0.38363,-0.0317 -0.38362,-0.0317 -0.35165,-0.0635 -0.35165,-0.0952 -0.35165,-0.0952 -0.35166,-0.12706 -0.35165,-0.12705 -0.31968,-0.15882 -0.35165,-0.15881 -0.28772,-0.15882 -0.31969,-0.22235 -0.28771,-0.19057 -0.28771,-0.22235 -0.28771,-0.25411 -0.25575,-0.22235 -0.22378,-0.25411 -0.25575,-0.28587 -0.22378,-0.28587 -0.19181,-0.28587 -0.22377,-0.31764 -0.15984,-0.28587 -0.15984,-0.34941 -0.15985,-0.31763 -0.12788,-0.3494 -0.12787,-0.3494 -0.096,-0.34941 -0.096,-0.3494 -0.064,-0.3494 -0.032,-0.38117 -0.032,-0.38116 -0.032,-0.38117 0.032,-0.38116 0.032,-0.38116 0.032,-0.38117 0.064,-0.38116 0.096,-0.3494 0.096,-0.34941 0.12787,-0.3494 0.12788,-0.3494 0.15985,-0.31764 0.15984,-0.31763 0.15984,-0.31763 0.22377,-0.28587 0.19181,-0.31764 0.22378,-0.28587 0.25575,-0.25411 0.22378,-0.25411 0.25575,-0.25411 0.28771,-0.25411 0.28771,-0.19057 0.28771,-0.22235 0.31969,-0.19058 0.28772,-0.19059 0.35165,-0.15881 0.31968,-0.15882 0.35165,-0.12705 0.35166,-0.12706 0.35165,-0.0952 0.35165,-0.0635 0.35165,-0.0635 0.38362,-0.0635 0.38363,-0.0317 0.38362,0 z" />
        <path
           id="15"
           style="fill:#ffffff;fill-opacity:1;fill-rule:evenodd;stroke:none"
           d="m 135.71433,525.37273 0.5115,0.0317 0.5115,0.0635 0.47952,0.12705 0.47953,0.15882 0.44756,0.22235 0.41559,0.25411 0.38362,0.28587 0.35166,0.31764 0.35165,0.38116 0.28771,0.38117 0.25575,0.41292 0.19181,0.44469 0.19182,0.44468 0.096,0.50822 0.096,0.47646 0.032,0.53998 -0.032,0.50822 -0.096,0.50822 -0.096,0.47645 -0.19182,0.44469 -0.19181,0.44468 -0.25575,0.41293 -0.28771,0.38116 -0.35165,0.38117 -0.35166,0.31764 -0.38362,0.28587 -0.41559,0.25411 -0.44756,0.22235 -0.47953,0.15881 -0.47952,0.12706 -0.5115,0.0635 -0.5115,0.0317 -0.5115,-0.0317 -0.51151,-0.0635 -0.47952,-0.12706 -0.47953,-0.15881 -0.44756,-0.22235 -0.41559,-0.25411 -0.38362,-0.28587 -0.35165,-0.31764 -0.31969,-0.38117 -0.31969,-0.38116 -0.22378,-0.41293 -0.22377,-0.44468 -0.19181,-0.44469 -0.096,-0.47645 -0.096,-0.50822 -0.032,-0.50822 0.032,-0.53998 0.096,-0.47646 0.096,-0.50822 0.19181,-0.44468 0.22377,-0.44469 0.22378,-0.41292 0.31969,-0.38117 0.31969,-0.38116 0.35165,-0.31764 0.38362,-0.28587 0.41559,-0.25411 0.44756,-0.22235 0.47953,-0.15882 0.47952,-0.12705 0.51151,-0.0635 0.5115,-0.0317 z" />
      </g>
    </g>
  </g>
</svg>
