<?xml version="1.0" encoding="UTF-8" standalone="no"?>
<!-- Creator: CorelDRAW -->

<svg
   xmlns:dc="http://purl.org/dc/elements/1.1/"
   xmlns:cc="http://creativecommons.org/ns#"
   xmlns:rdf="http://www.w3.org/1999/02/22-rdf-syntax-ns#"
   xmlns:svg="http://www.w3.org/2000/svg"
   xmlns="http://www.w3.org/2000/svg"
   xmlns:sodipodi="http://sodipodi.sourceforge.net/DTD/sodipodi-0.dtd"
   xmlns:inkscape="http://www.inkscape.org/namespaces/inkscape"
   xml:space="preserve"
   width="1.5932in"
   height="0.739079in"
   style="shape-rendering:geometricPrecision; text-rendering:geometricPrecision; image-rendering:optimizeQuality; fill-rule:evenodd; clip-rule:evenodd"
   viewBox="0 0 1.12872 0.523609"
   id="svg2842"
   version="1.1"
   inkscape:version="0.47pre4 r22446"
   sodipodi:docname="stars.svg"><metadata
   id="metadata2864"><rdf:RDF><cc:Work
       rdf:about=""><dc:format>image/svg+xml</dc:format><dc:type
         rdf:resource="http://purl.org/dc/dcmitype/StillImage" /><dc:title></dc:title></cc:Work></rdf:RDF></metadata><sodipodi:namedview
   pagecolor="#ffffff"
   bordercolor="#666666"
   borderopacity="1"
   objecttolerance="10"
   gridtolerance="10"
   guidetolerance="10"
   inkscape:pageopacity="0"
   inkscape:pageshadow="2"
   inkscape:window-width="1387"
   inkscape:window-height="984"
   id="namedview2862"
   showgrid="false"
   showborder="false"
   inkscape:zoom="3.5479592"
   inkscape:cx="55.310761"
   inkscape:cy="33.258556"
   inkscape:window-x="247"
   inkscape:window-y="0"
   inkscape:window-maximized="0"
   inkscape:current-layer="svg2842" />
 <defs
   id="defs2844"><inkscape:perspective
   sodipodi:type="inkscape:persp3d"
   inkscape:vp_x="0 : 33.258556 : 1"
   inkscape:vp_y="0 : 1000 : 0"
   inkscape:vp_z="143.388 : 33.258556 : 1"
   inkscape:persp3d-origin="71.694 : 22.172371 : 1"
   id="perspective2866" />
  <style
   type="text/css"
   id="style2846">
   
    .fil0 {fill:white}
    .fil2 {fill:#B8B3AD}
    .fil1 {fill:#E3BA12}
   
  </style>
 
  
  
  
  
  
  
  
 <inkscape:perspective
   id="perspective2831"
   inkscape:persp3d-origin="0.5 : 0.33333333 : 1"
   inkscape:vp_z="1 : 0.5 : 1"
   inkscape:vp_y="0 : 1000 : 0"
   inkscape:vp_x="0 : 0.5 : 1"
   sodipodi:type="inkscape:persp3d" /><inkscape:perspective
   id="perspective2831-2"
   inkscape:persp3d-origin="0.5 : 0.33333333 : 1"
   inkscape:vp_z="1 : 0.5 : 1"
   inkscape:vp_y="0 : 1000 : 0"
   inkscape:vp_x="0 : 0.5 : 1"
   sodipodi:type="inkscape:persp3d" /><inkscape:perspective
   id="perspective3634"
   inkscape:persp3d-origin="0.5 : 0.33333333 : 1"
   inkscape:vp_z="1 : 0.5 : 1"
   inkscape:vp_y="0 : 1000 : 0"
   inkscape:vp_x="0 : 0.5 : 1"
   sodipodi:type="inkscape:persp3d" /></defs>
 <g
   id="g3648"><path
     class="fil0"
     d="m 0.267447,0.523609 c 0.147681,0 0.267444,-0.117236 0.267444,-0.261804 C 0.534891,0.117237 0.415128,1e-6 0.267447,1e-6 0.119764,1e-6 0,0.117237 0,0.261805 0,0.406373 0.119763,0.523609 0.267447,0.523609 z"
     id="path2850"
     style="fill:#ffffff" /><path
     class="fil1"
     d="m 0.267447,0.490051 c 0.12875,0 0.233165,-0.102211 0.233165,-0.228247 0,-0.126036 -0.104414,-0.228247 -0.233165,-0.228247 -0.128753,0 -0.233165,0.102211 -0.233165,0.228247 0,0.126036 0.104412,0.228247 0.233165,0.228247 z"
     id="path2852"
     style="fill:#4d4d4d" /><path
     class="fil0"
     d="m 0.267444,0.0757077 c 0.0431966,0 0.0415844,0.0661574 0.0571232,0.10647 0.043138,0.002318 0.105555,-0.0196668 0.118904,0.0214212 C 0.4568204,0.2446869 0.3934075,0.263595 0.35987,0.2908289 0.3709934,0.3325723 0.411186,0.3851379 0.3762343,0.4105309 0.3412854,0.4359239 0.3037063,0.3814617 0.2674433,0.3579793 0.2311807,0.3814617 0.1936044,0.435924 0.1586523,0.4105309 0.1237006,0.3851379 0.16389324,0.3325723 0.1750166,0.2908289 0.1414791,0.263595 0.078069,0.2446869 0.0914154,0.2035989 0.1047618,0.1625137 0.1671845,0.1844928 0.2103224,0.1821777 0.2258583,0.1418651 0.2242462,0.0757077 0.2674428,0.0757077 z"
     id="path2854"
     style="fill:#ffffff" /></g><g
   id="g2823"
   inkscape:export-filename="/home/jrios/Descargas/star_12x12.png"
   inkscape:export-xdpi="16.236456"
   inkscape:export-ydpi="16.236456"><path
     class="fil0"
     d="m 0.861277,0.523609 c 0.147681,0 0.267444,-0.117236 0.267444,-0.261804 C 1.128721,0.117237 1.008958,1e-6 0.861277,1e-6 0.713594,1e-6 0.59383,0.117237 0.59383,0.261805 c 0,0.144568 0.119763,0.261804 0.267447,0.261804 z"
     id="path2856"
     style="fill:#ffffff" /><path
     class="fil2"
     d="m 0.861277,0.490051 c 0.12875,0 0.233165,-0.102211 0.233165,-0.228247 0,-0.126036 -0.104414,-0.228247 -0.233165,-0.228247 -0.128753,0 -0.233165,0.102211 -0.233165,0.228247 0,0.126036 0.104412,0.228247 0.233165,0.228247 z"
     id="path2858"
     style="fill:#b8b3ad" /><path
     class="fil0"
     d="m 0.861274,0.0757077 c 0.0431966,0 0.0415844,0.0661574 0.0571204,0.10647 0.0431408,0.002318 0.105558,-0.0196668 0.118907,0.0214212 0.013349,0.041088 -0.0500637,0.0599961 -0.0836012,0.08723 0.0111234,0.0417434 0.051316,0.094309 0.0163643,0.119702 C 0.9351156,0.4359239 0.8975365,0.3814617 0.8612735,0.3579793 0.8250109,0.3814617 0.7874346,0.435924 0.7524825,0.4105309 0.717528,0.3851379 0.75772344,0.3325723 0.7688468,0.2908289 0.7353093,0.263595 0.6718992,0.2446869 0.6852456,0.2035989 0.698592,0.1625137 0.7610147,0.1844928 0.8041526,0.1821777 0.8196885,0.1418651 0.8180764,0.0757077 0.861273,0.0757077 z"
     id="path2860"
     style="fill:#ffffff" /></g>
<path
   style="fill:#4d4d4d;fill-opacity:1;fill-rule:evenodd;stroke:#ffffff;stroke-width:0.01574359;stroke-miterlimit:4;stroke-opacity:1;stroke-dasharray:none"
   id="path2854-0"
   d="m 0.26244821,-0.49622402 c 0.0458871,0 0.0441742,0.0732155 0.060681,0.11782876 0.0458247,0.002565 0.11212913,-0.0217649 0.12630952,0.0237064 0.0141806,0.0454715 -0.0531817,0.0663968 -0.0888079,0.0965362 0.0118162,0.0461968 0.054512,0.10437036 0.0173835,0.1324724 -0.0371256,0.02810201 -0.0770451,-0.0321704 -0.11556667,-0.058158 -0.0385211,0.0259875 -0.0784377,0.0862602 -0.11556668,0.058158 -0.0371285,-0.028102 0.005568,-0.0862756 0.0173835,-0.1324724 -0.0356263,-0.0301394 -0.10298565,-0.0510648 -0.08880809,-0.0965362 0.0141776,-0.0454684 0.08048816,-0.0211444 0.12631273,-0.0237064 0.0165035,-0.0446134 0.014791,-0.11782876 0.0606779,-0.11782876 z"
   class="fil0"
   inkscape:export-filename="/home/jrios/Projects/guayadeque/src/images/orig/star_highlight_tiny.png"
   inkscape:export-xdpi="14.400038"
   inkscape:export-ydpi="14.400038" /><path
   style="fill:#b8b3ad;fill-opacity:1;fill-rule:evenodd;stroke:#ffffff;stroke-width:0.01574359000000000;stroke-miterlimit:4;stroke-dasharray:none;stroke-opacity:1"
   id="path2854-4"
   d="m 0.84511004,-0.5095367 c 0.0458872,0 0.0441743,0.0732157 0.0606812,0.11782909 0.0458248,0.002565 0.11212936,-0.0217649 0.12630986,0.0237065 0.014181,0.0454716 -0.0531822,0.0663969 -0.0888079,0.0965364 0.0118157,0.0461969 0.054512,0.10437067 0.0173832,0.13247281 -0.0371258,0.0281021 -0.0770453,-0.0321705 -0.115567,-0.0581582 -0.0385212,0.0259876 -0.0784379,0.0862605 -0.11556695,0.0581582 -0.0371286,-0.0281021 0.005568,-0.0862758 0.0173835,-0.13247281 -0.0356264,-0.0301395 -0.1029859,-0.0510649 -0.0888082,-0.0965364 0.0141777,-0.0454685 0.0804883,-0.0211445 0.12631303,-0.0237065 0.0165035,-0.0446135 0.0147911,-0.11782909 0.0606781,-0.11782909 z"
   class="fil0"
   inkscape:export-filename="/home/jrios/Projects/guayadeque/src/images/orig/star_normal_tiny.png"
   inkscape:export-xdpi="14.4"
   inkscape:export-ydpi="14.4" /></svg>