<?xml version="1.0" encoding="UTF-8" standalone="no"?>
<!-- Creator: CorelDRAW -->

<svg
   xmlns:dc="http://purl.org/dc/elements/1.1/"
   xmlns:cc="http://creativecommons.org/ns#"
   xmlns:rdf="http://www.w3.org/1999/02/22-rdf-syntax-ns#"
   xmlns:svg="http://www.w3.org/2000/svg"
   xmlns="http://www.w3.org/2000/svg"
   xmlns:xlink="http://www.w3.org/1999/xlink"
   xmlns:sodipodi="http://sodipodi.sourceforge.net/DTD/sodipodi-0.dtd"
   xmlns:inkscape="http://www.inkscape.org/namespaces/inkscape"
   xml:space="preserve"
   width="1.5932in"
   height="0.739079in"
   style="shape-rendering:geometricPrecision; text-rendering:geometricPrecision; image-rendering:optimizeQuality; fill-rule:evenodd; clip-rule:evenodd"
   viewBox="0 0 1.12872 0.523609"
   id="svg2842"
   version="1.1"
   inkscape:version="0.92.5 (2060ec1f9f, 2020-04-08)"
   sodipodi:docname="stars.svg"><metadata
   id="metadata2864"><rdf:RDF><cc:Work
       rdf:about=""><dc:format>image/svg+xml</dc:format><dc:type
         rdf:resource="http://purl.org/dc/dcmitype/StillImage" /><dc:title /></cc:Work></rdf:RDF></metadata><sodipodi:namedview
   pagecolor="#ffffff"
   bordercolor="#666666"
   borderopacity="1"
   objecttolerance="10"
   gridtolerance="10"
   guidetolerance="10"
   inkscape:pageopacity="0"
   inkscape:pageshadow="2"
   inkscape:window-width="1920"
   inkscape:window-height="1031"
   id="namedview2862"
   showgrid="false"
   showborder="false"
   inkscape:zoom="1.5749563"
   inkscape:cx="-321.14398"
   inkscape:cy="142.14193"
   inkscape:window-x="0"
   inkscape:window-y="25"
   inkscape:window-maximized="1"
   inkscape:current-layer="svg2842"
   showguides="true"
   inkscape:guide-bbox="true" />
 <defs
   id="defs2844"><linearGradient
   id="linearGradient3747"><stop
     style="stop-color:#ffffff;stop-opacity:1;"
     offset="0"
     id="stop3757" /><stop
     style="stop-color:#505050;stop-opacity:0;"
     offset="1"
     id="stop3751" /></linearGradient><linearGradient
   inkscape:collect="always"
   id="linearGradient3649"><stop
     style="stop-color:#4d4d4d;stop-opacity:1;"
     offset="0"
     id="stop3651" /><stop
     style="stop-color:#4d4d4d;stop-opacity:0;"
     offset="1"
     id="stop3653" /></linearGradient><inkscape:perspective
   sodipodi:type="inkscape:persp3d"
   inkscape:vp_x="0 : 33.258556 : 1"
   inkscape:vp_y="0 : 1000 : 0"
   inkscape:vp_z="143.388 : 33.258556 : 1"
   inkscape:persp3d-origin="71.694 : 22.172371 : 1"
   id="perspective2866" />
  <style
   type="text/css"
   id="style2846">
   
    .fil0 {fill:white}
    .fil2 {fill:#B8B3AD}
    .fil1 {fill:#E3BA12}
   
  </style>
 
  
  
  
  
  
  
  
 <inkscape:perspective
   id="perspective2831"
   inkscape:persp3d-origin="0.5 : 0.33333333 : 1"
   inkscape:vp_z="1 : 0.5 : 1"
   inkscape:vp_y="0 : 1000 : 0"
   inkscape:vp_x="0 : 0.5 : 1"
   sodipodi:type="inkscape:persp3d" /><inkscape:perspective
   id="perspective2831-2"
   inkscape:persp3d-origin="0.5 : 0.33333333 : 1"
   inkscape:vp_z="1 : 0.5 : 1"
   inkscape:vp_y="0 : 1000 : 0"
   inkscape:vp_x="0 : 0.5 : 1"
   sodipodi:type="inkscape:persp3d" /><inkscape:perspective
   id="perspective3634"
   inkscape:persp3d-origin="0.5 : 0.33333333 : 1"
   inkscape:vp_z="1 : 0.5 : 1"
   inkscape:vp_y="0 : 1000 : 0"
   inkscape:vp_x="0 : 0.5 : 1"
   sodipodi:type="inkscape:persp3d" /><inkscape:perspective
   id="perspective2833"
   inkscape:persp3d-origin="0.5 : 0.33333333 : 1"
   inkscape:vp_z="1 : 0.5 : 1"
   inkscape:vp_y="0 : 1000 : 0"
   inkscape:vp_x="0 : 0.5 : 1"
   sodipodi:type="inkscape:persp3d" /><inkscape:perspective
   id="perspective3627"
   inkscape:persp3d-origin="0.5 : 0.33333333 : 1"
   inkscape:vp_z="1 : 0.5 : 1"
   inkscape:vp_y="0 : 1000 : 0"
   inkscape:vp_x="0 : 0.5 : 1"
   sodipodi:type="inkscape:persp3d" /><radialGradient
   inkscape:collect="always"
   xlink:href="#linearGradient3649"
   id="radialGradient3655"
   cx="0.83723804"
   cy="-0.31274179"
   fx="0.83723804"
   fy="-0.31274179"
   r="0.24415685"
   gradientUnits="userSpaceOnUse" /><inkscape:perspective
   id="perspective3665"
   inkscape:persp3d-origin="0.5 : 0.33333333 : 1"
   inkscape:vp_z="1 : 0.5 : 1"
   inkscape:vp_y="0 : 1000 : 0"
   inkscape:vp_x="0 : 0.5 : 1"
   sodipodi:type="inkscape:persp3d" /><radialGradient
   inkscape:collect="always"
   xlink:href="#linearGradient3649-9"
   id="radialGradient3655-8"
   cx="0.83723801"
   cy="-0.31274179"
   fx="0.83723801"
   fy="-0.31274179"
   r="0.24415685"
   gradientUnits="userSpaceOnUse" /><linearGradient
   inkscape:collect="always"
   id="linearGradient3649-9"><stop
     style="stop-color:#4d4d4d;stop-opacity:1;"
     offset="0"
     id="stop3651-8" /><stop
     style="stop-color:#4d4d4d;stop-opacity:0;"
     offset="1"
     id="stop3653-8" /></linearGradient><radialGradient
   gradientTransform="translate(-0.51449458,-0.00593139)"
   r="0.24415685"
   fy="-0.31274179"
   fx="0.83723801"
   cy="-0.31274179"
   cx="0.83723801"
   gradientUnits="userSpaceOnUse"
   id="radialGradient3674"
   xlink:href="#linearGradient3649-9"
   inkscape:collect="always" /><inkscape:perspective
   id="perspective3713"
   inkscape:persp3d-origin="0.5 : 0.33333333 : 1"
   inkscape:vp_z="1 : 0.5 : 1"
   inkscape:vp_y="0 : 1000 : 0"
   inkscape:vp_x="0 : 0.5 : 1"
   sodipodi:type="inkscape:persp3d" /><radialGradient
   inkscape:collect="always"
   xlink:href="#linearGradient3697-7"
   id="radialGradient3703-6"
   cx="-374.84583"
   cy="-379.48856"
   fx="-374.84583"
   fy="-379.48856"
   r="33.395687"
   gradientTransform="matrix(1,0,0,0.95837794,0,-15.795097)"
   gradientUnits="userSpaceOnUse" /><linearGradient
   inkscape:collect="always"
   id="linearGradient3697-7"><stop
     style="stop-color:#000000;stop-opacity:1;"
     offset="0"
     id="stop3699-1" /><stop
     style="stop-color:#000000;stop-opacity:0;"
     offset="1"
     id="stop3701-7" /></linearGradient><radialGradient
   r="33.395687"
   fy="-379.48856"
   fx="-374.84583"
   cy="-379.48856"
   cx="-374.84583"
   gradientTransform="matrix(1,0,0,0.95837794,0,-15.795097)"
   gradientUnits="userSpaceOnUse"
   id="radialGradient3722"
   xlink:href="#linearGradient3697-7"
   inkscape:collect="always" /><radialGradient
   inkscape:collect="always"
   xlink:href="#linearGradient3747"
   id="radialGradient3761"
   cx="-374.84583"
   cy="-379.48856"
   fx="-374.84583"
   fy="-379.48856"
   r="34.011112"
   gradientTransform="matrix(1,0,0,0.95913108,0,-15.509288)"
   gradientUnits="userSpaceOnUse" /><filter
   inkscape:collect="always"
   style="color-interpolation-filters:sRGB"
   id="filter872"
   x="-0.01171976"
   width="1.0234395"
   y="-0.012286955"
   height="1.0245739"><feGaussianBlur
     inkscape:collect="always"
     stdDeviation="0.0068892313"
     id="feGaussianBlur874" /></filter><filter
   inkscape:collect="always"
   style="color-interpolation-filters:sRGB"
   id="filter884"
   x="-0.01171976"
   width="1.0234395"
   y="-0.012286955"
   height="1.0245739"><feGaussianBlur
     inkscape:collect="always"
     stdDeviation="0.0068892313"
     id="feGaussianBlur886" /></filter></defs>
 <g
   id="g3648"
   transform="matrix(0.73583159,0,0,0.7516877,0,0.13001856)"><path
     class="fil0"
     d="m 0.267447,0.523609 c 0.147681,0 0.267444,-0.117236 0.267444,-0.261804 C 0.534891,0.117237 0.415128,1e-6 0.267447,1e-6 0.119764,1e-6 0,0.117237 0,0.261805 0,0.406373 0.119763,0.523609 0.267447,0.523609 z"
     id="path2850"
     style="fill:#ffffff" /><path
     class="fil1"
     d="m 0.267447,0.490051 c 0.12875,0 0.233165,-0.102211 0.233165,-0.228247 0,-0.126036 -0.104414,-0.228247 -0.233165,-0.228247 -0.128753,0 -0.233165,0.102211 -0.233165,0.228247 0,0.126036 0.104412,0.228247 0.233165,0.228247 z"
     id="path2852"
     style="fill:#4d4d4d" /><path
     class="fil0"
     d="m 0.267444,0.0757077 c 0.0431966,0 0.0415844,0.0661574 0.0571232,0.10647 0.043138,0.002318 0.105555,-0.0196668 0.118904,0.0214212 C 0.4568204,0.2446869 0.3934075,0.263595 0.35987,0.2908289 0.3709934,0.3325723 0.411186,0.3851379 0.3762343,0.4105309 0.3412854,0.4359239 0.3037063,0.3814617 0.2674433,0.3579793 0.2311807,0.3814617 0.1936044,0.435924 0.1586523,0.4105309 0.1237006,0.3851379 0.16389324,0.3325723 0.1750166,0.2908289 0.1414791,0.263595 0.078069,0.2446869 0.0914154,0.2035989 0.1047618,0.1625137 0.1671845,0.1844928 0.2103224,0.1821777 0.2258583,0.1418651 0.2242462,0.0757077 0.2674428,0.0757077 z"
     id="path2854"
     style="fill:#ffffff" /></g><g
   id="g2823"
   inkscape:export-filename="/home/jrios/Descargas/star_12x12.png"
   inkscape:export-xdpi="16.236456"
   inkscape:export-ydpi="16.236456"
   transform="translate(-0.11076843,0.05538422)"><path
     class="fil0"
     d="m 0.861277,0.523609 c 0.147681,0 0.267444,-0.117236 0.267444,-0.261804 C 1.128721,0.117237 1.008958,1e-6 0.861277,1e-6 0.713594,1e-6 0.59383,0.117237 0.59383,0.261805 c 0,0.144568 0.119763,0.261804 0.267447,0.261804 z"
     id="path2856"
     style="fill:#ffffff" /><path
     class="fil2"
     d="m 0.861277,0.490051 c 0.12875,0 0.233165,-0.102211 0.233165,-0.228247 0,-0.126036 -0.104414,-0.228247 -0.233165,-0.228247 -0.128753,0 -0.233165,0.102211 -0.233165,0.228247 0,0.126036 0.104412,0.228247 0.233165,0.228247 z"
     id="path2858"
     style="fill:#b8b3ad" /><path
     class="fil0"
     d="m 0.861274,0.0757077 c 0.0431966,0 0.0415844,0.0661574 0.0571204,0.10647 0.0431408,0.002318 0.105558,-0.0196668 0.118907,0.0214212 0.013349,0.041088 -0.0500637,0.0599961 -0.0836012,0.08723 0.0111234,0.0417434 0.051316,0.094309 0.0163643,0.119702 C 0.9351156,0.4359239 0.8975365,0.3814617 0.8612735,0.3579793 0.8250109,0.3814617 0.7874346,0.435924 0.7524825,0.4105309 0.717528,0.3851379 0.75772344,0.3325723 0.7688468,0.2908289 0.7353093,0.263595 0.6718992,0.2446869 0.6852456,0.2035989 0.698592,0.1625137 0.7610147,0.1844928 0.8041526,0.1821777 0.8196885,0.1418651 0.8180764,0.0757077 0.861273,0.0757077 z"
     id="path2860"
     style="fill:#ffffff" /></g>
<path
   style="fill:#ffffff;fill-opacity:1;fill-rule:evenodd;stroke:url(#radialGradient3655);stroke-width:0.03148718000000000;stroke-miterlimit:4;stroke-opacity:1;stroke-dasharray:none"
   id="path2854-4"
   d="m 0.83723819,-0.49439859 c 0.0441223,0 0.0424752,0.0703997 0.0583473,0.1132972 0.0440623,0.002466 0.10781671,-0.0209278 0.12145181,0.0227947 0.013636,0.0437226 -0.0511367,0.0638431 -0.0853922,0.0928235 0.0113612,0.0444201 0.0524153,0.1003564 0.0167146,0.12737768 -0.0356979,0.0270212 -0.074082,-0.0309332 -0.11112209,-0.0559213 -0.0370396,0.0249881 -0.0754211,0.0829428 -0.11112205,0.0559213 -0.0357006,-0.0270212 0.005354,-0.0829575 0.0167149,-0.12737768 -0.0342562,-0.0289803 -0.0990249,-0.0491009 -0.0853925,-0.0928235 0.0136324,-0.0437197 0.0773926,-0.0203312 0.1214548,-0.0227947 0.0158688,-0.0428976 0.0142222,-0.1132972 0.0583443,-0.1132972 z"
   class="fil0"
   inkscape:export-filename="/home/jrios/Projects/guayadeque/src/images/orig/star_normal_mid.png"
   inkscape:export-xdpi="25.200001"
   inkscape:export-ydpi="25.200001" /><g
   id="g3641"
   transform="matrix(3.1250217,0,0,3.1249972,2.3310772,0.25422306)"
   inkscape:export-filename="/home/jrios/Projects/guayadeque/src/images/orig/star_normal_big.png"
   inkscape:export-xdpi="28.800079"
   inkscape:export-ydpi="28.800079"><path
     inkscape:export-ydpi="25.200001"
     inkscape:export-xdpi="25.200001"
     inkscape:export-filename="/home/jrios/Projects/guayadeque/src/images/orig/star_normal_mid.png"
     class="fil0"
     d="m -0.70502514,-0.52957215 c 0.0141191,0 0.0135921,0.0225279 0.0186711,0.0362551 0.0141,7.8925e-4 0.0345013,-0.006697 0.0388646,0.007294 0.004363,0.0139913 -0.0163638,0.0204298 -0.0273255,0.0297035 0.003635,0.0142144 0.016773,0.0321141 0.005349,0.0407609 -0.0114233,0.008647 -0.0237063,-0.009899 -0.0355591,-0.0178948 -0.0118527,0.007996 -0.0241347,0.0265417 -0.035559,0.0178948 -0.0114242,-0.008647 0.001713,-0.0265464 0.005349,-0.0407609 -0.010962,-0.009274 -0.0316879,-0.0157123 -0.0273256,-0.0297035 0.004362,-0.0139903 0.0247656,-0.006506 0.0388656,-0.007294 0.005078,-0.0137272 0.004551,-0.0362551 0.0186702,-0.0362551 z"
     id="path2854-4-7"
     style="fill:none;stroke:#4d4d4d;stroke-width:0.00968837;stroke-miterlimit:4;stroke-opacity:1;stroke-dasharray:none" /></g><path
   inkscape:connector-curvature="0"
   style="fill:#4d4d4d;fill-opacity:1;stroke:#4d4d4d;stroke-width:0.03027636;stroke-miterlimit:4;stroke-dasharray:none;stroke-opacity:1"
   id="path2854-4-7-3"
   d="m 0.71017016,-1.3770725 c 0.0441229,0 0.042476,0.070399 0.0583481,0.1132969 0.0440632,0.00247 0.10781829,-0.020928 0.12145382,0.022794 0.0136346,0.043723 -0.0511377,0.063843 -0.0853936,0.092823 0.0113595,0.04442 0.0524165,0.1003564 0.0167159,0.1273776 -0.0356984,0.0270218 -0.0740834,-0.030934 -0.11112396,-0.055921 -0.0370403,0.024987 -0.0754222,0.0829427 -0.11112365,0.055921 -0.0357012,-0.027022 0.005353,-0.082957 0.0167159,-0.1273776 -0.0342568,-0.028981 -0.0990263,-0.049101 -0.0853939,-0.092823 0.0136315,-0.04372 0.0773937,-0.020331 0.12145693,-0.022794 0.015869,-0.042897 0.0142221,-0.1132969 0.0583445,-0.1132969 z"
   class="fil0"
   inkscape:export-filename="/home/jrios/Projects/guayadeque/src/images/orig/star_normal_mid.png"
   inkscape:export-xdpi="25.200001"
   inkscape:export-ydpi="25.200001" /><path
   style="fill:#808080;fill-opacity:1;fill-rule:evenodd;stroke:url(#radialGradient3674);stroke-width:0.03148718000000000;stroke-miterlimit:4;stroke-opacity:1;stroke-dasharray:none"
   id="path2854-4-1"
   d="m 0.32274332,-0.50032975 c 0.0441223,0 0.0424752,0.0703997 0.0583473,0.11329721 0.0440623,0.002466 0.10781671,-0.0209278 0.12145181,0.0227947 0.013636,0.0437226 -0.0511367,0.0638431 -0.0853922,0.0928235 0.0113612,0.0444201 0.0524153,0.1003564 0.0167146,0.12737768 -0.0356979,0.0270212 -0.074082,-0.0309332 -0.1111221,-0.0559213 -0.0370396,0.0249881 -0.0754211,0.0829428 -0.11112205,0.0559213 -0.0357006,-0.0270212 0.005354,-0.0829575 0.0167149,-0.12737768 -0.0342562,-0.0289803 -0.0990249,-0.0491009 -0.0853925,-0.0928235 0.0136324,-0.0437197 0.0773926,-0.0203312 0.12145481,-0.0227947 0.0158688,-0.0428976 0.0142222,-0.11329721 0.0583443,-0.11329721 z"
   class="fil0"
   inkscape:export-filename="/home/jrios/Projects/guayadeque/src/images/orig/star_normal_mid.png"
   inkscape:export-xdpi="25.200001"
   inkscape:export-ydpi="25.200001" /><path
   sodipodi:type="star"
   style="fill:#666666;fill-opacity:1;fill-rule:evenodd;stroke:url(#radialGradient3761);stroke-width:5.23085188000000034;stroke-linecap:round;stroke-linejoin:round;stroke-miterlimit:4;stroke-opacity:1;stroke-dasharray:none;stroke-dashoffset:0"
   id="path3695"
   sodipodi:sides="5"
   sodipodi:cx="-375"
   sodipodi:cy="-376.48288"
   sodipodi:r1="33.015148"
   sodipodi:r2="16.507574"
   sodipodi:arg1="0.95758898"
   sodipodi:arg2="1.5859075"
   inkscape:flatsided="false"
   inkscape:rounded="0"
   inkscape:randomized="0"
   d="m -356,-349.48288 -19.24944,-10.49431 -19.55776,9.90784 4.03228,-21.55022 -15.4666,-15.53885 21.74152,-2.82446 9.99888,-19.51138 9.40472,19.80461 21.64625,3.48016 -15.92909,15.06438 3.37924,21.66223 z"
   transform="matrix(0.00588475,0,0,0.00615736,1.3236614,2.0650854)"
   inkscape:export-filename="/home/jrios/Projects/guayadeque/src/images/orig/star_highlight_tiny.png"
   inkscape:export-xdpi="17.667418"
   inkscape:export-ydpi="17.667418" /><path
   sodipodi:type="star"
   style="fill:#ffffff;fill-opacity:1;fill-rule:evenodd;stroke:url(#radialGradient3722);stroke-width:5.23085188000000034;stroke-linecap:round;stroke-linejoin:round;stroke-miterlimit:4;stroke-opacity:0.64658634000000004;stroke-dasharray:none;stroke-dashoffset:0"
   id="path3695-1"
   sodipodi:sides="5"
   sodipodi:cx="-375"
   sodipodi:cy="-376.48288"
   sodipodi:r1="33.015148"
   sodipodi:r2="16.507574"
   sodipodi:arg1="0.95758898"
   sodipodi:arg2="1.5859075"
   inkscape:flatsided="false"
   inkscape:rounded="0"
   inkscape:randomized="0"
   d="m -356,-349.48288 -19.24944,-10.49431 -19.55776,9.90784 4.03228,-21.55022 -15.4666,-15.53885 21.74152,-2.82446 9.99888,-19.51138 9.40472,19.80461 21.64625,3.48016 -15.92909,15.06438 3.37924,21.66223 z"
   transform="matrix(0.00588475,0,0,0.00615736,1.8026059,2.0644588)"
   inkscape:export-filename="/home/jrios/Projects/guayadeque/src/images/orig/star_normal_mid.png"
   inkscape:export-xdpi="24.734388"
   inkscape:export-ydpi="24.734388" /><rect
   style="opacity:1;fill:#3e3e3e;fill-opacity:1;stroke:#fffffd;stroke-width:0.0147596;stroke-miterlimit:4;stroke-dasharray:none;stroke-opacity:0.31707321"
   id="rect862"
   width="3.8610313"
   height="3.0457163"
   x="-5.1730318"
   y="-2.3955934" /><path
   sodipodi:type="star"
   id="path1144"
   sodipodi:sides="5"
   sodipodi:cx="-2.9331751"
   sodipodi:cy="-1.0106868"
   sodipodi:r1="0.74172777"
   sodipodi:r2="0.37086388"
   sodipodi:arg1="-0.30515954"
   sodipodi:arg2="0.32315899"
   inkscape:flatsided="false"
   inkscape:rounded="0"
   inkscape:randomized="0"
   d="m -2.2257159,-1.2335354 -0.3557923,0.34062152 0.078892,0.48619681 -0.4338962,-0.23312082 -0.4380218,0.22527359 0.08763,-0.48469813 -0.3496041,-0.34697007 0.4880544,-0.066439 0.2219546,-0.4397129 0.2140044,0.4436365 z"
   inkscape:transform-center-x="-0.0015471354"
   inkscape:transform-center-y="-0.053986657"
   style="opacity:1;fill:#2d2d2d;fill-opacity:1;stroke:#ffffff;stroke-width:0.01925614;stroke-opacity:0.99390244;stroke-miterlimit:4;stroke-dasharray:none;filter:url(#filter872)"
   transform="matrix(0.74940009,0,0,0.78396607,-0.78151538,-0.81227326)"
   inkscape:export-xdpi="6.5500002"
   inkscape:export-ydpi="6.5500002" /><path
   sodipodi:type="star"
   id="path1144-7"
   sodipodi:sides="5"
   sodipodi:cx="-2.9331751"
   sodipodi:cy="-1.0106868"
   sodipodi:r1="0.74172777"
   sodipodi:r2="0.37086388"
   sodipodi:arg1="-0.30515954"
   sodipodi:arg2="0.32315899"
   inkscape:flatsided="false"
   inkscape:rounded="0"
   inkscape:randomized="0"
   d="m -2.2257159,-1.2335354 -0.3557923,0.34062152 0.078892,0.48619681 -0.4338962,-0.23312082 -0.4380218,0.22527359 0.08763,-0.48469813 -0.3496041,-0.34697007 0.4880544,-0.066439 0.2219546,-0.4397129 0.2140044,0.4436365 z"
   inkscape:transform-center-x="-0.0015471354"
   inkscape:transform-center-y="-0.053986657"
   style="clip-rule:evenodd;opacity:1;fill:#ffffff;fill-opacity:0.15686275;fill-rule:evenodd;stroke:#000000;stroke-width:0.01925614;stroke-miterlimit:4;stroke-dasharray:none;stroke-opacity:1;filter:url(#filter884);image-rendering:optimizeQuality;shape-rendering:geometricPrecision;text-rendering:geometricPrecision"
   transform="matrix(0.74940009,0,0,0.78396607,-0.79772094,0.34105724)"
   inkscape:export-xdpi="6.5500002"
   inkscape:export-ydpi="6.5500002" /></svg>