<?xml version="1.0" encoding="UTF-8" standalone="no"?>
<!-- Creator: CorelDRAW -->

<svg
   xmlns:dc="http://purl.org/dc/elements/1.1/"
   xmlns:cc="http://creativecommons.org/ns#"
   xmlns:rdf="http://www.w3.org/1999/02/22-rdf-syntax-ns#"
   xmlns:svg="http://www.w3.org/2000/svg"
   xmlns="http://www.w3.org/2000/svg"
   xmlns:sodipodi="http://sodipodi.sourceforge.net/DTD/sodipodi-0.dtd"
   xmlns:inkscape="http://www.inkscape.org/namespaces/inkscape"
   xml:space="preserve"
   width="0.609701in"
   height="0.596843in"
   style="shape-rendering:geometricPrecision; text-rendering:geometricPrecision; image-rendering:optimizeQuality; fill-rule:evenodd; clip-rule:evenodd"
   viewBox="0 0 0.120884 0.118334"
   id="svg2838"
   version="1.1"
   inkscape:version="0.47pre4 r22446"
   sodipodi:docname="tiny.close.button.svg"><metadata
   id="metadata2856"><rdf:RDF><cc:Work
       rdf:about=""><dc:format>image/svg+xml</dc:format><dc:type
         rdf:resource="http://purl.org/dc/dcmitype/StillImage" /><dc:title /></cc:Work></rdf:RDF></metadata><sodipodi:namedview
   pagecolor="#ffffff"
   bordercolor="#666666"
   borderopacity="1"
   objecttolerance="10"
   gridtolerance="10"
   guidetolerance="10"
   inkscape:pageopacity="0"
   inkscape:pageshadow="2"
   inkscape:window-width="1280"
   inkscape:window-height="948"
   id="namedview2854"
   showgrid="false"
   inkscape:zoom="8.786975"
   inkscape:cx="24.735919"
   inkscape:cy="23.240441"
   inkscape:window-x="0"
   inkscape:window-y="0"
   inkscape:window-maximized="1"
   inkscape:current-layer="svg2838" />
 <defs
   id="defs2840"><inkscape:perspective
   sodipodi:type="inkscape:persp3d"
   inkscape:vp_x="0 : 26.857935 : 1"
   inkscape:vp_y="0 : 1000 : 0"
   inkscape:vp_z="54.873089 : 26.857935 : 1"
   inkscape:persp3d-origin="27.436544 : 17.90529 : 1"
   id="perspective2858" />
  <style
   type="text/css"
   id="style2842">
   
    .fil0 {fill:white}
    .fil1 {fill:#31A2F2}
   
  </style>
 <inkscape:perspective
   id="perspective3575"
   inkscape:persp3d-origin="0.5 : 0.33333333 : 1"
   inkscape:vp_z="1 : 0.5 : 1"
   inkscape:vp_y="0 : 1000 : 0"
   inkscape:vp_x="0 : 0.5 : 1"
   sodipodi:type="inkscape:persp3d" />
  
  
  
  
  
 </defs>
 <path
   style="fill:#ffffff"
   id="path2846"
   d="M 0.0604419,0.118334 C 0.0270666,0.118334 0,0.0918387 0,0.0591668 0,0.0264948 0.0270666,-4e-7 0.0604419,-4e-7 c 0.0333761,0 0.0604419,0.0264953 0.0604419,0.0591672 0,0.032672 -0.0270659,0.0591672 -0.0604419,0.0591672 z"
   class="fil0" /><path
   style="fill:#31a2f2;fill-opacity:1"
   id="path2848"
   d="m 0.0604419,0.109716 c -0.0285138,0 -0.0516378,-0.0226361 -0.0516378,-0.0505489 0,-0.0279128 0.0231239,-0.0505489 0.0516378,-0.0505489 0.0285138,0 0.0516378,0.0226361 0.0516378,0.0505489 0,0.0279128 -0.0231239,0.0505489 -0.0516378,0.0505489 z"
   class="fil1" /><path
   style="fill:#ffffff"
   id="path2850"
   d="m 0.0850755,0.0345345 0,0 c 0.00333,0.00333 0.0033869,0.0087214 1.2724e-4,0.0119804 L 0.04778953,0.0839281 c -0.0032589,0.0032597 -0.0086504,0.0032027 -0.0119804,-1.2724e-4 l 0,0 C 0.03247839,0.08047012 0.0324222,0.07507944 0.03568112,0.07181977 l 0.0374132,-0.0374132 c 0.0032597,-0.0032589 0.0086504,-0.0032027 0.0119811,1.2801e-4 z"
   class="fil0" /><path
   style="fill:#ffffff"
   id="path2852"
   d="m 0.0850747,0.0838008 0,0 c -0.00333,0.00333 -0.0087214,0.0033869 -0.0119804,1.2723e-4 L 0.0356811,0.04651483 C 0.0324214,0.04325593 0.0324784,0.03786443 0.03580833,0.03453443 l 0,0 c 0.0033307,-0.0033307 0.0087214,-0.0033869 0.01198111,-1.2801e-4 l 0.03741319,0.0374132 c 0.0032589,0.0032597 0.0032027,0.0086504 -1.2801e-4,0.0119811 z"
   class="fil0" />
</svg>